<svg width="170" height="111" viewBox="0 0 170 111" fill="none" xmlns="http://www.w3.org/2000/svg">
<path fill-rule="evenodd" clip-rule="evenodd" d="M77.3575 44.2662C74.6018 46.4866 70.9225 48.188 65.9218 48.188C59.1825 48.188 52.975 43.4176 47.4482 34.0019L47.4443 34.0059L47.3029 33.7494L46.8768 32.9794L45.0296 29.6384L44.9839 29.5551L44.1004 27.958C44.0971 27.9634 44.0939 27.9694 44.0904 27.9755C39.5418 20.0787 33.1311 11.5166 21.4314 11.5166C5.81821 11.5166 0 23.8459 0 31.618V63.6716H4.88322V45.1323C4.89179 45.1405 4.89964 45.1501 4.90857 45.158V41.2991L4.88322 41.3205V31.618C4.88322 25.7369 9.37571 16.4062 21.4314 16.4062C30.1979 16.4062 35.1468 22.3134 39.9268 30.5662C40.3829 31.3534 40.8379 32.163 41.2936 32.9898C41.3054 32.9701 41.3161 32.9505 41.3268 32.9312L44.11 37.8287L44.5911 38.6751C50.7632 48.2362 57.9236 53.0776 65.9218 53.0776C71.9389 53.0776 76.4204 51.1384 79.7868 48.6005H79.7275L77.3575 44.2662ZM38.3593 37.6834C33.4525 44.6541 28.0314 48.1876 22.2457 48.1876C18.0682 48.1876 14.4386 46.8848 10.9393 44.0716L8.56428 48.4162C12.7439 51.5726 17.2079 53.0776 22.2457 53.0776C29.5011 53.0776 36.0918 49.0691 41.8489 41.1844L39.2618 36.3516C38.9625 36.8094 38.6611 37.2544 38.3593 37.6834ZM66.7357 11.5166C55.9461 11.5166 49.9739 18.6373 45.9779 24.8594L48.8057 29.5869C49.2136 28.8987 49.6286 28.2148 50.0586 27.5444C55.0657 19.7373 60.0536 16.4062 66.7357 16.4062C78.7914 16.4062 83.2839 25.7369 83.2839 31.618V37.1669C83.2832 37.1676 83.2829 37.168 83.2821 37.1691V45.3909C83.2829 45.3905 83.2832 45.3898 83.2839 45.3898V52.4437H88.1671V31.618C88.1671 23.8462 82.3486 11.5166 66.7357 11.5166ZM169.732 16.4062V11.5166C158.039 11.5166 151.629 20.0698 147.08 27.9634C142.532 20.0698 136.121 11.5166 124.428 11.5166C108.815 11.5166 102.997 23.8462 102.997 31.618V63.6712H107.88V44.1426C107.88 44.1437 107.881 44.1441 107.881 44.1448V42.9576L107.88 42.9591V31.618C107.88 29.0548 108.837 25.1605 111.523 21.9176C114.551 18.2605 118.894 16.4062 124.428 16.4062C133.189 16.4062 138.138 22.3066 142.915 30.5516L142.936 30.5312L144.315 32.9566C144.308 32.9691 144.3 32.9826 144.294 32.9948C144.552 33.463 144.81 33.9348 145.07 34.4137C145.716 35.6073 146.391 36.7469 147.087 37.8355L147.095 37.8498L147.096 37.8491C153.32 47.5773 161.424 53.0773 169.732 53.0773V48.1876C162.558 48.1876 155.358 42.6651 149.868 32.993C155.106 23.4966 160.128 16.4062 169.732 16.4062ZM125.242 48.1876C120.607 48.1876 116.706 45.6998 114.198 43.5494L111.805 47.9259C114.957 50.4459 119.599 53.0773 125.242 53.0773C132.5 53.0773 139.067 49.0876 144.833 41.2059L142.245 36.3694C137.095 44.2141 131.39 48.1876 125.242 48.1876ZM93.1404 52.4437H98.0232V0.289062H93.1404V52.4437Z" fill="white"/>
<path d="M1.98 105H4.686V100.05H7.744C11.132 100.05 13.904 98.246 13.904 94.792V94.748C13.904 91.646 11.66 89.6 8.052 89.6H1.98V105ZM4.686 97.608V92.064H7.832C9.856 92.064 11.154 93.01 11.154 94.814V94.858C11.154 96.464 9.878 97.608 7.832 97.608H4.686ZM19.4965 105.242C21.2785 105.242 22.4885 104.494 23.2805 103.548V105H25.8765V98.114C25.8765 96.596 25.4805 95.364 24.6225 94.528C23.8085 93.692 22.5105 93.23 20.7725 93.23C18.9245 93.23 17.6705 93.604 16.3945 94.176L17.0985 96.266C18.1545 95.826 19.1225 95.54 20.4205 95.54C22.2905 95.54 23.3025 96.42 23.3025 98.07V98.356C22.4005 98.07 21.4765 97.872 20.1785 97.872C17.3405 97.872 15.3825 99.104 15.3825 101.612V101.656C15.3825 103.988 17.3185 105.242 19.4965 105.242ZM20.2445 103.306C18.9685 103.306 17.9785 102.668 17.9785 101.546V101.502C17.9785 100.292 18.9905 99.566 20.7065 99.566C21.7625 99.566 22.6645 99.764 23.3465 100.028V100.82C23.3465 102.294 22.0045 103.306 20.2445 103.306ZM29.2186 105H31.8806V88.94H29.2186V105ZM35.3595 108.52H38.0215V103.196C38.8355 104.274 40.0455 105.242 41.9815 105.242C44.7315 105.242 47.3715 103.064 47.3715 99.214V99.17C47.3715 95.298 44.7095 93.142 41.9815 93.142C40.0895 93.142 38.8795 94.11 38.0215 95.32V93.384H35.3595V108.52ZM41.3435 102.932C39.5395 102.932 37.9555 101.436 37.9555 99.214V99.17C37.9555 96.948 39.5395 95.452 41.3435 95.452C43.1475 95.452 44.6655 96.926 44.6655 99.17V99.214C44.6655 101.502 43.1695 102.932 41.3435 102.932ZM53.4633 105.242C55.2453 105.242 56.4553 104.494 57.2473 103.548V105H59.8433V98.114C59.8433 96.596 59.4473 95.364 58.5893 94.528C57.7753 93.692 56.4773 93.23 54.7393 93.23C52.8913 93.23 51.6373 93.604 50.3613 94.176L51.0653 96.266C52.1213 95.826 53.0893 95.54 54.3873 95.54C56.2573 95.54 57.2693 96.42 57.2693 98.07V98.356C56.3673 98.07 55.4433 97.872 54.1453 97.872C51.3073 97.872 49.3493 99.104 49.3493 101.612V101.656C49.3493 103.988 51.2853 105.242 53.4633 105.242ZM54.2113 103.306C52.9353 103.306 51.9453 102.668 51.9453 101.546V101.502C51.9453 100.292 52.9573 99.566 54.6733 99.566C55.7293 99.566 56.6313 99.764 57.3133 100.028V100.82C57.3133 102.294 55.9713 103.306 54.2113 103.306ZM69.6534 105.242C72.4034 105.242 75.0434 103.064 75.0434 99.214V99.17C75.0434 95.298 72.3814 93.142 69.6534 93.142C67.7614 93.142 66.5514 94.11 65.6934 95.32V88.94H63.0314V105H65.6934V103.196C66.5074 104.274 67.7174 105.242 69.6534 105.242ZM69.0154 102.932C67.2114 102.932 65.6274 101.436 65.6274 99.214V99.17C65.6274 96.948 67.2114 95.452 69.0154 95.452C70.8194 95.452 72.3374 96.926 72.3374 99.17V99.214C72.3374 101.502 70.8414 102.932 69.0154 102.932ZM77.9451 105H80.6071V88.94H77.9451V105ZM89.4101 105.264C91.5441 105.264 93.0621 104.406 94.1621 103.086L92.6001 101.7C91.6761 102.602 90.7521 103.086 89.4541 103.086C87.7381 103.086 86.3961 102.03 86.1101 100.138H94.6461C94.6681 99.874 94.6901 99.632 94.6901 99.39C94.6901 96.046 92.8201 93.142 89.1241 93.142C85.8021 93.142 83.4481 95.87 83.4481 99.192V99.236C83.4481 102.822 86.0441 105.264 89.4101 105.264ZM86.0881 98.378C86.3301 96.574 87.4741 95.32 89.1021 95.32C90.8621 95.32 91.8741 96.662 92.0501 98.378H86.0881ZM104.267 105H106.973V100.05H110.031C113.419 100.05 116.191 98.246 116.191 94.792V94.748C116.191 91.646 113.947 89.6 110.339 89.6H104.267V105ZM106.973 97.608V92.064H110.119C112.143 92.064 113.441 93.01 113.441 94.814V94.858C113.441 96.464 112.165 97.608 110.119 97.608H106.973ZM118.698 91.602H121.558V89.072H118.698V91.602ZM118.808 105H121.47V93.384H118.808V105ZM126.995 93.384H124.091L128.183 99.082L123.937 105H126.775L129.613 100.864L132.473 105H135.377L131.109 99.06L135.201 93.384H132.363L129.679 97.278L126.995 93.384ZM142.262 105.264C144.396 105.264 145.914 104.406 147.014 103.086L145.452 101.7C144.528 102.602 143.604 103.086 142.306 103.086C140.59 103.086 139.248 102.03 138.962 100.138H147.498C147.52 99.874 147.542 99.632 147.542 99.39C147.542 96.046 145.672 93.142 141.976 93.142C138.654 93.142 136.3 95.87 136.3 99.192V99.236C136.3 102.822 138.896 105.264 142.262 105.264ZM138.94 98.378C139.182 96.574 140.326 95.32 141.954 95.32C143.714 95.32 144.726 96.662 144.902 98.378H138.94ZM150.369 105H153.031V88.94H150.369V105ZM160.492 105.22C162.912 105.22 164.804 104.01 164.804 101.568V101.524C164.804 99.434 162.89 98.664 161.196 98.136C159.832 97.696 158.578 97.344 158.578 96.486V96.442C158.578 95.782 159.172 95.298 160.206 95.298C161.174 95.298 162.362 95.716 163.484 96.398L164.54 94.506C163.308 93.692 161.724 93.186 160.272 93.186C157.962 93.186 156.136 94.528 156.136 96.728V96.772C156.136 98.994 158.05 99.698 159.766 100.182C161.13 100.6 162.362 100.908 162.362 101.81V101.854C162.362 102.624 161.702 103.108 160.558 103.108C159.37 103.108 158.028 102.624 156.752 101.678L155.564 103.482C157.016 104.626 158.842 105.22 160.492 105.22Z" fill="white"/>
</svg>
