<svg width="19" height="19" viewBox="0 0 19 19" fill="none" xmlns="http://www.w3.org/2000/svg">
<path d="M3.80001 2.05556L9.50001 7.75556L15.2 2.07283C15.3122 1.95864 15.4469 1.86898 15.5956 1.80952C15.7442 1.75005 15.9036 1.72209 16.0636 1.72738C16.3776 1.7477 16.6735 1.88161 16.896 2.1041C17.1185 2.3266 17.2524 2.62247 17.2727 2.93647C17.2743 3.09086 17.2445 3.24395 17.1851 3.38647C17.1257 3.52899 17.038 3.65796 16.9273 3.76556L11.21 9.5001L16.9273 15.2346C17.1518 15.4523 17.2762 15.7528 17.2727 16.0637C17.2524 16.3777 17.1185 16.6736 16.896 16.8961C16.6735 17.1186 16.3776 17.2525 16.0636 17.2728C15.9036 17.2781 15.7442 17.2502 15.5956 17.1907C15.4469 17.1312 15.3122 17.0416 15.2 16.9274L9.50001 11.2446L3.81728 16.9274C3.70506 17.0416 3.57036 17.1312 3.4217 17.1907C3.27304 17.2502 3.11367 17.2781 2.95365 17.2728C2.63379 17.2562 2.33144 17.1216 2.10496 16.8952C1.87848 16.6687 1.74393 16.3663 1.72728 16.0465C1.72572 15.8921 1.75553 15.739 1.81492 15.5965C1.8743 15.4539 1.96201 15.325 2.07274 15.2174L7.79001 9.5001L2.05546 3.76556C1.94786 3.65651 1.86334 3.52688 1.80695 3.38443C1.75056 3.24198 1.72347 3.08963 1.72728 2.93647C1.7476 2.62247 1.88151 2.3266 2.10401 2.1041C2.3265 1.88161 2.62237 1.7477 2.93637 1.72738C3.09515 1.71984 3.25377 1.74508 3.40236 1.80155C3.55095 1.85801 3.68631 1.94448 3.80001 2.05556V2.05556Z" fill="white"/>
</svg>
