<svg width="104" height="104" viewBox="0 0 104 104" fill="none" xmlns="http://www.w3.org/2000/svg">
<path d="M53.8572 37.1428C48.6572 37.1428 44.5715 41.2285 44.5715 46.4285C44.5715 51.6285 48.6572 55.7143 53.8572 55.7143C59.0572 55.7143 63.143 51.6285 63.143 46.4285C63.143 41.2285 59.0572 37.1428 53.8572 37.1428ZM55.7144 47.1714L51.443 51.4428L48.843 48.8428L52.0001 45.6857V40.8571H55.7144V47.1714Z" fill="url(#paint0_linear)"/>
<path d="M104 42.7143H94.7143V39H104V5.57143C104 2.41429 101.586 0 98.4286 0H96.5714V9.28571H92.8571V0H33.4286V9.28571H29.7143V0H5.57143C2.41429 0 0 2.41429 0 5.57143V13H11.1429V16.7143H0V66.8571H9.28571V70.5714H0V98.4286C0 101.586 2.41429 104 5.57143 104H11.1429V94.7143H14.8571V104H74.2857V94.7143H78V104H98.4286C101.586 104 104 101.586 104 98.4286V87.2857H94.7143V83.5714H104V42.7143ZM57.5714 13H70.5714V3.71429H74.2857V13H81.7143C86.9143 13 91 17.0857 91 22.2857V24.1429H100.286V27.8571H91V46.4286H87.2857V22.2857C87.2857 19.1286 84.8714 16.7143 81.7143 16.7143H61.2857V22.2857H57.5714V13ZM3.71429 46.4286V42.7143H13V22.2857C13 17.0857 17.0857 13 22.2857 13H46.4286V16.7143H22.2857C19.1286 16.7143 16.7143 19.1286 16.7143 22.2857V24.1429H31.5714V27.8571H16.7143V46.4286H3.71429ZM100.286 65H91V81.7143C91 86.9143 86.9143 91 81.7143 91H70.5714V78H55.7143V74.2857H70.5714V31.5714C70.5714 30.4571 69.8286 29.7143 68.7143 29.7143H43.0857C42.3429 29.7143 41.7857 30.0857 41.4143 30.8286L32.6857 48.2857H36.9571L38.6286 63.3286C38.8143 64.2571 39.5571 65 40.4857 65H46.4286C49.5857 65 52 67.4143 52 70.5714V91H44.5714V100.286H40.8571V91H22.2857C17.0857 91 13 86.9143 13 81.7143V57.5714H16.7143V63.1429H27.8571V66.8571H16.7143V81.7143C16.7143 84.8714 19.1286 87.2857 22.2857 87.2857H27.8571V76.1429H31.5714V87.2857H48.2857V70.5714C48.2857 69.4571 47.5429 68.7143 46.4286 68.7143H40.4857C37.7 68.7143 35.2857 66.6714 34.9143 63.7L33.6143 52H26.7429L38.2571 29.1571C39.1857 27.3 41.0429 26 43.2714 26H68.7143C71.8714 26 74.2857 28.4143 74.2857 31.5714V87.2857H81.7143C84.8714 87.2857 87.2857 84.8714 87.2857 81.7143V57.5714H78V53.8571H91V61.2857H100.286V65ZM53.8571 59.4286C46.6143 59.4286 40.8571 53.6714 40.8571 46.4286C40.8571 39.1857 46.6143 33.4286 53.8571 33.4286C61.1 33.4286 66.8571 39.1857 66.8571 46.4286C66.8571 53.6714 61.1 59.4286 53.8571 59.4286Z" fill="url(#paint1_linear)"/>
<defs>
<linearGradient id="paint0_linear" x1="53.8572" y1="37.1428" x2="53.8572" y2="55.7143" gradientUnits="userSpaceOnUse">
<stop stop-color="#EFC9DC"/>
<stop offset="0.317708" stop-color="#C4D3F2"/>
<stop offset="0.640625" stop-color="#93D4F6"/>
<stop offset="1" stop-color="#94E7F6"/>
</linearGradient>
<linearGradient id="paint1_linear" x1="52" y1="0" x2="52" y2="104" gradientUnits="userSpaceOnUse">
<stop stop-color="#EFC9DC"/>
<stop offset="0.317708" stop-color="#C4D3F2"/>
<stop offset="0.640625" stop-color="#93D4F6"/>
<stop offset="1" stop-color="#94E7F6"/>
</linearGradient>
</defs>
</svg>
