<svg width="130" height="137" viewBox="0 0 130 137" fill="none" xmlns="http://www.w3.org/2000/svg">
<path d="M40.0904 36.8122C39.5803 37.5048 39.269 38.3523 39.269 39.2784C39.269 41.5851 41.1389 43.4551 43.4456 43.4551C44.5955 43.4551 45.6361 42.9897 46.3914 42.238C49.9373 49.541 57.4027 54.5883 66.0663 54.5883C75.0742 54.5883 82.8046 49.1423 86.1611 41.3662C86.8845 42.6097 88.2166 43.4551 89.7588 43.4551C92.0655 43.4551 93.9355 41.5851 93.9355 39.2784C93.9355 38.3357 93.6115 37.4755 93.0846 36.7765C94.8511 35.9985 96.0877 34.2381 96.0877 32.184C96.0877 29.4105 93.8393 27.1621 91.0658 27.1621C89.6966 27.1621 88.4583 27.7134 87.5524 28.602C86.5346 23.2418 83.5606 18.5872 79.4026 15.3814L79.4263 15.3636C75.8883 11.9362 75.7202 8.36765 75.7202 8.36765L75.7135 8.3698C75.3964 4.19292 72.1565 1.6739 69.1985 0.238644C67.3098 -0.677705 65.2768 1.20486 66.0264 3.16578C66.1274 3.42973 66.2 3.71014 66.1859 3.99234C65.9983 7.75777 59.4109 11.5463 56.6274 12.984C56.2446 13.1676 55.8594 13.3459 55.4893 13.5507C55.4378 13.5749 55.3931 13.5956 55.3931 13.5956L55.4171 13.5945C50.0517 16.5911 46.0859 21.7773 44.7165 27.9471C43.9408 27.4566 43.0281 27.1621 42.0424 27.1621C39.2689 27.1621 37.0205 29.4105 37.0205 32.184C37.0205 34.2652 38.2865 36.0504 40.0904 36.8122ZM66.0663 52.1567C58.3238 52.1567 51.6431 47.5985 48.5146 41.0347C49.9921 40.1892 51.3742 39.3283 52.6658 38.4565C53.9825 39.5248 55.6588 40.1672 57.4866 40.1672C61.4337 40.1672 64.681 37.1807 65.0982 33.3444H67.6893C68.2731 36.9952 71.4277 39.7877 75.243 39.7877C79.4731 39.7877 82.9023 36.3586 82.9023 32.1284C82.9023 27.8983 79.4731 24.4691 75.243 24.4691C71.4276 24.4691 68.2728 27.2621 67.6892 30.9129H64.9771C64.7803 29.9843 64.4128 29.1199 63.9129 28.349C68.0319 23.2656 69.8327 18.6717 70.6106 15.8528C73.1376 18.9473 77.5871 23.1824 83.3675 23.855C84.7328 26.5132 85.5185 29.5162 85.5185 32.7045C85.5185 43.4305 76.7923 52.1567 66.0663 52.1567ZM62.7143 32.5079C62.7143 35.3905 60.3692 37.7356 57.4866 37.7356C56.4956 37.7356 55.5781 37.4431 54.7876 36.9622C53.2786 36.0444 52.2588 34.3996 52.2588 32.5079C52.2588 29.6253 54.604 27.2801 57.4866 27.2801C59.584 27.2801 61.3846 28.5291 62.2165 30.3159C62.5279 30.9848 62.7143 31.7227 62.7143 32.5079ZM70.0152 32.1284C70.0152 29.2458 72.3604 26.9006 75.243 26.9006C78.1256 26.9006 80.4708 29.2458 80.4708 32.1284C80.4708 35.011 78.1256 37.3562 75.243 37.3562C72.3604 37.3562 70.0152 35.011 70.0152 32.1284Z" fill="url(#paint0_linear)"/>
<path d="M128.784 111.874H105.941C110.652 109.739 113.936 105.006 113.936 99.4968V99.4968C113.936 97.2351 113.372 95.0092 112.294 93.0207L98.4132 67.4047C95.0125 61.1293 88.4482 57.2203 81.3106 57.2203H78.4248C77.1351 57.2203 75.8981 57.7326 74.9861 58.6446L71.7858 61.8449C68.9371 64.6936 64.3184 64.6936 61.4697 61.8449L58.2695 58.6446C57.3575 57.7326 56.1205 57.2203 54.8308 57.2203H51.4186C44.281 57.2203 37.7167 61.1293 34.3161 67.4047L20.4349 93.0207C19.3573 95.0092 18.793 97.2351 18.793 99.4968V99.4968C18.793 105.006 22.0769 109.739 26.7888 111.874H1.21576C0.544363 111.874 0 112.418 0 113.09C0 113.762 0.544363 114.305 1.21576 114.305H63.7814H65.7045H128.784C129.456 114.305 130 113.762 130 113.09C130 112.418 129.456 111.874 128.784 111.874ZM81.0115 95.7449L94.5446 91.8542C95.1923 91.6702 95.8642 92.0418 96.0489 92.6865C96.2347 93.3324 95.8619 94.0056 95.2166 94.1908L81.6835 98.0815C81.5713 98.1135 81.4579 98.129 81.3469 98.129C80.8186 98.129 80.3324 97.7823 80.1792 97.2492C79.9934 96.6033 80.3662 95.9301 81.0115 95.7449ZM41.6921 95.1014C41.032 94.978 40.5981 94.3416 40.7221 93.6814C40.8474 93.0225 41.4832 92.5904 42.1421 92.7126L64.7427 96.9729V96.9131L74.0322 98.5604L73.653 98.4364L74.4904 98.5849C76.0431 98.8605 77.5197 99.3943 78.8798 100.145L78.1282 99.8995C82.2153 101.897 85.2933 105.635 86.3794 110.203C86.5218 110.802 86.4125 111.386 86.1417 111.874H65.9587H64.7427H63.5272V99.2177L41.6921 95.1014Z" fill="url(#paint1_linear)"/>
<path d="M50.6272 116.592H30.0803H30.0304C29.6018 116.592 29.2047 116.818 28.9856 117.187L21.8062 129.345C21.5824 129.72 21.5782 130.186 21.7943 130.566C22.0104 130.946 22.4141 131.181 22.851 131.181H37.5797H46.6207H46.6943C47.2191 131.181 47.6851 130.844 47.8489 130.346L51.7818 118.188C51.9041 117.817 51.8405 117.411 51.612 117.096C51.3834 116.78 51.0172 116.592 50.6272 116.592ZM27.6875 124.211C33.5871 124.049 36.4657 120.555 37.441 119.024H48.9466L47.5201 123.352C40.1561 123.636 37.5767 127.048 36.7558 128.75H24.9887L27.6875 124.211Z" fill="url(#paint2_linear)"/>
<path d="M112.169 125.103C112.614 125.103 113.022 124.86 113.236 124.47C113.449 124.08 113.432 123.605 113.193 123.231L109.3 117.153C109.076 116.804 108.691 116.592 108.276 116.592H87.7293C87.3357 116.592 86.9665 116.782 86.7385 117.104C86.5106 117.424 86.4518 117.835 86.5812 118.207L88.6951 124.286C88.8649 124.775 89.3256 125.103 89.8432 125.103H112.169ZM97.8271 122.671L107.945 119.545L109.947 122.671H97.8271ZM101.397 119.024L90.5994 122.36L89.4396 119.024H101.397Z" fill="url(#paint3_linear)"/>
<path d="M115.086 128.094C114.862 127.745 114.476 127.534 114.062 127.534H90.9119C90.5183 127.534 90.1491 127.724 89.9211 128.046C89.6932 128.366 89.6344 128.777 89.7638 129.149L91.8772 135.228C92.0469 135.717 92.5076 136.044 93.0253 136.044H117.954C118.399 136.044 118.807 135.802 119.021 135.412C119.234 135.022 119.218 134.547 118.978 134.173L115.086 128.094ZM93.8896 133.613L92.6216 129.966H113.397L115.732 133.613H93.8896Z" fill="url(#paint4_linear)"/>
<path d="M78.4668 117.594C78.3629 117.014 77.8589 116.592 77.27 116.592H77.2053H69.3313H61.3072C60.7498 116.592 60.2642 116.971 60.1282 117.511L55.8434 134.532C55.752 134.895 55.8333 135.281 56.0636 135.577C56.2939 135.871 56.6478 136.044 57.0223 136.044H81.641C82.0173 136.044 82.3729 135.87 82.6032 135.572C82.833 135.274 82.9125 134.887 82.8175 134.522L78.4668 117.594ZM62.2546 119.024H68.1827C68.3506 120.652 68.8708 121.957 69.7332 122.929L58.994 131.976L62.2546 119.024ZM60.8236 133.613L71.8038 124.363C72.7123 124.722 73.6791 124.863 74.5945 124.863C75.8151 124.863 76.927 124.639 77.6776 124.442L80.0678 133.613H60.8236Z" fill="url(#paint5_linear)"/>
<defs>
<linearGradient id="paint0_linear" x1="66.5541" y1="0" x2="66.5541" y2="54.5883" gradientUnits="userSpaceOnUse">
<stop stop-color="#95E7F6"/>
<stop offset="0.317708" stop-color="#92D9F6"/>
<stop offset="0.671875" stop-color="#C5D3F2"/>
<stop offset="1" stop-color="#F0C8DB"/>
</linearGradient>
<linearGradient id="paint1_linear" x1="65" y1="57.2203" x2="65" y2="114.306" gradientUnits="userSpaceOnUse">
<stop stop-color="#95E7F6"/>
<stop offset="0.317708" stop-color="#92D9F6"/>
<stop offset="0.671875" stop-color="#C5D3F2"/>
<stop offset="1" stop-color="#F0C8DB"/>
</linearGradient>
<linearGradient id="paint2_linear" x1="36.7391" y1="116.592" x2="36.7391" y2="131.181" gradientUnits="userSpaceOnUse">
<stop stop-color="#95E7F6"/>
<stop offset="0.317708" stop-color="#92D9F6"/>
<stop offset="0.671875" stop-color="#C5D3F2"/>
<stop offset="1" stop-color="#F0C8DB"/>
</linearGradient>
<linearGradient id="paint3_linear" x1="99.9493" y1="116.592" x2="99.9493" y2="125.103" gradientUnits="userSpaceOnUse">
<stop stop-color="#95E7F6"/>
<stop offset="0.317708" stop-color="#92D9F6"/>
<stop offset="0.671875" stop-color="#C5D3F2"/>
<stop offset="1" stop-color="#F0C8DB"/>
</linearGradient>
<linearGradient id="paint4_linear" x1="104.433" y1="127.534" x2="104.433" y2="136.044" gradientUnits="userSpaceOnUse">
<stop stop-color="#95E7F6"/>
<stop offset="0.317708" stop-color="#92D9F6"/>
<stop offset="0.671875" stop-color="#C5D3F2"/>
<stop offset="1" stop-color="#F0C8DB"/>
</linearGradient>
<linearGradient id="paint5_linear" x1="69.3317" y1="116.592" x2="69.3317" y2="136.044" gradientUnits="userSpaceOnUse">
<stop stop-color="#95E7F6"/>
<stop offset="0.317708" stop-color="#92D9F6"/>
<stop offset="0.671875" stop-color="#C5D3F2"/>
<stop offset="1" stop-color="#F0C8DB"/>
</linearGradient>
</defs>
</svg>
