<svg width="117" height="163" viewBox="0 0 117 163" fill="none" xmlns="http://www.w3.org/2000/svg">
<path fill-rule="evenodd" clip-rule="evenodd" d="M55.2233 95.7802L40.0744 155.887C37.1423 167.615 19.5501 163.217 22.4821 151.489L38.6084 88.4501V60.1069L32.7443 70.3691C29.3236 76.7219 19.0614 71.3465 22.9708 64.9937L37.631 37.1393C40.0744 33.2299 44.9611 30.2978 49.3592 30.2978H67.9288C71.8382 30.2978 77.2136 33.2299 79.1683 37.1393L94.3172 64.9937C97.738 71.3465 87.4758 76.7219 84.0551 70.3691L78.6797 60.1069V88.4501L94.3172 151.489C97.2493 163.217 79.657 167.615 76.725 155.887L61.5761 95.7802H55.2233ZM23.4595 91.3821L12.7086 134.385C10.7539 142.693 -1.46293 139.761 0.491766 131.453L11.7313 86.4954V65.971L7.82188 73.3012C5.37851 78.1879 -1.95161 74.2785 0.491766 69.3918L11.2426 49.8448C12.7086 46.9127 16.1293 44.958 19.5501 44.958H29.8122L20.0387 63.039C14.6633 73.3012 28.8349 81.6086 35.1876 73.3012V87.9614L31.2782 103.11L28.3462 91.3821H23.4595ZM25.9028 23.4564C31.2782 23.4564 35.6763 27.8544 35.6763 33.2299V33.7185C34.2103 36.1619 32.7443 39.0939 31.7669 41.0486C30.3009 42.5147 28.3462 43.0033 25.9028 43.0033C20.5274 43.0033 16.1293 38.6053 16.1293 33.2299C16.1293 27.8544 20.5274 23.4564 25.9028 23.4564ZM88.9418 91.3821L86.0098 103.11L82.1004 87.9614V73.3012C88.4531 81.6086 102.625 73.3012 97.2493 63.039L87.4758 44.958H97.738C100.67 44.958 104.579 46.9127 106.045 49.8448L116.308 69.3918C119.24 74.2785 111.91 78.1879 109.466 73.3012L105.557 65.971V86.4954L116.796 131.453C118.751 139.761 106.045 142.693 104.091 134.385L93.3399 91.3821H88.9418ZM90.8965 23.4564C96.7606 23.4564 101.159 27.8544 101.159 33.2299C101.159 38.6053 96.7606 43.0033 90.8965 43.0033C88.9418 43.0033 86.9871 42.5147 85.5211 41.0486C84.0551 39.0939 82.5891 36.1619 81.123 33.7185V33.2299C81.123 27.8544 85.5211 23.4564 90.8965 23.4564ZM58.644 0C65.9741 0 72.3269 6.35277 72.3269 13.6829C72.3269 21.5017 65.9741 27.3658 58.644 27.3658C50.8252 27.3658 44.9611 21.5017 44.9611 13.6829C44.9611 6.35277 50.8252 0 58.644 0Z" fill="url(#paint0_linear)"/>
<defs>
<linearGradient id="paint0_linear" x1="58.5" y1="0" x2="58.5" y2="162.787" gradientUnits="userSpaceOnUse">
<stop stop-color="#F6C6D7"/>
<stop offset="0.359375" stop-color="#CED2EF"/>
<stop offset="0.666667" stop-color="#92D7F6"/>
<stop offset="1" stop-color="#9EEBF8"/>
</linearGradient>
</defs>
</svg>
