<svg width="635" height="636" viewBox="0 0 635 636" fill="none" xmlns="http://www.w3.org/2000/svg">
<g filter="url(#filter0_ddi)">
<circle cx="317.505" cy="318" r="207.223" fill="#FDFFFE"/>
<circle cx="317.505" cy="318" r="204.723" stroke="white" stroke-width="5"/>
</g>
<path d="M397.339 188.828C397.339 188.828 415.415 193.257 423.792 184.629C423.792 184.629 436.698 216.404 462.24 234.159C487.771 251.915 475.005 290.423 473.813 292.417C472.611 294.411 438.492 326.346 438.492 326.346C438.492 326.346 408.361 305.594 401.978 286.435C401.978 286.435 434.103 263.288 448.071 256.905" stroke="url(#paint0_linear)" stroke-width="2" stroke-miterlimit="1.5" stroke-linecap="round" stroke-linejoin="round"/>
<path d="M435.769 263.835C435.769 263.835 424.546 250.017 421.951 233.855" stroke="url(#paint1_linear)" stroke-width="2" stroke-miterlimit="1.5" stroke-linecap="round" stroke-linejoin="round"/>
<path d="M397.284 188.521C397.284 188.521 380.37 263.343 401.723 285.688" stroke="url(#paint2_linear)" stroke-width="2" stroke-miterlimit="1.5" stroke-linecap="round" stroke-linejoin="round"/>
<path d="M337.009 259.278L396.409 200.198" stroke="url(#paint3_linear)" stroke-width="2" stroke-miterlimit="1.5" stroke-linecap="round" stroke-linejoin="round"/>
<path d="M292.796 223.621C294.868 223.621 296.548 221.811 296.548 219.579C296.548 217.348 294.868 215.538 292.796 215.538C290.723 215.538 289.043 217.348 289.043 219.579C289.043 221.811 290.723 223.621 292.796 223.621Z" stroke="url(#paint4_linear)" stroke-width="2" stroke-miterlimit="1.5" stroke-linecap="round" stroke-linejoin="round"/>
<path d="M372.497 274.603L391.034 245.073" stroke="url(#paint5_linear)" stroke-width="2" stroke-miterlimit="1.5" stroke-linecap="round" stroke-linejoin="round"/>
<path d="M376.619 268.198C376.619 268.198 384.465 274.721 394.044 270.062" stroke="url(#paint6_linear)" stroke-width="2" stroke-miterlimit="1.5" stroke-linecap="round" stroke-linejoin="round"/>
<path d="M407.413 281.935C407.413 281.935 419.978 312.798 443.726 320.974" stroke="url(#paint7_linear)" stroke-width="2" stroke-miterlimit="1.5" stroke-linecap="round" stroke-linejoin="round"/>
<path d="M385.921 275.266C385.921 275.266 370.7 278.763 332.513 263.743C294.336 248.723 273.785 260.697 257.221 273.463L230.087 295.417C230.087 295.417 238.664 330.728 271.991 341.901C271.991 341.901 272.783 306.589 283.164 298.203" stroke="url(#paint8_linear)" stroke-width="2" stroke-miterlimit="1.5" stroke-linecap="round" stroke-linejoin="round"/>
<path d="M278.74 299.286C278.74 299.286 292.508 288.193 356.557 325.308C356.557 325.308 371.517 332.683 385.886 328.495" stroke="url(#paint9_linear)" stroke-width="2" stroke-miterlimit="1.5" stroke-linecap="round" stroke-linejoin="round"/>
<path d="M271.376 341.861L268.781 370.198C268.781 370.198 298.31 398.135 343.401 391.552L330.235 329.787" stroke="url(#paint10_linear)" stroke-width="2" stroke-miterlimit="1.5" stroke-linecap="round" stroke-linejoin="round"/>
<path d="M358.21 325.542C358.21 325.542 318.701 336.515 322.498 321.544" stroke="url(#paint11_linear)" stroke-width="2" stroke-miterlimit="1.5" stroke-linecap="round" stroke-linejoin="round"/>
<path d="M230.14 295.444L216.883 306.526C216.883 306.526 213.075 330.655 239.589 338.631L250.23 328.52" stroke="url(#paint12_linear)" stroke-width="2" stroke-miterlimit="1.5" stroke-linecap="round" stroke-linejoin="round"/>
<path d="M216.83 306.663L197.702 322.795C197.702 322.795 202.842 330.861 188.303 335.831C188.303 335.831 190.698 366.343 221.119 354.279L239.296 338.767" stroke="url(#paint13_linear)" stroke-width="2" stroke-miterlimit="1.5" stroke-linecap="round" stroke-linejoin="round"/>
<path d="M301.979 387.942L302.199 404.675C302.199 404.675 321.708 418.974 341.218 404.565L340.205 392.571" stroke="url(#paint14_linear)" stroke-width="2" stroke-miterlimit="1.5" stroke-linecap="round" stroke-linejoin="round"/>
<path d="M302.208 404.816L303.982 429.866C303.982 429.866 312.629 425.818 310.194 444.837C310.194 444.837 333.451 458.524 343.431 433.253L341.227 404.655" stroke="url(#paint15_linear)" stroke-width="2" stroke-miterlimit="1.5" stroke-linecap="round" stroke-linejoin="round"/>
<path d="M268.781 370.312C268.781 370.312 286.106 391.485 301.958 393.699" stroke="url(#paint16_linear)" stroke-width="2" stroke-miterlimit="1.5" stroke-linecap="round" stroke-linejoin="round"/>
<path d="M304.114 429.674C304.114 429.674 299.123 429.904 300.346 448.462C300.346 448.462 280.506 482.55 270.756 491.97C270.756 491.97 257.67 508.262 278.622 517.13C278.622 517.13 302.671 521.349 323.733 493.523C323.733 493.523 328.934 474.013 343.403 466.147C357.882 458.271 367.742 444.975 353.553 431.778C353.553 431.778 347.792 427.229 348.232 425.235C348.683 423.241 354.335 411.196 349.235 411.066C349.235 411.066 343.693 411.497 342.361 418.471" stroke="url(#paint17_linear)" stroke-width="2" stroke-miterlimit="1.5" stroke-linecap="round" stroke-linejoin="round"/>
<path d="M278.625 517.193C278.625 517.193 294.918 529.057 322.794 504.006C350.681 478.955 372.404 461.881 372.404 461.881C372.404 461.881 386.042 439.826 355.661 433.504" stroke="url(#paint18_linear)" stroke-width="2" stroke-miterlimit="1.5" stroke-linecap="round" stroke-linejoin="round"/>
<path d="M197.913 322.918C197.913 322.918 193.735 318.739 181.951 328.238C181.951 328.238 170.388 332.637 150.388 331.926C150.388 331.926 113.854 325.834 110.157 343.279C110.157 343.279 109.525 348.459 110.798 351.656C112.08 354.842 124.966 370.414 145.758 374.161C166.54 377.899 169.176 365.844 192.733 376.095C216.28 386.356 221.962 371.806 222.653 368.199L223.766 356.556C223.766 356.556 236.652 355.313 237.072 350.042C237.072 350.042 235.409 344.782 229.036 347.557" stroke="url(#paint19_linear)" stroke-width="2" stroke-miterlimit="1.5" stroke-linecap="round" stroke-linejoin="round"/>
<path d="M110.757 351.538C110.757 351.538 109.134 359.904 121.469 367.8C133.804 375.706 200.999 398.152 200.999 398.152C200.999 398.152 219.296 403.412 224.417 385.957C224.417 385.957 224.837 374.865 222.893 368.081" stroke="url(#paint20_linear)" stroke-width="2" stroke-miterlimit="1.5" stroke-linecap="round" stroke-linejoin="round"/>
<path d="M399.78 170.663L397.225 188.509" stroke="url(#paint21_linear)" stroke-width="2" stroke-miterlimit="1.5" stroke-linecap="round" stroke-linejoin="round"/>
<path d="M424.065 184.68L420.377 161.804L417.892 154.64C417.892 154.64 422.221 151.453 419.806 147.475C419.806 147.475 412.431 143.788 412.852 154.78L405.898 155.071L407.321 152.225C407.321 152.225 408.814 143.998 405.337 146.273C401.86 148.538 394.545 156.203 389.084 148.327C389.084 148.327 386.609 143.006 389.375 143.006C389.375 143.006 389.445 147.265 390.858 145.281C390.858 145.281 405.828 129.389 419.235 138.397L426.69 147.836C426.69 147.836 430.377 159.179 420.377 161.804" stroke="url(#paint22_linear)" stroke-width="2" stroke-miterlimit="1.5" stroke-linecap="round" stroke-linejoin="round"/>
<path d="M419.204 138.337C419.204 138.337 420.186 135.521 423.152 136.543L428.843 142.846C428.843 142.846 430.787 146.473 426.729 147.746" stroke="url(#paint23_linear)" stroke-width="2" stroke-miterlimit="1.5" stroke-linecap="round" stroke-linejoin="round"/>
<path d="M423.097 136.585C423.097 136.585 431.073 77.7863 471.955 107.276C482.887 115.152 485.412 154.952 429.249 143.98" stroke="url(#paint24_linear)" stroke-width="2" stroke-miterlimit="1.5" stroke-linecap="round" stroke-linejoin="round"/>
<path d="M389.892 149.37C389.892 149.37 383.459 176.465 399.742 170.663C399.742 170.663 406.185 166.986 407.618 165.102" stroke="url(#paint25_linear)" stroke-width="2" stroke-miterlimit="1.5" stroke-linecap="round" stroke-linejoin="round"/>
<path d="M415.541 149.461C415.541 149.461 418.978 148.429 416.653 153.319" stroke="url(#paint26_linear)" stroke-width="2" stroke-miterlimit="1.5" stroke-linecap="round" stroke-linejoin="round"/>
<path d="M398.174 156.533C398.508 156.533 398.779 156.262 398.779 155.928C398.779 155.594 398.508 155.323 398.174 155.323C397.839 155.323 397.568 155.594 397.568 155.928C397.568 156.262 397.839 156.533 398.174 156.533Z" stroke="url(#paint27_linear)" stroke-width="2" stroke-miterlimit="1.5" stroke-linecap="round" stroke-linejoin="round"/>
<path d="M391.647 157.22C391.981 157.22 392.252 156.949 392.252 156.615C392.252 156.281 391.981 156.01 391.647 156.01C391.313 156.01 391.042 156.281 391.042 156.615C391.042 156.949 391.313 157.22 391.647 157.22Z" stroke="url(#paint28_linear)" stroke-width="2" stroke-miterlimit="1.5" stroke-linecap="round" stroke-linejoin="round"/>
<path d="M402.213 286.514C402.213 286.514 386.02 305.132 386.121 328.499C386.121 328.499 389.187 350.163 398.766 343.92" stroke="url(#paint29_linear)" stroke-width="2" stroke-miterlimit="1.5" stroke-linecap="round" stroke-linejoin="round"/>
<path d="M402.168 312.386C402.168 312.386 389.853 344.732 406.035 355.704C406.035 355.704 410.855 359.02 414.452 353.81" stroke="url(#paint30_linear)" stroke-width="2" stroke-miterlimit="1.5" stroke-linecap="round" stroke-linejoin="round"/>
<path d="M409.506 320.629C409.506 320.629 405.348 356.1 421.24 356.862C421.24 356.862 427.202 356.291 424.927 349.106" stroke="url(#paint31_linear)" stroke-width="2" stroke-miterlimit="1.5" stroke-linecap="round" stroke-linejoin="round"/>
<path d="M418.256 324.787C418.256 324.787 416.181 352.593 432.925 350.709C432.925 350.709 438.597 348.144 430.18 338.735L429.608 326.961L432.634 322.231" stroke="url(#paint32_linear)" stroke-width="2" stroke-miterlimit="1.5" stroke-linecap="round" stroke-linejoin="round"/>
<path fill-rule="evenodd" clip-rule="evenodd" d="M274.026 206.498L325.9 183.943L320.028 252.962L272.673 261.529L274.026 206.498Z" stroke="url(#paint33_linear)" stroke-width="2" stroke-miterlimit="1.5" stroke-linecap="round" stroke-linejoin="round"/>
<path d="M325.937 183.942L328.432 185.936L323.442 252.26L320.296 252.451" stroke="url(#paint34_linear)" stroke-width="2" stroke-miterlimit="1.5" stroke-linecap="round" stroke-linejoin="round"/>
<path d="M320.296 253.316L349.154 269.629" stroke="url(#paint35_linear)" stroke-width="2" stroke-miterlimit="1.5" stroke-linecap="round" stroke-linejoin="round"/>
<path d="M354.255 271.391L356.62 270.319L323.272 251.942" stroke="url(#paint36_linear)" stroke-width="2" stroke-miterlimit="1.5" stroke-linecap="round" stroke-linejoin="round"/>
<defs>
<filter id="filter0_ddi" x="0.282227" y="0.777344" width="634.446" height="634.446" filterUnits="userSpaceOnUse" color-interpolation-filters="sRGB">
<feFlood flood-opacity="0" result="BackgroundImageFix"/>
<feColorMatrix in="SourceAlpha" type="matrix" values="0 0 0 0 0 0 0 0 0 0 0 0 0 0 0 0 0 0 127 0"/>
<feOffset dx="-30" dy="-30"/>
<feGaussianBlur stdDeviation="40"/>
<feColorMatrix type="matrix" values="0 0 0 0 1 0 0 0 0 1 0 0 0 0 1 0 0 0 1 0"/>
<feBlend mode="normal" in2="BackgroundImageFix" result="effect1_dropShadow"/>
<feColorMatrix in="SourceAlpha" type="matrix" values="0 0 0 0 0 0 0 0 0 0 0 0 0 0 0 0 0 0 127 0"/>
<feOffset dx="30" dy="30"/>
<feGaussianBlur stdDeviation="40"/>
<feColorMatrix type="matrix" values="0 0 0 0 0.215686 0 0 0 0 0.329412 0 0 0 0 0.666667 0 0 0 0.1 0"/>
<feBlend mode="normal" in2="effect1_dropShadow" result="effect2_dropShadow"/>
<feBlend mode="normal" in="SourceGraphic" in2="effect2_dropShadow" result="shape"/>
<feColorMatrix in="SourceAlpha" type="matrix" values="0 0 0 0 0 0 0 0 0 0 0 0 0 0 0 0 0 0 127 0" result="hardAlpha"/>
<feOffset dx="4" dy="4"/>
<feGaussianBlur stdDeviation="12"/>
<feComposite in2="hardAlpha" operator="arithmetic" k2="-1" k3="1"/>
<feColorMatrix type="matrix" values="0 0 0 0 1 0 0 0 0 1 0 0 0 0 1 0 0 0 0.5 0"/>
<feBlend mode="normal" in2="shape" result="effect3_innerShadow"/>
</filter>
<linearGradient id="paint0_linear" x1="437.696" y1="184.629" x2="437.696" y2="326.346" gradientUnits="userSpaceOnUse">
<stop stop-color="#FAADDF"/>
<stop offset="0.411458" stop-color="#98BBF5"/>
<stop offset="0.791667" stop-color="#91DCF6"/>
<stop offset="1" stop-color="#F7C7CC"/>
</linearGradient>
<linearGradient id="paint1_linear" x1="428.86" y1="233.855" x2="428.86" y2="263.835" gradientUnits="userSpaceOnUse">
<stop stop-color="#FAADDF"/>
<stop offset="0.411458" stop-color="#98BBF5"/>
<stop offset="0.791667" stop-color="#91DCF6"/>
<stop offset="1" stop-color="#F7C7CC"/>
</linearGradient>
<linearGradient id="paint2_linear" x1="396.325" y1="188.521" x2="396.325" y2="285.688" gradientUnits="userSpaceOnUse">
<stop stop-color="#FAADDF"/>
<stop offset="0.411458" stop-color="#98BBF5"/>
<stop offset="0.791667" stop-color="#91DCF6"/>
<stop offset="1" stop-color="#F7C7CC"/>
</linearGradient>
<linearGradient id="paint3_linear" x1="366.709" y1="200.198" x2="366.709" y2="259.278" gradientUnits="userSpaceOnUse">
<stop stop-color="#FAADDF"/>
<stop offset="0.411458" stop-color="#98BBF5"/>
<stop offset="0.791667" stop-color="#91DCF6"/>
<stop offset="1" stop-color="#F7C7CC"/>
</linearGradient>
<linearGradient id="paint4_linear" x1="292.796" y1="215.538" x2="292.796" y2="223.621" gradientUnits="userSpaceOnUse">
<stop stop-color="#FAADDF"/>
<stop offset="0.411458" stop-color="#98BBF5"/>
<stop offset="0.791667" stop-color="#91DCF6"/>
<stop offset="1" stop-color="#F7C7CC"/>
</linearGradient>
<linearGradient id="paint5_linear" x1="381.766" y1="245.073" x2="381.766" y2="274.603" gradientUnits="userSpaceOnUse">
<stop stop-color="#FAADDF"/>
<stop offset="0.411458" stop-color="#98BBF5"/>
<stop offset="0.791667" stop-color="#91DCF6"/>
<stop offset="1" stop-color="#F7C7CC"/>
</linearGradient>
<linearGradient id="paint6_linear" x1="385.332" y1="268.198" x2="385.332" y2="271.74" gradientUnits="userSpaceOnUse">
<stop stop-color="#FAADDF"/>
<stop offset="0.411458" stop-color="#98BBF5"/>
<stop offset="0.791667" stop-color="#91DCF6"/>
<stop offset="1" stop-color="#F7C7CC"/>
</linearGradient>
<linearGradient id="paint7_linear" x1="425.57" y1="281.935" x2="425.57" y2="320.974" gradientUnits="userSpaceOnUse">
<stop stop-color="#FAADDF"/>
<stop offset="0.411458" stop-color="#98BBF5"/>
<stop offset="0.791667" stop-color="#91DCF6"/>
<stop offset="1" stop-color="#F7C7CC"/>
</linearGradient>
<linearGradient id="paint8_linear" x1="308.004" y1="256.75" x2="308.004" y2="341.901" gradientUnits="userSpaceOnUse">
<stop stop-color="#FAADDF"/>
<stop offset="0.411458" stop-color="#98BBF5"/>
<stop offset="0.791667" stop-color="#91DCF6"/>
<stop offset="1" stop-color="#F7C7CC"/>
</linearGradient>
<linearGradient id="paint9_linear" x1="332.313" y1="297.733" x2="332.313" y2="329.782" gradientUnits="userSpaceOnUse">
<stop stop-color="#FAADDF"/>
<stop offset="0.411458" stop-color="#98BBF5"/>
<stop offset="0.791667" stop-color="#91DCF6"/>
<stop offset="1" stop-color="#F7C7CC"/>
</linearGradient>
<linearGradient id="paint10_linear" x1="306.091" y1="329.787" x2="306.091" y2="392.556" gradientUnits="userSpaceOnUse">
<stop stop-color="#FAADDF"/>
<stop offset="0.411458" stop-color="#98BBF5"/>
<stop offset="0.791667" stop-color="#91DCF6"/>
<stop offset="1" stop-color="#F7C7CC"/>
</linearGradient>
<linearGradient id="paint11_linear" x1="340.226" y1="321.544" x2="340.226" y2="329.42" gradientUnits="userSpaceOnUse">
<stop stop-color="#FAADDF"/>
<stop offset="0.411458" stop-color="#98BBF5"/>
<stop offset="0.791667" stop-color="#91DCF6"/>
<stop offset="1" stop-color="#F7C7CC"/>
</linearGradient>
<linearGradient id="paint12_linear" x1="233.462" y1="295.444" x2="233.462" y2="338.631" gradientUnits="userSpaceOnUse">
<stop stop-color="#FAADDF"/>
<stop offset="0.411458" stop-color="#98BBF5"/>
<stop offset="0.791667" stop-color="#91DCF6"/>
<stop offset="1" stop-color="#F7C7CC"/>
</linearGradient>
<linearGradient id="paint13_linear" x1="213.799" y1="306.663" x2="213.799" y2="357.102" gradientUnits="userSpaceOnUse">
<stop stop-color="#FAADDF"/>
<stop offset="0.411458" stop-color="#98BBF5"/>
<stop offset="0.791667" stop-color="#91DCF6"/>
<stop offset="1" stop-color="#F7C7CC"/>
</linearGradient>
<linearGradient id="paint14_linear" x1="321.598" y1="387.942" x2="321.598" y2="410.998" gradientUnits="userSpaceOnUse">
<stop stop-color="#FAADDF"/>
<stop offset="0.411458" stop-color="#98BBF5"/>
<stop offset="0.791667" stop-color="#91DCF6"/>
<stop offset="1" stop-color="#F7C7CC"/>
</linearGradient>
<linearGradient id="paint15_linear" x1="322.819" y1="404.655" x2="322.819" y2="448.537" gradientUnits="userSpaceOnUse">
<stop stop-color="#FAADDF"/>
<stop offset="0.411458" stop-color="#98BBF5"/>
<stop offset="0.791667" stop-color="#91DCF6"/>
<stop offset="1" stop-color="#F7C7CC"/>
</linearGradient>
<linearGradient id="paint16_linear" x1="285.369" y1="370.312" x2="285.369" y2="393.699" gradientUnits="userSpaceOnUse">
<stop stop-color="#FAADDF"/>
<stop offset="0.411458" stop-color="#98BBF5"/>
<stop offset="0.791667" stop-color="#91DCF6"/>
<stop offset="1" stop-color="#F7C7CC"/>
</linearGradient>
<linearGradient id="paint17_linear" x1="313.585" y1="411.066" x2="313.585" y2="517.359" gradientUnits="userSpaceOnUse">
<stop stop-color="#FAADDF"/>
<stop offset="0.411458" stop-color="#98BBF5"/>
<stop offset="0.791667" stop-color="#91DCF6"/>
<stop offset="1" stop-color="#F7C7CC"/>
</linearGradient>
<linearGradient id="paint18_linear" x1="327.041" y1="433.504" x2="327.041" y2="520" gradientUnits="userSpaceOnUse">
<stop stop-color="#FAADDF"/>
<stop offset="0.411458" stop-color="#98BBF5"/>
<stop offset="0.791667" stop-color="#91DCF6"/>
<stop offset="1" stop-color="#F7C7CC"/>
</linearGradient>
<linearGradient id="paint19_linear" x1="173.536" y1="322.002" x2="173.536" y2="379.698" gradientUnits="userSpaceOnUse">
<stop stop-color="#FAADDF"/>
<stop offset="0.411458" stop-color="#98BBF5"/>
<stop offset="0.791667" stop-color="#91DCF6"/>
<stop offset="1" stop-color="#F7C7CC"/>
</linearGradient>
<linearGradient id="paint20_linear" x1="167.571" y1="351.538" x2="167.571" y2="398.896" gradientUnits="userSpaceOnUse">
<stop stop-color="#FAADDF"/>
<stop offset="0.411458" stop-color="#98BBF5"/>
<stop offset="0.791667" stop-color="#91DCF6"/>
<stop offset="1" stop-color="#F7C7CC"/>
</linearGradient>
<linearGradient id="paint21_linear" x1="398.502" y1="170.663" x2="398.502" y2="188.509" gradientUnits="userSpaceOnUse">
<stop stop-color="#FAADDF"/>
<stop offset="0.411458" stop-color="#98BBF5"/>
<stop offset="0.791667" stop-color="#91DCF6"/>
<stop offset="1" stop-color="#F7C7CC"/>
</linearGradient>
<linearGradient id="paint22_linear" x1="407.71" y1="135.633" x2="407.71" y2="184.68" gradientUnits="userSpaceOnUse">
<stop stop-color="#FAADDF"/>
<stop offset="0.411458" stop-color="#98BBF5"/>
<stop offset="0.791667" stop-color="#91DCF6"/>
<stop offset="1" stop-color="#F7C7CC"/>
</linearGradient>
<linearGradient id="paint23_linear" x1="424.256" y1="136.32" x2="424.256" y2="147.746" gradientUnits="userSpaceOnUse">
<stop stop-color="#FAADDF"/>
<stop offset="0.411458" stop-color="#98BBF5"/>
<stop offset="0.791667" stop-color="#91DCF6"/>
<stop offset="1" stop-color="#F7C7CC"/>
</linearGradient>
<linearGradient id="paint24_linear" x1="450.661" y1="99" x2="450.661" y2="145.879" gradientUnits="userSpaceOnUse">
<stop stop-color="#FAADDF"/>
<stop offset="0.411458" stop-color="#98BBF5"/>
<stop offset="0.791667" stop-color="#91DCF6"/>
<stop offset="1" stop-color="#F7C7CC"/>
</linearGradient>
<linearGradient id="paint25_linear" x1="398.128" y1="149.37" x2="398.128" y2="171.478" gradientUnits="userSpaceOnUse">
<stop stop-color="#FAADDF"/>
<stop offset="0.411458" stop-color="#98BBF5"/>
<stop offset="0.791667" stop-color="#91DCF6"/>
<stop offset="1" stop-color="#F7C7CC"/>
</linearGradient>
<linearGradient id="paint26_linear" x1="416.501" y1="149.37" x2="416.501" y2="153.319" gradientUnits="userSpaceOnUse">
<stop stop-color="#FAADDF"/>
<stop offset="0.411458" stop-color="#98BBF5"/>
<stop offset="0.791667" stop-color="#91DCF6"/>
<stop offset="1" stop-color="#F7C7CC"/>
</linearGradient>
<linearGradient id="paint27_linear" x1="398.174" y1="155.323" x2="398.174" y2="156.533" gradientUnits="userSpaceOnUse">
<stop stop-color="#FAADDF"/>
<stop offset="0.411458" stop-color="#98BBF5"/>
<stop offset="0.791667" stop-color="#91DCF6"/>
<stop offset="1" stop-color="#F7C7CC"/>
</linearGradient>
<linearGradient id="paint28_linear" x1="391.647" y1="156.01" x2="391.647" y2="157.22" gradientUnits="userSpaceOnUse">
<stop stop-color="#FAADDF"/>
<stop offset="0.411458" stop-color="#98BBF5"/>
<stop offset="0.791667" stop-color="#91DCF6"/>
<stop offset="1" stop-color="#F7C7CC"/>
</linearGradient>
<linearGradient id="paint29_linear" x1="394.167" y1="286.514" x2="394.167" y2="345.05" gradientUnits="userSpaceOnUse">
<stop stop-color="#FAADDF"/>
<stop offset="0.411458" stop-color="#98BBF5"/>
<stop offset="0.791667" stop-color="#91DCF6"/>
<stop offset="1" stop-color="#F7C7CC"/>
</linearGradient>
<linearGradient id="paint30_linear" x1="406.068" y1="312.386" x2="406.068" y2="356.744" gradientUnits="userSpaceOnUse">
<stop stop-color="#FAADDF"/>
<stop offset="0.411458" stop-color="#98BBF5"/>
<stop offset="0.791667" stop-color="#91DCF6"/>
<stop offset="1" stop-color="#F7C7CC"/>
</linearGradient>
<linearGradient id="paint31_linear" x1="417.23" y1="320.629" x2="417.23" y2="356.862" gradientUnits="userSpaceOnUse">
<stop stop-color="#FAADDF"/>
<stop offset="0.411458" stop-color="#98BBF5"/>
<stop offset="0.791667" stop-color="#91DCF6"/>
<stop offset="1" stop-color="#F7C7CC"/>
</linearGradient>
<linearGradient id="paint32_linear" x1="426.484" y1="322.231" x2="426.484" y2="350.8" gradientUnits="userSpaceOnUse">
<stop stop-color="#FAADDF"/>
<stop offset="0.411458" stop-color="#98BBF5"/>
<stop offset="0.791667" stop-color="#91DCF6"/>
<stop offset="1" stop-color="#F7C7CC"/>
</linearGradient>
<linearGradient id="paint33_linear" x1="299.286" y1="183.943" x2="299.286" y2="261.529" gradientUnits="userSpaceOnUse">
<stop stop-color="#FAADDF"/>
<stop offset="0.411458" stop-color="#98BBF5"/>
<stop offset="0.791667" stop-color="#91DCF6"/>
<stop offset="1" stop-color="#F7C7CC"/>
</linearGradient>
<linearGradient id="paint34_linear" x1="324.364" y1="183.942" x2="324.364" y2="252.451" gradientUnits="userSpaceOnUse">
<stop stop-color="#FAADDF"/>
<stop offset="0.411458" stop-color="#98BBF5"/>
<stop offset="0.791667" stop-color="#91DCF6"/>
<stop offset="1" stop-color="#F7C7CC"/>
</linearGradient>
<linearGradient id="paint35_linear" x1="334.725" y1="253.316" x2="334.725" y2="269.629" gradientUnits="userSpaceOnUse">
<stop stop-color="#FAADDF"/>
<stop offset="0.411458" stop-color="#98BBF5"/>
<stop offset="0.791667" stop-color="#91DCF6"/>
<stop offset="1" stop-color="#F7C7CC"/>
</linearGradient>
<linearGradient id="paint36_linear" x1="339.946" y1="251.942" x2="339.946" y2="271.391" gradientUnits="userSpaceOnUse">
<stop stop-color="#FAADDF"/>
<stop offset="0.411458" stop-color="#98BBF5"/>
<stop offset="0.791667" stop-color="#91DCF6"/>
<stop offset="1" stop-color="#F7C7CC"/>
</linearGradient>
</defs>
</svg>
