<svg width="508" height="980" viewBox="0 0 508 980" fill="none" xmlns="http://www.w3.org/2000/svg">
<path fill-rule="evenodd" clip-rule="evenodd" d="M274.016 56.7095C293.805 55.7126 310.68 70.9696 311.677 90.7583C312.674 110.547 297.417 127.423 277.629 128.42C270.117 128.798 263.025 126.835 257.062 123.171C256.858 123.044 256.657 122.918 256.458 122.791C255.247 122.015 251.552 125.883 250.446 124.971C249.399 124.106 250.936 118.464 249.991 117.488C249.797 117.285 249.605 117.082 249.416 116.877C243.926 110.922 240.406 103.085 239.967 94.371C238.971 74.5823 254.227 57.7065 274.016 56.7095Z" stroke="url(#paint0_linear)" stroke-width="3" stroke-miterlimit="1.5" stroke-linecap="round" stroke-linejoin="round"/>
<path fill-rule="evenodd" clip-rule="evenodd" d="M282.463 206.895L200.745 314.586C200.745 314.586 154.999 363.135 102.5 265.745C102.5 265.745 31.009 271.923 50.2019 316.19C50.2019 316.19 182.547 432.806 232.183 376.701C232.183 376.701 336.664 265.877 345.045 237.574C351.642 215.299 327.185 173.316 282.463 206.895Z" stroke="url(#paint1_linear)" stroke-width="3" stroke-miterlimit="1.5" stroke-linecap="round" stroke-linejoin="round"/>
<path d="M50.4025 289.872L13.4071 261.676C13.4071 261.676 6.81897 254.034 11.903 250.538C16.9886 247.039 12.2208 239.727 18.0185 239.626C23.8178 239.522 24.438 225.444 30.3921 229.909C36.3428 234.371 43.1738 247.519 54.3258 246.74C65.4786 245.964 52.2105 230.588 45.7748 219.248C45.7748 219.248 49.5323 181.398 84.8619 268.498" stroke="url(#paint2_linear)" stroke-width="3" stroke-miterlimit="1.5" stroke-linecap="round" stroke-linejoin="round"/>
<path d="M250.611 67.335C250.611 67.335 261.863 98.3108 288.873 93.6557C288.873 93.6557 312.438 107.223 296.883 121.293" stroke="url(#paint3_linear)" stroke-width="3" stroke-miterlimit="1.5" stroke-linecap="round" stroke-linejoin="round"/>
<path d="M255.23 112.522C261.711 112.195 266.701 106.676 266.374 100.195C266.048 93.7134 260.529 88.7238 254.047 89.0504C247.566 89.3769 242.576 94.8958 242.903 101.377C243.229 107.859 248.748 112.848 255.23 112.522Z" stroke="url(#paint4_linear)" stroke-width="3" stroke-miterlimit="1.5" stroke-linecap="round" stroke-linejoin="round"/>
<path fill-rule="evenodd" clip-rule="evenodd" d="M240.51 96.6388C240.51 96.6388 241.758 103.54 243.039 106.768C244.348 110.063 248.766 115.909 248.766 115.909C248.766 115.909 245.882 116.901 245.79 116.926C239.661 118.599 233.437 115.584 231.811 110.097C230.2 104.661 233.699 98.7944 239.657 96.8065C239.8 96.7582 240.51 96.6388 240.51 96.6388Z" stroke="url(#paint5_linear)" stroke-width="3" stroke-miterlimit="1.5" stroke-linecap="round" stroke-linejoin="round"/>
<path d="M266.202 99.5451L292.672 97.6443" stroke="url(#paint6_linear)" stroke-width="3" stroke-miterlimit="1.5" stroke-linecap="round" stroke-linejoin="round"/>
<path d="M329.392 75.3071C349.138 74.3123 364.339 57.4987 363.344 37.7529C362.349 18.0071 345.536 2.80633 325.79 3.8011C306.044 4.79587 290.844 21.6094 291.838 41.3553C292.833 61.1011 309.647 76.3018 329.392 75.3071Z" stroke="url(#paint7_linear)" stroke-width="3" stroke-miterlimit="1.5" stroke-linecap="round" stroke-linejoin="round"/>
<path fill-rule="evenodd" clip-rule="evenodd" d="M322.337 152.497C321.789 149.991 319.313 148.404 316.807 148.953C308.792 150.707 292.215 154.334 284.199 156.088C281.693 156.636 280.107 159.112 280.655 161.618C281.823 166.954 283.749 175.756 284.916 181.092C285.464 183.596 287.94 185.185 290.446 184.637C298.461 182.883 315.039 179.255 323.054 177.502C325.56 176.953 327.146 174.475 326.598 171.972C325.431 166.635 323.505 157.833 322.337 152.497Z" stroke="url(#paint8_linear)" stroke-width="3" stroke-miterlimit="1.5" stroke-linecap="round" stroke-linejoin="round"/>
<path d="M296.748 305.72C296.748 305.72 309.574 314.186 303.249 343.664C296.921 373.14 281.997 416.051 298.786 427.991C312.848 437.989 418.827 423.357 440.465 370.47C444.667 360.203 443.851 350.787 440.574 337.321C420.426 254.486 364.084 178.368 321.173 175.756" stroke="url(#paint9_linear)" stroke-width="3" stroke-miterlimit="1.5" stroke-linecap="round" stroke-linejoin="round"/>
<path d="M193.548 223.783L204.828 200.656" stroke="url(#paint10_linear)" stroke-width="3" stroke-miterlimit="1.5" stroke-linecap="round" stroke-linejoin="round"/>
<path fill-rule="evenodd" clip-rule="evenodd" d="M435.986 381.704C435.986 381.704 492.153 440.068 442.433 537.54C442.433 537.54 402.869 875.321 356.03 925.14C335.036 947.469 334.334 904.414 323.447 900.723C310.044 896.177 288.415 925.326 281.885 894.892C270.049 839.739 351.208 538.845 330.198 431.307C372.906 428.221 404.103 414.72 435.986 381.704Z" stroke="url(#paint11_linear)" stroke-width="3" stroke-miterlimit="1.5" stroke-linecap="round" stroke-linejoin="round"/>
<path d="M296.427 425.799C296.427 425.799 227.463 579.685 239.592 598.34C251.718 616.999 297.666 754.905 297.666 754.905" stroke="url(#paint12_linear)" stroke-width="3" stroke-miterlimit="1.5" stroke-linecap="round" stroke-linejoin="round"/>
<path d="M197.697 182.5L203.831 201.534" stroke="url(#paint13_linear)" stroke-width="3" stroke-miterlimit="1.5" stroke-linecap="round" stroke-linejoin="round"/>
<path d="M187.36 194.431C187.36 194.431 187.187 206.563 178.261 203.834C178.261 203.834 160.118 194.865 159.31 201.451C159.31 201.451 162.23 232.137 193.081 224.809" stroke="url(#paint14_linear)" stroke-width="3" stroke-miterlimit="1.5" stroke-linecap="round" stroke-linejoin="round"/>
<path d="M187.102 175.764C187.102 175.764 181.897 172.132 175.946 173.532L164.099 184.389" stroke="url(#paint15_linear)" stroke-width="3" stroke-miterlimit="1.5" stroke-linecap="round" stroke-linejoin="round"/>
<path d="M193.442 224.001C193.442 224.001 190.806 236.914 191.633 241.872C191.633 241.872 215.186 273.276 230.062 277.822" stroke="url(#paint16_linear)" stroke-width="3" stroke-miterlimit="1.5" stroke-linecap="round" stroke-linejoin="round"/>
<path d="M204.96 200.071L207.811 195.988C207.811 195.988 237.601 242.702 251.817 232.885" stroke="url(#paint17_linear)" stroke-width="3" stroke-miterlimit="1.5" stroke-linecap="round" stroke-linejoin="round"/>
<path d="M167.609 198.931L211.14 149.299L219.731 157.64L179.108 203.785" stroke="url(#paint18_linear)" stroke-width="3" stroke-miterlimit="1.5" stroke-linecap="round" stroke-linejoin="round"/>
<path d="M160.636 204.328L144.988 220.244L140.634 231.16L151.217 230.715L180.193 202.732" stroke="url(#paint19_linear)" stroke-width="3" stroke-miterlimit="1.5" stroke-linecap="round" stroke-linejoin="round"/>
<path d="M51.4072 176.569C51.4072 176.569 87.7267 158.586 94.2486 194.967C100.773 231.348 118.791 241.58 140.635 231.263" stroke="url(#paint20_linear)" stroke-width="3" stroke-miterlimit="1.5" stroke-linecap="round" stroke-linejoin="round"/>
<path fill-rule="evenodd" clip-rule="evenodd" d="M121.958 172.125L131.302 174.399L149.99 208.428L140.311 208.78L121.958 172.125Z" stroke="url(#paint21_linear)" stroke-width="3" stroke-miterlimit="1.5" stroke-linecap="round" stroke-linejoin="round"/>
<path fill-rule="evenodd" clip-rule="evenodd" d="M17.1689 149.299L30.2153 153.707L51.5496 203.355L40.6178 205.541L17.1689 149.299Z" stroke="url(#paint22_linear)" stroke-width="3" stroke-miterlimit="1.5" stroke-linecap="round" stroke-linejoin="round"/>
<path d="M170.612 194.673C170.612 194.673 154.799 194.204 162.425 185.017C162.425 185.017 183.743 178.365 186.863 176.275" stroke="url(#paint23_linear)" stroke-width="3" stroke-miterlimit="1.5" stroke-linecap="round" stroke-linejoin="round"/>
<path d="M419.293 698.667C419.293 698.667 418.676 698.516 422.875 706.697C440.036 740.155 484.202 830.078 489.291 878.883C491.698 901.97 467.509 885.734 458.152 890.158C450.146 893.94 451.045 917.168 433.142 905.422C420.423 897.076 405.717 880.564 389.639 844.146" stroke="url(#paint24_linear)" stroke-width="3" stroke-miterlimit="1.5" stroke-linecap="round" stroke-linejoin="round"/>
<path fill-rule="evenodd" clip-rule="evenodd" d="M283.812 128.249L291.478 153.179L308.985 151.002L299.644 119.73C299.644 119.73 286.839 128.962 283.812 128.249Z" stroke="url(#paint25_linear)" stroke-width="3" stroke-miterlimit="1.5" stroke-linecap="round" stroke-linejoin="round"/>
<path d="M284.69 903.578C284.69 903.578 200.567 926.795 205.14 967.956H344.957L346.263 931.368" stroke="url(#paint26_linear)" stroke-width="3" stroke-miterlimit="1.5" stroke-linecap="round" stroke-linejoin="round"/>
<path d="M418.462 892.252C401.654 907.545 367.258 943.399 381.772 969.388L502.508 918.533L490.328 886.464" stroke="url(#paint27_linear)" stroke-width="3" stroke-miterlimit="1.5" stroke-linecap="round" stroke-linejoin="round"/>
<path d="M205.139 967.904L204.96 977.678H344.783V967.904" stroke="url(#paint28_linear)" stroke-width="3" stroke-miterlimit="1.5" stroke-linecap="round" stroke-linejoin="round"/>
<path d="M381.493 969.396L384.894 977.9L505.634 927.043L502.079 918.604" stroke="url(#paint29_linear)" stroke-width="3" stroke-miterlimit="1.5" stroke-linecap="round" stroke-linejoin="round"/>
<path d="M265.137 127.051C265.283 126.567 272.116 125.439 273.946 115.58" stroke="url(#paint30_linear)" stroke-width="3" stroke-miterlimit="1.5" stroke-linecap="round" stroke-linejoin="round"/>
<path d="M50.8805 245.844L9.90625 143.074L132.901 167.065L174.723 246.846L79.5637 255.251" stroke="url(#paint31_linear)" stroke-width="3" stroke-miterlimit="1.5" stroke-linecap="round" stroke-linejoin="round"/>
<path d="M9.48995 143.074L4.71826 150.255L39.2559 239.205" stroke="url(#paint32_linear)" stroke-width="3" stroke-miterlimit="1.5" stroke-linecap="round" stroke-linejoin="round"/>
<path d="M290.201 181.981C290.201 181.981 247.083 220.232 250.844 248.093" stroke="url(#paint33_linear)" stroke-width="3" stroke-miterlimit="1.5" stroke-linecap="round" stroke-linejoin="round"/>
<path d="M368.889 424.315L374.07 501.186C374.07 501.186 393.936 456.272 396.96 411.792" stroke="url(#paint34_linear)" stroke-width="3" stroke-miterlimit="1.5" stroke-linecap="round" stroke-linejoin="round"/>
<path d="M373.398 501.019L323.237 900.836" stroke="url(#paint35_linear)" stroke-width="3" stroke-miterlimit="1.5" stroke-linecap="round" stroke-linejoin="round"/>
<path d="M325.312 967.904V977.678" stroke="url(#paint36_linear)" stroke-width="3" stroke-miterlimit="1.5" stroke-linecap="round" stroke-linejoin="round"/>
<path d="M485.092 925.366L488.647 933.806" stroke="url(#paint37_linear)" stroke-width="3" stroke-miterlimit="1.5" stroke-linecap="round" stroke-linejoin="round"/>
<path d="M314.938 967.904V977.678" stroke="url(#paint38_linear)" stroke-width="3" stroke-miterlimit="1.5" stroke-linecap="round" stroke-linejoin="round"/>
<path d="M475.754 929.516L479.309 937.956" stroke="url(#paint39_linear)" stroke-width="3" stroke-miterlimit="1.5" stroke-linecap="round" stroke-linejoin="round"/>
<path d="M244.386 920.515L256.058 942.668C256.058 942.668 265.309 945.407 266.164 937.87L255.403 914.991" stroke="url(#paint40_linear)" stroke-width="3" stroke-miterlimit="1.5" stroke-linecap="round" stroke-linejoin="round"/>
<path d="M397.873 914.054L416.01 928.938C416.01 928.938 424.995 927.939 422.992 921.12L405.378 905.277" stroke="url(#paint41_linear)" stroke-width="3" stroke-miterlimit="1.5" stroke-linecap="round" stroke-linejoin="round"/>
<defs>
<linearGradient id="paint0_linear" x1="274.016" y1="56.7095" x2="277.629" y2="128.42" gradientUnits="userSpaceOnUse">
<stop stop-color="#FAADDF"/>
<stop offset="0.411458" stop-color="#98BBF5"/>
<stop offset="0.708333" stop-color="#91DCF6"/>
<stop offset="1" stop-color="#F7C7CC"/>
</linearGradient>
<linearGradient id="paint1_linear" x1="185.098" y1="233.094" x2="237.254" y2="380.807" gradientUnits="userSpaceOnUse">
<stop stop-color="#FAADDF"/>
<stop offset="0.411458" stop-color="#98BBF5"/>
<stop offset="0.708333" stop-color="#91DCF6"/>
<stop offset="1" stop-color="#F7C7CC"/>
</linearGradient>
<linearGradient id="paint2_linear" x1="31.7909" y1="217.645" x2="56.5299" y2="287.709" gradientUnits="userSpaceOnUse">
<stop stop-color="#FAADDF"/>
<stop offset="0.411458" stop-color="#98BBF5"/>
<stop offset="0.708333" stop-color="#91DCF6"/>
<stop offset="1" stop-color="#F7C7CC"/>
</linearGradient>
<linearGradient id="paint3_linear" x1="275.244" y1="66.094" x2="278.073" y2="122.24" gradientUnits="userSpaceOnUse">
<stop stop-color="#FAADDF"/>
<stop offset="0.411458" stop-color="#98BBF5"/>
<stop offset="0.708333" stop-color="#91DCF6"/>
<stop offset="1" stop-color="#F7C7CC"/>
</linearGradient>
<linearGradient id="paint4_linear" x1="254.047" y1="89.0504" x2="255.23" y2="112.522" gradientUnits="userSpaceOnUse">
<stop stop-color="#FAADDF"/>
<stop offset="0.411458" stop-color="#98BBF5"/>
<stop offset="0.708333" stop-color="#91DCF6"/>
<stop offset="1" stop-color="#F7C7CC"/>
</linearGradient>
<linearGradient id="paint5_linear" x1="235.825" y1="97.9418" x2="241.801" y2="118.108" gradientUnits="userSpaceOnUse">
<stop stop-color="#FAADDF"/>
<stop offset="0.411458" stop-color="#98BBF5"/>
<stop offset="0.708333" stop-color="#91DCF6"/>
<stop offset="1" stop-color="#F7C7CC"/>
</linearGradient>
<linearGradient id="paint6_linear" x1="279.423" y1="98.3118" x2="279.451" y2="98.8776" gradientUnits="userSpaceOnUse">
<stop stop-color="#FAADDF"/>
<stop offset="0.411458" stop-color="#98BBF5"/>
<stop offset="0.708333" stop-color="#91DCF6"/>
<stop offset="1" stop-color="#F7C7CC"/>
</linearGradient>
<linearGradient id="paint7_linear" x1="325.79" y1="3.8011" x2="329.392" y2="75.3071" gradientUnits="userSpaceOnUse">
<stop stop-color="#FAADDF"/>
<stop offset="0.411458" stop-color="#98BBF5"/>
<stop offset="0.708333" stop-color="#91DCF6"/>
<stop offset="1" stop-color="#F7C7CC"/>
</linearGradient>
<linearGradient id="paint8_linear" x1="300.503" y1="152.52" x2="306.75" y2="181.069" gradientUnits="userSpaceOnUse">
<stop stop-color="#FAADDF"/>
<stop offset="0.411458" stop-color="#98BBF5"/>
<stop offset="0.708333" stop-color="#91DCF6"/>
<stop offset="1" stop-color="#F7C7CC"/>
</linearGradient>
<linearGradient id="paint9_linear" x1="367.202" y1="175.756" x2="367.202" y2="430.93" gradientUnits="userSpaceOnUse">
<stop stop-color="#FAADDF"/>
<stop offset="0.411458" stop-color="#98BBF5"/>
<stop offset="0.708333" stop-color="#91DCF6"/>
<stop offset="1" stop-color="#F7C7CC"/>
</linearGradient>
<linearGradient id="paint10_linear" x1="199.188" y1="200.656" x2="199.188" y2="223.783" gradientUnits="userSpaceOnUse">
<stop stop-color="#FAADDF"/>
<stop offset="0.411458" stop-color="#98BBF5"/>
<stop offset="0.708333" stop-color="#91DCF6"/>
<stop offset="1" stop-color="#F7C7CC"/>
</linearGradient>
<linearGradient id="paint11_linear" x1="371.837" y1="381.704" x2="371.837" y2="931.531" gradientUnits="userSpaceOnUse">
<stop stop-color="#FAADDF"/>
<stop offset="0.411458" stop-color="#98BBF5"/>
<stop offset="0.708333" stop-color="#91DCF6"/>
<stop offset="1" stop-color="#F7C7CC"/>
</linearGradient>
<linearGradient id="paint12_linear" x1="267.914" y1="425.799" x2="267.914" y2="754.905" gradientUnits="userSpaceOnUse">
<stop stop-color="#FAADDF"/>
<stop offset="0.411458" stop-color="#98BBF5"/>
<stop offset="0.708333" stop-color="#91DCF6"/>
<stop offset="1" stop-color="#F7C7CC"/>
</linearGradient>
<linearGradient id="paint13_linear" x1="200.764" y1="182.5" x2="200.764" y2="201.534" gradientUnits="userSpaceOnUse">
<stop stop-color="#FAADDF"/>
<stop offset="0.411458" stop-color="#98BBF5"/>
<stop offset="0.708333" stop-color="#91DCF6"/>
<stop offset="1" stop-color="#F7C7CC"/>
</linearGradient>
<linearGradient id="paint14_linear" x1="176.195" y1="194.431" x2="176.195" y2="225.94" gradientUnits="userSpaceOnUse">
<stop stop-color="#FAADDF"/>
<stop offset="0.411458" stop-color="#98BBF5"/>
<stop offset="0.708333" stop-color="#91DCF6"/>
<stop offset="1" stop-color="#F7C7CC"/>
</linearGradient>
<linearGradient id="paint15_linear" x1="178.462" y1="172.2" x2="172.877" y2="187.577" gradientUnits="userSpaceOnUse">
<stop stop-color="#FAADDF"/>
<stop offset="0.411458" stop-color="#98BBF5"/>
<stop offset="0.708333" stop-color="#91DCF6"/>
<stop offset="1" stop-color="#F7C7CC"/>
</linearGradient>
<linearGradient id="paint16_linear" x1="210.767" y1="224.001" x2="210.767" y2="277.822" gradientUnits="userSpaceOnUse">
<stop stop-color="#FAADDF"/>
<stop offset="0.411458" stop-color="#98BBF5"/>
<stop offset="0.708333" stop-color="#91DCF6"/>
<stop offset="1" stop-color="#F7C7CC"/>
</linearGradient>
<linearGradient id="paint17_linear" x1="228.389" y1="195.988" x2="228.389" y2="234.24" gradientUnits="userSpaceOnUse">
<stop stop-color="#FAADDF"/>
<stop offset="0.411458" stop-color="#98BBF5"/>
<stop offset="0.708333" stop-color="#91DCF6"/>
<stop offset="1" stop-color="#F7C7CC"/>
</linearGradient>
<linearGradient id="paint18_linear" x1="193.67" y1="149.299" x2="193.67" y2="203.785" gradientUnits="userSpaceOnUse">
<stop stop-color="#FAADDF"/>
<stop offset="0.411458" stop-color="#98BBF5"/>
<stop offset="0.708333" stop-color="#91DCF6"/>
<stop offset="1" stop-color="#F7C7CC"/>
</linearGradient>
<linearGradient id="paint19_linear" x1="160.413" y1="202.732" x2="160.413" y2="231.16" gradientUnits="userSpaceOnUse">
<stop stop-color="#FAADDF"/>
<stop offset="0.411458" stop-color="#98BBF5"/>
<stop offset="0.708333" stop-color="#91DCF6"/>
<stop offset="1" stop-color="#F7C7CC"/>
</linearGradient>
<linearGradient id="paint20_linear" x1="96.0213" y1="172.125" x2="96.0213" y2="235.063" gradientUnits="userSpaceOnUse">
<stop stop-color="#FAADDF"/>
<stop offset="0.411458" stop-color="#98BBF5"/>
<stop offset="0.708333" stop-color="#91DCF6"/>
<stop offset="1" stop-color="#F7C7CC"/>
</linearGradient>
<linearGradient id="paint21_linear" x1="135.974" y1="172.125" x2="135.974" y2="208.78" gradientUnits="userSpaceOnUse">
<stop stop-color="#FAADDF"/>
<stop offset="0.411458" stop-color="#98BBF5"/>
<stop offset="0.708333" stop-color="#91DCF6"/>
<stop offset="1" stop-color="#F7C7CC"/>
</linearGradient>
<linearGradient id="paint22_linear" x1="34.3592" y1="149.299" x2="34.3592" y2="205.541" gradientUnits="userSpaceOnUse">
<stop stop-color="#FAADDF"/>
<stop offset="0.411458" stop-color="#98BBF5"/>
<stop offset="0.708333" stop-color="#91DCF6"/>
<stop offset="1" stop-color="#F7C7CC"/>
</linearGradient>
<linearGradient id="paint23_linear" x1="173.605" y1="176.275" x2="173.605" y2="194.673" gradientUnits="userSpaceOnUse">
<stop stop-color="#FAADDF"/>
<stop offset="0.411458" stop-color="#98BBF5"/>
<stop offset="0.708333" stop-color="#91DCF6"/>
<stop offset="1" stop-color="#F7C7CC"/>
</linearGradient>
<linearGradient id="paint24_linear" x1="439.548" y1="698.667" x2="439.548" y2="908.708" gradientUnits="userSpaceOnUse">
<stop stop-color="#FAADDF"/>
<stop offset="0.411458" stop-color="#98BBF5"/>
<stop offset="0.708333" stop-color="#91DCF6"/>
<stop offset="1" stop-color="#F7C7CC"/>
</linearGradient>
<linearGradient id="paint25_linear" x1="296.399" y1="119.73" x2="296.399" y2="153.179" gradientUnits="userSpaceOnUse">
<stop stop-color="#FAADDF"/>
<stop offset="0.411458" stop-color="#98BBF5"/>
<stop offset="0.708333" stop-color="#91DCF6"/>
<stop offset="1" stop-color="#F7C7CC"/>
</linearGradient>
<linearGradient id="paint26_linear" x1="275.611" y1="903.578" x2="275.611" y2="967.956" gradientUnits="userSpaceOnUse">
<stop stop-color="#FAADDF"/>
<stop offset="0.411458" stop-color="#98BBF5"/>
<stop offset="0.708333" stop-color="#91DCF6"/>
<stop offset="1" stop-color="#F7C7CC"/>
</linearGradient>
<linearGradient id="paint27_linear" x1="420.56" y1="891.368" x2="442.626" y2="943.756" gradientUnits="userSpaceOnUse">
<stop stop-color="#FAADDF"/>
<stop offset="0.411458" stop-color="#98BBF5"/>
<stop offset="0.708333" stop-color="#91DCF6"/>
<stop offset="1" stop-color="#F7C7CC"/>
</linearGradient>
<linearGradient id="paint28_linear" x1="274.871" y1="967.904" x2="274.871" y2="977.678" gradientUnits="userSpaceOnUse">
<stop stop-color="#FAADDF"/>
<stop offset="0.411458" stop-color="#98BBF5"/>
<stop offset="0.708333" stop-color="#91DCF6"/>
<stop offset="1" stop-color="#F7C7CC"/>
</linearGradient>
<linearGradient id="paint29_linear" x1="441.709" y1="944.032" x2="445.264" y2="952.472" gradientUnits="userSpaceOnUse">
<stop stop-color="#FAADDF"/>
<stop offset="0.411458" stop-color="#98BBF5"/>
<stop offset="0.708333" stop-color="#91DCF6"/>
<stop offset="1" stop-color="#F7C7CC"/>
</linearGradient>
<linearGradient id="paint30_linear" x1="269.541" y1="115.58" x2="269.541" y2="127.051" gradientUnits="userSpaceOnUse">
<stop stop-color="#FAADDF"/>
<stop offset="0.411458" stop-color="#98BBF5"/>
<stop offset="0.708333" stop-color="#91DCF6"/>
<stop offset="1" stop-color="#F7C7CC"/>
</linearGradient>
<linearGradient id="paint31_linear" x1="92.3148" y1="143.074" x2="92.3148" y2="255.251" gradientUnits="userSpaceOnUse">
<stop stop-color="#FAADDF"/>
<stop offset="0.411458" stop-color="#98BBF5"/>
<stop offset="0.708333" stop-color="#91DCF6"/>
<stop offset="1" stop-color="#F7C7CC"/>
</linearGradient>
<linearGradient id="paint32_linear" x1="21.9871" y1="143.074" x2="21.9871" y2="239.205" gradientUnits="userSpaceOnUse">
<stop stop-color="#FAADDF"/>
<stop offset="0.411458" stop-color="#98BBF5"/>
<stop offset="0.708333" stop-color="#91DCF6"/>
<stop offset="1" stop-color="#F7C7CC"/>
</linearGradient>
<linearGradient id="paint33_linear" x1="270.406" y1="181.981" x2="270.406" y2="248.093" gradientUnits="userSpaceOnUse">
<stop stop-color="#FAADDF"/>
<stop offset="0.411458" stop-color="#98BBF5"/>
<stop offset="0.708333" stop-color="#91DCF6"/>
<stop offset="1" stop-color="#F7C7CC"/>
</linearGradient>
<linearGradient id="paint34_linear" x1="382.924" y1="411.792" x2="382.924" y2="501.186" gradientUnits="userSpaceOnUse">
<stop stop-color="#FAADDF"/>
<stop offset="0.411458" stop-color="#98BBF5"/>
<stop offset="0.708333" stop-color="#91DCF6"/>
<stop offset="1" stop-color="#F7C7CC"/>
</linearGradient>
<linearGradient id="paint35_linear" x1="348.318" y1="501.019" x2="348.318" y2="900.836" gradientUnits="userSpaceOnUse">
<stop stop-color="#FAADDF"/>
<stop offset="0.411458" stop-color="#98BBF5"/>
<stop offset="0.708333" stop-color="#91DCF6"/>
<stop offset="1" stop-color="#F7C7CC"/>
</linearGradient>
<linearGradient id="paint36_linear" x1="325.812" y1="967.904" x2="325.812" y2="977.678" gradientUnits="userSpaceOnUse">
<stop stop-color="#FAADDF"/>
<stop offset="0.411458" stop-color="#98BBF5"/>
<stop offset="0.708333" stop-color="#91DCF6"/>
<stop offset="1" stop-color="#F7C7CC"/>
</linearGradient>
<linearGradient id="paint37_linear" x1="485.553" y1="925.172" x2="489.107" y2="933.611" gradientUnits="userSpaceOnUse">
<stop stop-color="#FAADDF"/>
<stop offset="0.411458" stop-color="#98BBF5"/>
<stop offset="0.708333" stop-color="#91DCF6"/>
<stop offset="1" stop-color="#F7C7CC"/>
</linearGradient>
<linearGradient id="paint38_linear" x1="315.438" y1="967.904" x2="315.438" y2="977.678" gradientUnits="userSpaceOnUse">
<stop stop-color="#FAADDF"/>
<stop offset="0.411458" stop-color="#98BBF5"/>
<stop offset="0.708333" stop-color="#91DCF6"/>
<stop offset="1" stop-color="#F7C7CC"/>
</linearGradient>
<linearGradient id="paint39_linear" x1="476.215" y1="929.322" x2="479.77" y2="937.762" gradientUnits="userSpaceOnUse">
<stop stop-color="#FAADDF"/>
<stop offset="0.411458" stop-color="#98BBF5"/>
<stop offset="0.708333" stop-color="#91DCF6"/>
<stop offset="1" stop-color="#F7C7CC"/>
</linearGradient>
<linearGradient id="paint40_linear" x1="255.275" y1="914.991" x2="255.275" y2="943.153" gradientUnits="userSpaceOnUse">
<stop stop-color="#FAADDF"/>
<stop offset="0.411458" stop-color="#98BBF5"/>
<stop offset="0.708333" stop-color="#91DCF6"/>
<stop offset="1" stop-color="#F7C7CC"/>
</linearGradient>
<linearGradient id="paint41_linear" x1="405.267" y1="905.324" x2="415.51" y2="929.642" gradientUnits="userSpaceOnUse">
<stop stop-color="#FAADDF"/>
<stop offset="0.411458" stop-color="#98BBF5"/>
<stop offset="0.708333" stop-color="#91DCF6"/>
<stop offset="1" stop-color="#F7C7CC"/>
</linearGradient>
</defs>
</svg>
