<svg width="133" height="141" viewBox="0 0 133 141" fill="none" xmlns="http://www.w3.org/2000/svg">
<path fill-rule="evenodd" clip-rule="evenodd" d="M60.3025 0.992174H41.2522V3.97432H49.261C49.9461 3.97432 50.5003 4.52851 50.5003 5.21328C50.5003 5.88824 49.9461 6.45254 49.261 6.45254H41.2522V10.2605H45.2517C45.9264 10.2605 46.4803 10.8146 46.4803 11.4997C46.4803 12.1744 45.9264 12.7387 45.2517 12.7387H41.2522V17.4934H49.261C49.9461 17.4934 50.5003 18.0476 50.5003 18.7327C50.5003 19.4175 49.9461 19.9713 49.261 19.9713H41.2522V24.4542H45.2517C45.9264 24.4542 46.4803 25.0087 46.4803 25.6935C46.4803 26.3786 45.9264 26.9328 45.2517 26.9328H41.2522V31.6976H49.261C49.9461 31.6976 50.5003 32.2515 50.5003 32.9369C50.5003 33.6115 49.9461 34.166 49.261 34.166H41.2522V38.6587H45.2517C45.9264 38.6587 46.4803 39.2129 46.4803 39.898C46.4803 40.5827 45.9264 41.1369 45.2517 41.1369H41.2522V45.8917H49.261C49.9461 45.8917 50.5003 46.4462 50.5003 47.131C50.5003 47.8157 49.9461 48.3702 49.261 48.3702H41.2522V52.8632H45.2517C45.9264 52.8632 46.4803 53.4171 46.4803 54.1019C46.4803 54.7869 45.9264 55.3411 45.2517 55.3411H41.2522V60.0962H49.261C49.9461 60.0962 50.5003 60.6504 50.5003 61.3355C50.5003 62.0202 49.9461 62.5744 49.261 62.5744H41.2522V67.0674H45.2517C45.9264 67.0674 46.4803 67.6213 46.4803 68.2966C46.4803 68.9813 45.9264 69.5355 45.2517 69.5355H41.2522V74.3007H49.261C49.9461 74.3007 50.5003 74.8546 50.5003 75.5393C50.5003 76.2241 49.9461 76.7786 49.261 76.7786H41.2522V81.2615H45.2517C45.9264 81.2615 46.4803 81.8157 46.4803 82.5007C46.4803 83.1855 45.9264 83.74 45.2517 83.74H41.2522V88.4948H49.261C49.9461 88.4948 50.5003 89.0588 50.5003 89.734C50.5003 90.4188 49.9461 90.9727 49.261 90.9727H41.2522V95.466H45.2517C45.9264 95.466 46.4803 96.0202 46.4803 96.7049C46.4803 97.3897 45.9264 97.9439 45.2517 97.9439H41.2522V102.699H49.261C49.9461 102.699 50.5003 103.253 50.5003 103.938C50.5003 104.623 49.9461 105.177 49.261 105.177H41.2522V109.67H45.2517C45.9264 109.67 46.4803 110.224 46.4803 110.909C46.4803 111.584 45.9264 112.148 45.2517 112.148H41.2522V116.903H49.261C49.9461 116.903 50.5003 117.458 50.5003 118.142C50.5003 118.827 49.9461 119.381 49.261 119.381H41.2522V124.761H60.3025V0.992174ZM16.4706 19.2565V104.018H23.0486V54.0013C23.0486 53.3166 23.6027 52.7621 24.2878 52.7621C24.9729 52.7621 25.5271 53.3166 25.5271 54.0013V104.019H32.1148V35.012H23.794C23.1089 35.012 22.5547 34.4582 22.5547 33.7731C22.5547 33.0981 23.1089 32.5338 23.794 32.5338H32.1148V19.2464L24.2878 5.26385L16.4706 19.2565ZM16.4706 106.497V110.375H32.1151V106.497H24.3182H24.2881H24.2581H16.4706ZM16.4706 112.853V119.401C16.4706 121.205 17.2063 122.846 18.3842 124.025C19.5836 125.224 21.2156 125.96 23.0185 125.96H25.5571C27.3601 125.96 29.0027 125.214 30.1807 124.025C31.3694 122.846 32.1148 121.205 32.1148 119.401V112.853H16.4706ZM106.24 59.6229C105.624 59.0182 104.789 58.6356 103.852 58.6356C102.926 58.6356 102.079 59.0182 101.465 59.6229C100.86 60.2271 100.477 61.0734 100.477 62.0101C100.477 62.937 100.86 63.783 101.465 64.3976C102.079 65.0024 102.926 65.3852 103.852 65.3852C104.758 65.3852 105.575 65.0223 106.178 64.4479L106.24 64.3976C106.844 63.783 107.226 62.937 107.226 62.0101C107.226 61.0734 106.844 60.2268 106.24 59.6229ZM103.852 56.1571C105.464 56.1571 106.924 56.8121 107.983 57.8699C109.04 58.9372 109.695 60.3981 109.695 62.0101C109.695 63.6221 109.04 65.0827 107.983 66.1405L107.902 66.2211C106.844 67.2387 105.423 67.8631 103.852 67.8631C102.24 67.8631 100.77 67.1986 99.711 66.1405C98.6535 65.083 97.9985 63.6221 97.9985 62.0101C97.9985 60.3981 98.6535 58.9375 99.7217 57.8797C100.77 56.8121 102.24 56.1571 103.852 56.1571ZM108.798 44.6932C109.16 45.2774 108.98 46.033 108.396 46.3956C107.821 46.7481 107.055 46.5673 106.702 45.9928C105.705 44.3812 105.726 42.2352 105.746 39.616C105.797 34.277 105.867 26.7111 96.186 19.75C93.7378 17.9872 90.8777 16.6879 87.8447 15.8916C84.7316 15.0756 81.4378 14.7838 78.204 15.0456C77.5189 15.0958 76.9239 14.5922 76.8746 13.9071C76.824 13.2322 77.3276 12.6277 78.0127 12.5774C81.5077 12.3053 85.0844 12.6176 88.4688 13.5041C91.7832 14.3804 94.9167 15.8008 97.6362 17.7549C108.345 25.4516 108.264 33.7728 108.214 39.6359C108.193 41.8622 108.174 43.6857 108.798 44.6932ZM4.20087 134.583C3.51549 134.583 2.96161 134.028 2.96161 133.343C2.96161 132.668 3.51549 132.114 4.20087 132.114H79.5238C80.208 132.114 80.7619 132.668 80.7619 133.343C80.7619 134.028 80.208 134.583 79.5238 134.583H4.20087ZM48.3037 141C47.6294 141 47.0752 140.446 47.0752 139.761C47.0752 139.076 47.6294 138.521 48.3037 138.521H100.437C101.112 138.521 101.675 139.076 101.675 139.761C101.675 140.446 101.112 141 100.437 141H48.3037ZM105.766 141C105.081 141 104.527 140.446 104.527 139.761C104.527 139.076 105.081 138.521 105.766 138.521H112.283C112.968 138.521 113.523 139.076 113.523 139.761C113.523 140.446 112.968 141 112.283 141H105.766ZM1.22854 140.808C0.553884 140.808 0 140.254 0 139.569C0 138.884 0.553884 138.33 1.22854 138.33H25.9295C26.6149 138.33 27.1688 138.884 27.1688 139.569C27.1688 140.254 26.6149 140.808 25.9295 140.808H1.22854ZM5.34879 48.8438C5.34879 48.1587 5.90268 47.6045 6.58806 47.6045C7.26363 47.6045 7.82732 48.1587 7.82732 48.8438V110.889C7.82732 111.574 7.26363 112.128 6.58806 112.128C5.90268 112.128 5.34879 111.574 5.34879 110.889V48.8438ZM69.5193 124.992H95.863C97.696 123.249 97.7272 118.112 97.7576 113.044C97.7879 107.786 97.8274 102.588 100.003 100.119C103.096 96.6136 106.632 96.8557 111.055 97.1577C112.163 97.2282 113.331 97.3091 114.47 97.329C121.592 97.4501 123.103 93.8034 123.163 89.5719C123.194 87.9099 123.013 86.1067 122.851 84.3742C122.387 79.7298 121.985 75.5694 125.43 74.1891L125.491 74.1588C126.045 73.9476 126.327 73.8869 126.8 73.7959L127.304 73.7054C131.304 72.8794 132.543 71.9926 132.331 70.9449C132.079 69.6958 130.457 67.9125 128.553 65.8171C126.8 63.883 124.816 61.7073 123.285 59.2189C121.561 56.4388 121.602 52.5199 121.642 47.7547C121.743 37.4191 121.875 22.7717 103.117 9.28265C98.3608 5.85758 92.8305 3.35944 86.9677 1.81764C81.336 0.336525 75.383 -0.247091 69.519 0.0949862V124.992H69.5193Z" fill="url(#paint0_linear)"/>
<defs>
<linearGradient id="paint0_linear" x1="66.1767" y1="0" x2="66.1767" y2="141" gradientUnits="userSpaceOnUse">
<stop stop-color="#EFC9DC"/>
<stop offset="0.354167" stop-color="#B5D3F5"/>
<stop offset="0.713542" stop-color="#92D8F6"/>
<stop offset="1" stop-color="#92E6F6"/>
</linearGradient>
</defs>
</svg>
