<svg width="128" height="128" viewBox="0 0 128 128" fill="none" xmlns="http://www.w3.org/2000/svg">
<path d="M48 32C74.5097 32 96 24.8366 96 16C96 7.16344 74.5097 0 48 0C21.4903 0 0 7.16344 0 16C0 24.8366 21.4903 32 48 32Z" fill="url(#paint0_linear)"/>
<path d="M46.4 95.7C45.4 93.7 44.6 91.7 44 89.6H40.6C35.9 89.6 32.1 85.5 32.1 80.5V75.4C32.1 72.2 33.7 69.3 36.1 67.7C20.6 66.5 6.6 62.6 0 56.5C0 65.6 0 79.5 0 79.8C0 88.4 20.6 95.5 46.4 95.7Z" fill="url(#paint1_linear)"/>
<path d="M48 128C57.2 128 65.8 127.1 73.2 125.6C71.5 124 70.4 121.9 70.4 119.4V116C68 115.3 65.7 114.3 63.4 113.1L61 115.5C59.5 117 57.4 117.9 55.1 117.9C52.7 117.9 50.3 116.9 48.5 115.1L44.9 111.5C43.2 109.8 42.3 107.7 42.1 105.4C42 103.6 42.5 101.8 43.4 100.4C25.2 99.8 7.6 95.9 0 88.7C0 97.8 0 111.7 0 112C0 120.8 21.5 128 48 128Z" fill="url(#paint2_linear)"/>
<path d="M45 63.5C45.5 62.1 46.2 60.7 46.9 59.4L44.5 57C42.8 55.3 42 53 42.1 50.6C42.2 48.3 43.2 46.2 44.9 44.5L48.5 40.9C50.3 39.1 52.7 38.1 55.1 38.1C57.3 38.1 59.4 39 61 40.5L63.4 42.9C65.6 41.7 68 40.7 70.4 40V36.6C70.4 35.8 70.5 35 70.8 34.2C63.6 35.4 55.8 36 48 36C28.2 36 8.3 32 0 24.2C0 33.3 0 47.2 0 47.5C0 56 19.9 62.9 45 63.5Z" fill="url(#paint3_linear)"/>
<path d="M96 40.8C96 35.9 96 29.3 96 24.2C94.1 26 91.6 27.5 88.7 28.9C91.7 30.3 93.7 33.2 93.7 36.5V40C94.5 40.2 95.2 40.5 96 40.8Z" fill="url(#paint4_linear)"/>
<path d="M82 60C72.1 60 64 68.1 64 78C64 87.9 72.1 96 82 96C91.9 96 100 87.9 100 78C100 68.1 91.9 60 82 60Z" fill="url(#paint5_linear)"/>
<path d="M123.5 70.3H117C116.1 66.1 114.4 62.2 112.2 58.7L116.8 54.1C118.6 52.3 118.4 49.3 116.4 47.3L112.8 43.7C111.7 42.6 110.3 42.1 109 42.1C107.9 42.1 106.8 42.5 106 43.3L101.4 47.9C97.9001 45.7 94.0001 44 89.8001 43.1V36.6C89.8001 34.1 87.5 32.1 84.7 32.1H79.6C76.8 32.1 74.5 34.1 74.5 36.6V43.1C70.3 44 66.4001 45.7 62.9001 47.9L58.3 43.3C57.5 42.5 56.4 42.1 55.3 42.1C54 42.1 52.6 42.6 51.5 43.7L47.9001 47.3C45.9001 49.3 45.7 52.4 47.5 54.1L52.1 58.7C49.9 62.2 48.2 66.1 47.3 70.3H40.8C38.3 70.3 36.3 72.6 36.3 75.4V80.5C36.3 83.3 38.3 85.6 40.8 85.6H47.3C48.2 89.8 49.9 93.7 52.1 97.2L47.5 101.8C45.7 103.6 45.9001 106.6 47.9001 108.6L51.5 112.2C52.6 113.3 54 113.8 55.3 113.8C56.4 113.8 57.5 113.4 58.3 112.6L62.9001 108C66.4001 110.2 70.3 111.9 74.5 112.8V119.3C74.5 121.8 76.8 123.8 79.6 123.8H84.7C87.5 123.8 89.8001 121.8 89.8001 119.3V112.8C94.0001 111.9 97.9001 110.2 101.4 108L106 112.6C106.8 113.4 107.9 113.8 109 113.8C110.3 113.8 111.7 113.3 112.8 112.2L116.4 108.6C118.4 106.6 118.6 103.5 116.8 101.8L112.2 97.2C114.4 93.7 116.1 89.8 117 85.6H123.5C126 85.6 128 83.3 128 80.5V75.4C128 72.6 126 70.3 123.5 70.3ZM82 100C69.8 100 60 90.2 60 78C60 65.8 69.8 56 82 56C94.2001 56 104 65.8 104 78C104 90.2 94.2001 100 82 100Z" fill="url(#paint6_linear)"/>
<defs>
<linearGradient id="paint0_linear" x1="48" y1="0" x2="48" y2="32" gradientUnits="userSpaceOnUse">
<stop stop-color="#F0C8DB"/>
<stop offset="0.34375" stop-color="#C0D3F3"/>
<stop offset="0.666667" stop-color="#93D6F6"/>
<stop offset="1" stop-color="#A8EAF9"/>
</linearGradient>
<linearGradient id="paint1_linear" x1="23.2" y1="56.5" x2="23.2" y2="95.7" gradientUnits="userSpaceOnUse">
<stop stop-color="#F0C8DB"/>
<stop offset="0.34375" stop-color="#C0D3F3"/>
<stop offset="0.666667" stop-color="#93D6F6"/>
<stop offset="1" stop-color="#A8EAF9"/>
</linearGradient>
<linearGradient id="paint2_linear" x1="36.6" y1="88.7" x2="36.6" y2="128" gradientUnits="userSpaceOnUse">
<stop stop-color="#F0C8DB"/>
<stop offset="0.34375" stop-color="#C0D3F3"/>
<stop offset="0.666667" stop-color="#93D6F6"/>
<stop offset="1" stop-color="#A8EAF9"/>
</linearGradient>
<linearGradient id="paint3_linear" x1="35.4" y1="24.2" x2="35.4" y2="63.5" gradientUnits="userSpaceOnUse">
<stop stop-color="#F0C8DB"/>
<stop offset="0.34375" stop-color="#C0D3F3"/>
<stop offset="0.666667" stop-color="#93D6F6"/>
<stop offset="1" stop-color="#A8EAF9"/>
</linearGradient>
<linearGradient id="paint4_linear" x1="92.35" y1="24.2" x2="92.35" y2="40.8" gradientUnits="userSpaceOnUse">
<stop stop-color="#F0C8DB"/>
<stop offset="0.34375" stop-color="#C0D3F3"/>
<stop offset="0.666667" stop-color="#93D6F6"/>
<stop offset="1" stop-color="#A8EAF9"/>
</linearGradient>
<linearGradient id="paint5_linear" x1="82" y1="60" x2="82" y2="96" gradientUnits="userSpaceOnUse">
<stop stop-color="#F0C8DB"/>
<stop offset="0.34375" stop-color="#C0D3F3"/>
<stop offset="0.666667" stop-color="#93D6F6"/>
<stop offset="1" stop-color="#A8EAF9"/>
</linearGradient>
<linearGradient id="paint6_linear" x1="82.15" y1="32.1" x2="82.15" y2="123.8" gradientUnits="userSpaceOnUse">
<stop stop-color="#F0C8DB"/>
<stop offset="0.34375" stop-color="#C0D3F3"/>
<stop offset="0.666667" stop-color="#93D6F6"/>
<stop offset="1" stop-color="#A8EAF9"/>
</linearGradient>
</defs>
</svg>
