<svg width="126" height="121" viewBox="0 0 126 121" fill="none" xmlns="http://www.w3.org/2000/svg">
<path d="M62.8227 18.673C67.118 18.673 70.6 14.4929 70.6 9.33648C70.6 4.18009 67.118 0 62.8227 0C58.5275 0 55.0455 4.18009 55.0455 9.33648C55.0455 14.4929 58.5275 18.673 62.8227 18.673Z" fill="url(#paint0_linear)"/>
<path d="M63.3456 100.271C40.5446 100.271 28.6157 93.4609 28.6157 86.7325C28.6157 81.9257 32.0161 75.7911 48.2227 73.8634C49.459 73.698 50.5772 74.5973 50.7237 75.8337C50.8718 77.0669 49.9898 78.1867 48.755 78.3332C42.915 79.0277 33.1186 81.0437 33.1186 86.7325C33.1186 90.4164 44.8947 95.7666 63.3456 95.7666C81.7965 95.7666 93.5726 90.4164 93.5726 86.7325C93.5726 82.8959 86.9672 79.601 76.7408 78.3316C75.506 78.1788 74.6288 77.0543 74.7831 75.8211C74.9359 74.5863 76.062 73.7059 77.2952 73.865C90.5014 75.4998 98.0755 80.1916 98.0755 86.7325C98.0755 93.4609 86.145 100.271 63.3456 100.271Z" fill="url(#paint1_linear)"/>
<path d="M63.5409 109.984C40.1383 109.984 14.9496 102.906 14.9496 87.3672C14.9496 76.1518 31.7216 69.1384 48.3455 67.1633C49.5756 67.0027 50.7001 67.8989 50.8466 69.1336C50.9931 70.3684 50.1111 71.4882 48.8763 71.6347C29.5607 73.931 19.4541 81.2878 19.4541 87.3672C19.4541 96.3682 34.5975 105.481 63.5425 105.481C85.8962 105.481 109.017 98.7055 109.017 87.3672C109.017 80.842 98.1811 72.8963 77.4732 70.3291C76.24 70.1763 75.3627 69.0517 75.5171 67.817C75.6699 66.5838 76.796 65.7018 78.0276 65.8608C99.2568 68.4926 113.521 77.1345 113.521 87.3672C113.518 102.216 88.3768 109.984 63.5409 109.984Z" fill="url(#paint2_linear)"/>
<path d="M63.4292 120.131C43.8805 120.131 27.5291 116.813 16.142 110.534C5.73293 104.794 0 96.932 0 88.3941C0 74.5815 19.7471 62.955 49.1394 59.4617C50.3773 59.3199 51.494 60.1972 51.6405 61.432C51.7869 62.6668 50.9049 63.7866 49.6717 63.933C20.018 67.4563 4.50287 78.9064 4.50287 88.3941C4.50287 101.509 22.9427 115.627 63.4292 115.627C103.325 115.627 121.497 101.509 121.497 88.3941C121.497 79.0166 106.289 67.6405 77.2244 64.0401C75.9912 63.8858 75.114 62.7613 75.2683 61.528C75.4211 60.2948 76.5472 59.4191 77.7788 59.5703C106.621 63.1424 126 74.728 126 88.3925C125.998 104.191 106.653 120.131 63.4292 120.131Z" fill="url(#paint3_linear)"/>
<path d="M63.1393 92.6703C60.843 92.6703 40.7068 92.4639 40.7068 85.3529C40.7068 81.4989 46.4366 80.0578 48.3187 79.5838C49.5267 79.2829 50.7473 80.0137 51.0513 81.2202C51.3553 82.425 50.6229 83.6488 49.4165 83.9512C47.3769 84.463 46.2067 84.9985 45.6066 85.3655C47.4241 86.5042 53.4516 88.1658 63.1377 88.1658C72.8254 88.1658 78.8529 86.5011 80.6688 85.3639C79.9932 84.9481 78.5993 84.3307 76.0778 83.7637C74.8634 83.4913 74.0996 82.2864 74.3721 81.0737C74.6477 79.8594 75.8494 79.0987 77.0621 79.3696C82.7872 80.6547 85.567 82.6124 85.567 85.3513C85.5702 92.4639 65.4356 92.6703 63.1393 92.6703Z" fill="url(#paint4_linear)"/>
<path d="M52.4643 35.8262C53.4329 37.7067 52.7666 74.9298 54.2078 82.3133C55.3197 88.0147 60.7313 87.1359 61.0479 81.6093C61.2794 77.5899 61.1503 63.4608 61.7283 57.7089C61.8842 56.1497 62.5032 55.2851 63.1584 55.4079C63.6844 55.5071 64.1853 56.2552 64.2656 57.5042C64.642 63.3553 63.9695 76.4103 64.2703 81.6109C64.5885 87.139 70.2741 88.0163 71.3876 82.3149C72.8272 74.9314 73.1327 39.5132 74.125 35.8277C75.4007 31.0886 76.9016 46.062 76.2764 52.584C75.8307 57.2506 82.2314 58.8618 82.5495 52.4139C82.9149 44.9894 82.0361 35.1521 80.2721 29.9216C77.8955 22.8704 67.8156 21.7742 62.7961 21.7774C58.005 21.7821 47.9614 23.5618 45.947 31.5107C44.5862 36.8814 44.0413 44.9847 45.1532 52.5855C46.0872 58.9642 51.0342 57.2506 50.5585 52.9305C49.6828 44.9989 50.2388 31.5092 52.4643 35.8262Z" fill="url(#paint5_linear)"/>
<defs>
<linearGradient id="paint0_linear" x1="62.8227" y1="0" x2="62.8227" y2="18.673" gradientUnits="userSpaceOnUse">
<stop stop-color="#EDCADE"/>
<stop offset="0.40625" stop-color="#C1D3F3"/>
<stop offset="0.755208" stop-color="#92D9F6"/>
<stop offset="1" stop-color="#A3E9F8"/>
</linearGradient>
<linearGradient id="paint1_linear" x1="63.3456" y1="73.8438" x2="63.3456" y2="100.271" gradientUnits="userSpaceOnUse">
<stop stop-color="#EDCADE"/>
<stop offset="0.40625" stop-color="#C1D3F3"/>
<stop offset="0.755208" stop-color="#92D9F6"/>
<stop offset="1" stop-color="#A3E9F8"/>
</linearGradient>
<linearGradient id="paint2_linear" x1="64.2355" y1="65.8423" x2="64.2355" y2="109.984" gradientUnits="userSpaceOnUse">
<stop stop-color="#EDCADE"/>
<stop offset="0.40625" stop-color="#C1D3F3"/>
<stop offset="0.755208" stop-color="#92D9F6"/>
<stop offset="1" stop-color="#A3E9F8"/>
</linearGradient>
<linearGradient id="paint3_linear" x1="63" y1="59.4467" x2="63" y2="120.131" gradientUnits="userSpaceOnUse">
<stop stop-color="#EDCADE"/>
<stop offset="0.40625" stop-color="#C1D3F3"/>
<stop offset="0.755208" stop-color="#92D9F6"/>
<stop offset="1" stop-color="#A3E9F8"/>
</linearGradient>
<linearGradient id="paint4_linear" x1="63.1369" y1="79.3148" x2="63.1369" y2="92.6703" gradientUnits="userSpaceOnUse">
<stop stop-color="#EDCADE"/>
<stop offset="0.40625" stop-color="#C1D3F3"/>
<stop offset="0.755208" stop-color="#92D9F6"/>
<stop offset="1" stop-color="#A3E9F8"/>
</linearGradient>
<linearGradient id="paint5_linear" x1="63.594" y1="21.7773" x2="63.594" y2="86.1948" gradientUnits="userSpaceOnUse">
<stop stop-color="#EDCADE"/>
<stop offset="0.40625" stop-color="#C1D3F3"/>
<stop offset="0.755208" stop-color="#92D9F6"/>
<stop offset="1" stop-color="#A3E9F8"/>
</linearGradient>
</defs>
</svg>
