<svg width="104" height="114" viewBox="0 0 104 114" fill="none" xmlns="http://www.w3.org/2000/svg">
<path d="M103.644 70.7556L94.3994 53.6889C94.9328 51.0222 95.1105 48.1778 95.1105 45.3333C95.1105 43.3778 94.9328 41.2444 94.755 39.2889C93.5105 40.8889 91.7328 42.3111 89.4217 43.5556C89.0661 43.7333 88.7106 43.9111 88.1772 44.0889C86.9328 44.8 85.3328 45.3333 83.555 45.8667L82.4883 46.2222C81.5994 46.4 80.7105 46.7556 79.8217 46.9333L79.1105 47.1111C78.9328 47.1111 78.5772 47.2889 78.3994 47.2889C77.8661 47.4667 77.5105 47.4667 76.9772 47.6444L74.1328 48.1778C73.955 48.1778 73.7772 48.1778 73.5994 48.1778C73.0661 48.3556 72.355 48.3556 71.6439 48.5333L70.3994 48.7111H70.0439C69.8661 48.7111 69.6883 48.7111 69.5106 48.7111H69.155H68.6217C68.2661 48.7111 67.7328 48.8889 67.1994 48.8889C65.4217 49.0667 63.6439 49.2444 61.8661 49.4222C60.6217 49.6 59.3772 49.6 57.955 49.7778H57.5994H57.4217C56.7105 49.7778 55.9994 49.7778 55.2883 49.9556C53.8661 49.9556 52.4439 50.1333 50.8439 50.1333C50.1328 50.1333 49.4217 50.1333 48.5328 50.1333C45.6883 50.1333 42.8439 50.1333 39.6439 49.9556H37.6883L32.355 49.4222L27.7328 48.8889C26.1328 48.7111 24.8883 48.3556 23.4661 48.1778L22.755 48C22.2217 47.8222 21.6883 47.8222 21.155 47.6444L17.955 46.9333C16.355 46.5778 15.1105 46.0444 13.8661 45.6889C13.155 45.5111 12.2661 45.1556 11.3772 44.8H11.1994L10.3105 44.4444C9.77721 44.2667 9.42166 44.0889 9.0661 43.9111C8.71055 43.7333 8.35499 43.5556 7.99944 43.3778L7.64388 43.2L7.4661 43.0222C7.11055 42.8444 6.93277 42.6667 6.75499 42.6667C6.22166 42.3111 5.68832 41.9556 5.15499 41.6C4.62166 41.2444 4.08833 40.7111 3.55499 40.1778C3.37721 40 3.02166 39.6444 2.84388 39.2889C2.84388 39.1111 2.6661 39.1111 2.6661 38.9333C2.31055 40.8889 2.31055 43.0222 2.31055 45.1556C2.31055 54.4 4.97721 63.1111 10.1328 70.9333C10.3105 71.1111 14.5772 76.8 16.8883 78.9333C19.3772 81.2444 21.8661 83.2 24.7105 84.8V112.356C24.7105 113.067 25.2439 113.778 26.1328 113.778H69.6883C70.3994 113.778 71.1105 113.244 71.1105 112.356V99.9111H89.2439C89.955 99.9111 90.6661 99.3778 90.6661 98.4889V77.1556L103.288 72.3556C103.644 72.1778 103.999 72 103.999 71.6444C103.822 71.4667 103.822 70.9333 103.644 70.7556Z" fill="url(#paint0_linear)"/>
<path d="M41.7778 47.4667C44.2667 47.4667 46.5778 47.6444 48.7112 47.6444C49.4223 47.6444 50.1334 47.6444 51.0223 47.6444C52.4445 47.6444 54.0445 47.6444 55.2889 47.4667C55.4667 47.4667 55.6445 47.4667 55.8223 47.4667C54.9334 44.4444 52.0889 42.1333 48.7112 42.1333C45.5112 42.3111 42.6667 44.4444 41.7778 47.4667Z" fill="url(#paint1_linear)"/>
<path d="M23.289 24.8889C23.1112 24.1778 22.7556 23.6444 22.5778 23.1111C14.7556 24.7111 3.7334 28.0889 3.7334 34.1333C3.7334 34.4889 3.7334 34.6667 3.7334 35.0222C3.91118 35.5556 4.08895 36.0889 4.08895 36.2667C4.26673 36.6222 4.44451 36.8 4.44451 36.9778C4.62229 37.1556 4.80006 37.5111 4.97784 37.6889C5.15562 37.8667 5.3334 38.2222 5.51118 38.2222C5.86673 38.5778 6.40006 38.9333 6.75562 39.2889C7.28895 39.6444 7.64451 40 8.17784 40.1778C8.35562 40.3556 8.71118 40.3556 8.88895 40.5333L9.24451 40.8889C9.60006 41.0667 9.95562 41.2444 10.1334 41.4222C10.489 41.6 10.8445 41.7778 11.2001 41.9556C11.3778 42.1333 11.7334 42.1333 11.9112 42.3111L12.2667 42.4889C12.9778 42.8444 13.689 43.0222 14.5778 43.3778C15.8223 43.7333 17.0667 44.0889 18.489 44.6222L21.5112 45.3333C22.2223 45.5111 22.9334 45.6889 23.6445 45.8667H24.0001C24.1778 45.8667 24.1778 45.8667 24.3556 45.8667C24.3556 45.6889 24.3556 45.3333 24.3556 45.1556V31.8222C24.3556 29.3333 24.0001 27.0222 23.289 24.8889Z" fill="url(#paint2_linear)"/>
<path d="M55.467 27.0222L46.9337 35.3778C46.2226 36.0889 45.1559 36.6222 44.0892 36.6222C43.0226 36.6222 41.9559 36.2667 41.2448 35.3778L32.8892 27.0222C31.467 25.4222 31.2892 23.1111 32.7115 21.5111C32.0003 21.6889 31.2892 21.6889 30.5781 21.6889C30.5781 21.8667 30.7559 22.0444 30.7559 22.2222C31.8226 25.2444 32.3559 28.2667 32.3559 31.4667V44.8C32.3559 45.5111 32.1781 46.0445 32.0003 46.5778L32.7115 46.7556L37.867 47.2889C38.2226 47.2889 38.5781 47.2889 38.9337 47.2889C40.0003 42.8444 43.9115 39.4667 48.7115 39.4667C53.5115 39.4667 57.4226 42.8444 58.4892 47.2889C59.5559 47.1111 60.6226 47.1111 61.6892 47.1111C62.9337 46.9333 64.3559 46.9333 65.6003 46.7556C65.2448 46.2222 65.067 45.6889 65.067 44.9778V31.6444C65.067 28.4444 65.6003 25.4222 66.667 22.4C66.667 22.2222 66.8448 22.0444 66.8448 21.8667C63.1115 21.3333 59.0226 21.1556 54.9337 20.9778L55.467 21.3333C57.067 22.9333 57.067 25.4222 55.467 27.0222Z" fill="url(#paint3_linear)"/>
<path d="M74.1336 24.8889C73.4224 27.0222 73.0669 29.3333 73.0669 31.6444V44.9778C73.0669 45.1556 73.0669 45.5111 73.0669 45.6889H73.2447L76.2669 45.1556C76.8002 44.9778 77.3336 44.9778 77.6891 44.8C78.0447 44.8 78.2224 44.6222 78.578 44.6222L79.1113 44.4444C80.0002 44.2667 80.8891 43.9111 81.778 43.7333C82.1336 43.7333 82.3113 43.5556 82.6669 43.5556L83.0224 43.3778C84.6224 42.8444 86.0447 42.3111 87.2891 41.6C87.6447 41.4222 88.0002 41.2444 88.178 41.0667C90.6669 39.8222 92.2669 38.4 92.978 36.9778C93.1558 36.8 93.3336 36.4444 93.3336 36.2667C93.5113 36.0889 93.5113 35.7333 93.6891 35.3778C93.8669 35.2 93.8669 34.8444 93.8669 34.4889C93.8669 34.3111 93.8669 34.3111 93.8669 34.1333C93.8669 27.9111 82.6669 24.7111 75.0224 23.1111C74.6669 23.6444 74.4891 24.3556 74.1336 24.8889Z" fill="url(#paint4_linear)"/>
<path d="M34.845 25.0667L43.2006 33.4222C43.3783 33.6 43.7339 33.7778 44.0895 33.7778C44.445 33.7778 44.8006 33.6 44.9783 33.4222L53.3339 25.0667C53.8672 24.5333 53.8672 23.6444 53.3339 23.1111L44.9783 14.7555C44.445 14.2222 43.5561 14.2222 43.0228 14.7555L34.6672 23.1111C34.3117 23.8222 34.3117 24.5333 34.845 25.0667Z" fill="url(#paint5_linear)"/>
<path d="M31.8223 14.4C35.2001 14.4 37.8667 11.7333 37.8667 8.35556C37.8667 4.97778 35.2001 2.31112 31.8223 2.31112C28.6223 2.31112 25.7778 4.97778 25.7778 8.35556C25.7778 11.7333 28.4445 14.4 31.8223 14.4Z" fill="url(#paint6_linear)"/>
<path d="M67.7334 44.9778C67.7334 45.6889 68.2667 46.4 69.1556 46.4C70.0445 46.4 70.5778 45.8667 70.5778 44.9778V31.6444C70.5778 28.9778 70.9334 26.4889 71.8223 24.1778C74.8445 15.1111 82.8445 8.88889 92.0889 8L88.7112 10.6667C88.1778 11.2 88.0001 11.9111 88.3556 12.4444C88.7112 12.8 89.0667 12.9778 89.4223 12.9778C89.7778 12.9778 89.9556 12.8 90.3112 12.6222L97.0667 7.46666C97.2445 7.28889 97.2445 7.28889 97.4223 7.11111C97.4223 6.93333 97.6001 6.75555 97.6001 6.57778C97.6001 6.4 97.6001 6.22222 97.4223 6.04444C97.4223 6.04444 97.4223 6.04444 97.4223 5.86666C97.4223 5.68889 97.2445 5.68889 97.2445 5.51111L90.489 0.355553C89.9556 -0.17778 89.0667 -2.75671e-06 88.7112 0.533331C88.1778 1.06666 88.3556 1.95555 89.0667 2.31111L92.8001 5.15555C82.1334 5.86666 73.0667 12.9778 69.689 23.1111C68.8001 25.7778 68.2667 28.6222 68.2667 31.4667V44.9778H67.7334Z" fill="url(#paint7_linear)"/>
<path d="M8.17778 12.9787C8.53333 12.9787 8.88889 12.8009 9.24444 12.4453C9.77778 11.912 9.6 11.0231 9.06667 10.6676L5.51111 8.00089C14.7556 8.88978 22.7556 15.112 25.7778 24.1787C26.6667 26.4898 27.0222 29.1564 27.0222 31.6453V44.9787C27.0222 45.6898 27.5556 46.4009 28.4444 46.4009C29.3333 46.4009 29.8667 45.8676 29.8667 44.9787V31.6453C29.8667 28.8009 29.3333 25.9564 28.4444 23.2898C25.0667 13.1564 16 6.04533 5.33333 5.33422L9.06667 2.48978C9.6 1.95644 9.77778 1.24533 9.24444 0.711998C8.71111 0.000887077 8 -0.176891 7.28889 0.356443L0.533333 5.33422C0.355555 5.512 0.355556 5.68978 0.355556 5.68978C0.355556 5.68978 0.355556 5.86755 0.177778 5.86755C0.177778 6.04533 0 6.22311 0 6.40089C0 6.57866 2.51664e-07 6.75644 0.177778 6.93422C0.355556 7.28978 0.355555 7.28978 0.533333 7.46755L7.28889 12.6231C7.64445 12.8009 7.82222 12.9787 8.17778 12.9787Z" fill="url(#paint8_linear)"/>
<path d="M61.8668 13.1556C65.4224 13.1556 68.4446 10.1333 68.4446 6.57778C68.4446 3.02222 65.4224 0 61.8668 0C58.3113 0 55.2891 3.02222 55.2891 6.57778C55.2891 10.1333 58.3113 13.1556 61.8668 13.1556Z" fill="url(#paint9_linear)"/>
<defs>
<linearGradient id="paint0_linear" x1="53.155" y1="38.9333" x2="53.155" y2="113.778" gradientUnits="userSpaceOnUse">
<stop stop-color="#95E7F6"/>
<stop offset="0.328125" stop-color="#A6D2F6"/>
<stop offset="0.666667" stop-color="#E8CCE1"/>
<stop offset="0.979167" stop-color="#F9C8C2"/>
</linearGradient>
<linearGradient id="paint1_linear" x1="48.8001" y1="42.1333" x2="48.8001" y2="47.6444" gradientUnits="userSpaceOnUse">
<stop stop-color="#95E7F6"/>
<stop offset="0.328125" stop-color="#A6D2F6"/>
<stop offset="0.666667" stop-color="#E8CCE1"/>
<stop offset="0.979167" stop-color="#F9C8C2"/>
</linearGradient>
<linearGradient id="paint2_linear" x1="14.0445" y1="23.1111" x2="14.0445" y2="45.8667" gradientUnits="userSpaceOnUse">
<stop stop-color="#95E7F6"/>
<stop offset="0.328125" stop-color="#A6D2F6"/>
<stop offset="0.666667" stop-color="#E8CCE1"/>
<stop offset="0.979167" stop-color="#F9C8C2"/>
</linearGradient>
<linearGradient id="paint3_linear" x1="48.7115" y1="20.9778" x2="48.7115" y2="47.2889" gradientUnits="userSpaceOnUse">
<stop stop-color="#95E7F6"/>
<stop offset="0.328125" stop-color="#A6D2F6"/>
<stop offset="0.666667" stop-color="#E8CCE1"/>
<stop offset="0.979167" stop-color="#F9C8C2"/>
</linearGradient>
<linearGradient id="paint4_linear" x1="83.4669" y1="23.1111" x2="83.4669" y2="45.6889" gradientUnits="userSpaceOnUse">
<stop stop-color="#95E7F6"/>
<stop offset="0.328125" stop-color="#A6D2F6"/>
<stop offset="0.666667" stop-color="#E8CCE1"/>
<stop offset="0.979167" stop-color="#F9C8C2"/>
</linearGradient>
<linearGradient id="paint5_linear" x1="44.0767" y1="14.3555" x2="44.0767" y2="33.7778" gradientUnits="userSpaceOnUse">
<stop stop-color="#95E7F6"/>
<stop offset="0.328125" stop-color="#A6D2F6"/>
<stop offset="0.666667" stop-color="#E8CCE1"/>
<stop offset="0.979167" stop-color="#F9C8C2"/>
</linearGradient>
<linearGradient id="paint6_linear" x1="31.8223" y1="2.31112" x2="31.8223" y2="14.4" gradientUnits="userSpaceOnUse">
<stop stop-color="#95E7F6"/>
<stop offset="0.328125" stop-color="#A6D2F6"/>
<stop offset="0.666667" stop-color="#E8CCE1"/>
<stop offset="0.979167" stop-color="#F9C8C2"/>
</linearGradient>
<linearGradient id="paint7_linear" x1="82.6667" y1="0.0335283" x2="82.6667" y2="46.4" gradientUnits="userSpaceOnUse">
<stop stop-color="#95E7F6"/>
<stop offset="0.328125" stop-color="#A6D2F6"/>
<stop offset="0.666667" stop-color="#E8CCE1"/>
<stop offset="0.979167" stop-color="#F9C8C2"/>
</linearGradient>
<linearGradient id="paint8_linear" x1="14.9333" y1="0.046339" x2="14.9333" y2="46.4009" gradientUnits="userSpaceOnUse">
<stop stop-color="#95E7F6"/>
<stop offset="0.328125" stop-color="#A6D2F6"/>
<stop offset="0.666667" stop-color="#E8CCE1"/>
<stop offset="0.979167" stop-color="#F9C8C2"/>
</linearGradient>
<linearGradient id="paint9_linear" x1="61.8668" y1="0" x2="61.8668" y2="13.1556" gradientUnits="userSpaceOnUse">
<stop stop-color="#95E7F6"/>
<stop offset="0.328125" stop-color="#A6D2F6"/>
<stop offset="0.666667" stop-color="#E8CCE1"/>
<stop offset="0.979167" stop-color="#F9C8C2"/>
</linearGradient>
</defs>
</svg>
