<svg width="113" height="118" viewBox="0 0 113 118" fill="none" xmlns="http://www.w3.org/2000/svg">
<path d="M16.0943 96.4648C16.0904 96.4609 16.086 96.4574 16.082 96.4534C14.6645 95.0364 13.3276 93.5408 12.0526 91.9878C11.9921 91.9142 11.9217 91.8499 11.8615 91.776L11.8574 91.7831L11.274 92.8106C11.2699 92.8179 11.2632 92.8229 11.2591 92.8302L0 112.532L17.5554 102.505C17.5566 102.505 17.5574 102.504 17.5587 102.503L19.5648 101.358L20.7612 100.674C20.6839 100.612 20.617 100.538 20.5401 100.475C18.9936 99.2051 17.505 97.8742 16.0943 96.4648Z" fill="url(#paint0_linear)"/>
<path d="M99.1253 98.704C97.9427 99.7676 96.7237 100.79 95.4588 101.757C95.2839 101.891 95.1039 102.017 94.9275 102.149C93.6016 103.139 92.2424 104.088 90.8347 104.967C90.7621 105.013 90.6864 105.053 90.6138 105.098C89.2032 105.971 87.7516 106.783 86.2662 107.539C86.1373 107.605 86.0125 107.677 85.883 107.741C84.4161 108.475 82.9087 109.138 81.376 109.752C81.1448 109.845 80.9165 109.942 80.684 110.032C79.1859 110.611 77.6569 111.126 76.1032 111.586C75.8294 111.668 75.5559 111.748 75.2805 111.825C73.7215 112.263 72.1386 112.643 70.5308 112.957C70.2675 113.009 70.0026 113.054 69.738 113.102C68.0875 113.402 66.4177 113.647 64.7231 113.811C64.5306 113.83 64.3359 113.839 64.1429 113.856C62.3533 114.013 60.5461 114.11 58.715 114.11C57.2379 114.11 55.7677 114.052 54.3057 113.947C53.8149 113.911 53.331 113.84 52.8422 113.793C51.8743 113.699 50.906 113.609 49.9471 113.47C49.3708 113.386 48.803 113.266 48.2303 113.166C47.3695 113.015 46.5078 112.87 45.656 112.683C45.05 112.549 44.4535 112.383 43.8523 112.231C43.0465 112.027 42.2402 111.826 41.4441 111.589C40.83 111.407 40.2261 111.195 39.6181 110.992C38.8504 110.737 38.0835 110.482 37.3266 110.195C36.7156 109.963 36.1145 109.707 35.5111 109.456C34.7738 109.148 34.0386 108.838 33.313 108.501C32.7134 108.222 32.1233 107.924 31.5322 107.625C30.8222 107.266 30.116 106.901 29.4191 106.513C28.8369 106.189 28.2631 105.849 27.6904 105.505C27.3113 105.277 26.9203 105.075 26.5457 104.838L26.0608 105.115L24.6949 105.895C34.2773 113.73 46.2004 118 58.715 118C76.7321 118 92.7092 109.099 102.481 95.4661C101.595 96.3981 100.669 97.2896 99.7244 98.162C99.5264 98.3449 99.3257 98.5237 99.1253 98.704Z" fill="url(#paint1_linear)"/>
<path d="M58.7151 0C29.0429 0 4.90192 24.141 4.90192 53.8132C4.90192 55.4683 4.9741 57.0689 5.12225 58.7088C5.72724 65.5022 7.63857 72.1275 10.7132 78.1873C11.7375 80.2061 12.8909 82.1621 14.1682 84.0408C16.8051 87.8863 19.9171 91.3172 23.3981 94.3578C25.0203 95.7745 26.6975 97.1329 28.4897 98.3619C35.1004 102.849 42.5467 105.76 50.3676 106.974C51.7903 107.195 53.2228 107.37 54.6677 107.477C56.0092 107.576 57.359 107.626 58.7151 107.626C86.7551 107.626 109.796 86.5967 112.308 58.7088C112.456 57.0815 112.528 55.4809 112.528 53.8132C112.528 24.141 88.3873 0 58.7151 0ZM41.2096 69.3736C41.2096 71.1642 39.7584 72.6154 37.9678 72.6154C36.1773 72.6154 34.7261 71.1642 34.7261 69.3736V53.8132C34.7261 52.0226 36.1773 50.5714 37.9678 50.5714C39.7584 50.5714 41.2096 52.0226 41.2096 53.8132V69.3736ZM51.5832 69.3736C51.5832 71.1642 50.132 72.6154 48.3415 72.6154C46.5509 72.6154 45.0997 71.1642 45.0997 69.3736V38.2527C45.0997 36.4622 46.5509 35.011 48.3415 35.011C50.132 35.011 51.5832 36.4622 51.5832 38.2527V69.3736ZM61.9569 69.3736C61.9569 71.1642 60.5057 72.6154 58.7151 72.6154C56.9245 72.6154 55.4733 71.1642 55.4733 69.3736V48.6264C55.4733 46.8358 56.9245 45.3846 58.7151 45.3846C60.5057 45.3846 61.9569 46.8358 61.9569 48.6264V69.3736ZM72.3305 69.3736C72.3305 71.1642 70.8793 72.6154 69.0887 72.6154C67.2982 72.6154 65.847 71.1642 65.847 69.3736V43.4396C65.847 41.649 67.2982 40.1978 69.0887 40.1978C70.8793 40.1978 72.3305 41.649 72.3305 43.4396V69.3736ZM82.7041 69.3736C82.7041 71.1642 81.2529 72.6154 79.4624 72.6154C77.6718 72.6154 76.2206 71.1642 76.2206 69.3736V59C76.2206 57.2094 77.6718 55.7582 79.4624 55.7582C81.2529 55.7582 82.7041 57.2094 82.7041 59V69.3736Z" fill="url(#paint2_linear)"/>
<defs>
<linearGradient id="paint0_linear" x1="10.3806" y1="91.776" x2="10.3806" y2="112.532" gradientUnits="userSpaceOnUse">
<stop stop-color="#F0C8DC"/>
<stop offset="0.348958" stop-color="#D0D2EE"/>
<stop offset="0.708333" stop-color="#A9D2F6"/>
<stop offset="1" stop-color="#9CE9F7"/>
</linearGradient>
<linearGradient id="paint1_linear" x1="63.5881" y1="95.4661" x2="63.5881" y2="118" gradientUnits="userSpaceOnUse">
<stop stop-color="#F0C8DC"/>
<stop offset="0.348958" stop-color="#D0D2EE"/>
<stop offset="0.708333" stop-color="#A9D2F6"/>
<stop offset="1" stop-color="#9CE9F7"/>
</linearGradient>
<linearGradient id="paint2_linear" x1="58.7151" y1="0" x2="58.7151" y2="107.626" gradientUnits="userSpaceOnUse">
<stop stop-color="#F0C8DC"/>
<stop offset="0.348958" stop-color="#D0D2EE"/>
<stop offset="0.708333" stop-color="#A9D2F6"/>
<stop offset="1" stop-color="#9CE9F7"/>
</linearGradient>
</defs>
</svg>
