<svg width="129" height="108" viewBox="0 0 129 108" fill="none" xmlns="http://www.w3.org/2000/svg">
<path d="M9.45503 50.7054C9.68551 50.8087 9.93537 50.8617 10.188 50.8608C10.6036 50.8588 11.005 50.7092 11.3207 50.4388L35.2186 29.9613C35.3524 29.8589 35.5165 29.8041 35.685 29.8058C35.7701 29.8116 35.8531 29.8342 35.9294 29.8723C36.0056 29.9104 36.0735 29.9633 36.1292 30.0279L48.8111 44.8197C48.9605 44.9973 49.1437 45.1435 49.35 45.2498C49.5564 45.3561 49.7818 45.4204 50.0131 45.439C50.2445 45.4576 50.4772 45.4301 50.6979 45.3581C50.9185 45.2861 51.1227 45.1711 51.2986 45.0196L92.2982 9.83902C92.3706 9.78466 92.454 9.74676 92.5425 9.72797L96.2294 13.9701L99.361 0L85.1022 1.3326L88.678 5.3526L88.5669 5.48586L51.0765 37.6459C50.9557 37.7666 50.792 37.8344 50.6212 37.8344C50.4505 37.8344 50.2867 37.7666 50.1659 37.6459L37.484 22.8541C37.3346 22.6765 37.1514 22.5303 36.9451 22.424C36.7387 22.3177 36.5133 22.2533 36.282 22.2348C36.0506 22.2162 35.8179 22.2437 35.5972 22.3157C35.3766 22.3877 35.1724 22.5027 34.9965 22.6542L9.03304 44.8641C8.83914 45.028 8.68312 45.2321 8.57575 45.4622C8.46839 45.6922 8.41223 45.9429 8.41116 46.1967V49.1063C8.40931 49.4458 8.50727 49.7783 8.69285 50.0626C8.87844 50.3469 9.14348 50.5704 9.45503 50.7054Z" fill="url(#paint0_linear)"/>
<path d="M19.5601 48.6621L12.3197 54.8809C12.1878 54.9932 12.0817 55.1327 12.0089 55.2899C11.936 55.4471 11.8981 55.6182 11.8977 55.7915V57.0352C12.9198 56.9996 13.9406 57.1347 14.9183 57.435C17.0947 56.6892 19.4714 56.7842 21.5813 57.7015V49.5061C21.5756 49.2745 21.503 49.0495 21.3723 48.8583C21.2415 48.6671 21.0582 48.5178 20.8444 48.4286C20.6307 48.3393 20.3956 48.3139 20.1677 48.3553C19.9398 48.3967 19.7288 48.5033 19.5601 48.6621Z" fill="url(#paint1_linear)"/>
<path d="M88.6778 18.2566L81.4374 24.4532C81.3054 24.5655 81.1994 24.705 81.1265 24.8622C81.0537 25.0194 81.0158 25.1905 81.0154 25.3638V59.1229C83.7124 58.0379 86.5925 57.48 89.4996 57.4794H90.6545V19.1672C90.654 18.9384 90.5881 18.7146 90.4645 18.522C90.3409 18.3295 90.1648 18.1763 89.957 18.0806C89.7492 17.9849 89.5184 17.9506 89.2917 17.9818C89.0651 18.0129 88.852 18.1083 88.6778 18.2566Z" fill="url(#paint2_linear)"/>
<path d="M71.3541 33.0707L64.1359 39.2895C64.0039 39.4018 63.8979 39.5413 63.825 39.6985C63.7522 39.8557 63.7143 40.0268 63.7139 40.2001V66.0303L73.353 62.188V33.9591C73.3519 33.728 73.2841 33.5022 73.1578 33.3088C73.0314 33.1153 72.8519 32.9625 72.6408 32.8686C72.4296 32.7748 72.1959 32.7439 71.9676 32.7798C71.7394 32.8156 71.5263 32.9166 71.3541 33.0707Z" fill="url(#paint3_linear)"/>
<path d="M54.0745 47.8847L50.6098 50.8609C50.4895 50.9661 50.3495 51.0463 50.1978 51.0966C50.0462 51.147 49.886 51.1666 49.7266 51.1541C49.5673 51.1417 49.4121 51.0976 49.2701 51.0244C49.128 50.9511 49.0021 50.8502 48.8996 50.7276L48.522 50.2834C48.3812 50.0441 48.1617 49.861 47.9009 49.7655C47.6401 49.67 47.3543 49.6679 47.0922 49.7597C46.8301 49.8514 46.6079 50.0313 46.4637 50.2685C46.3194 50.5058 46.2619 50.7858 46.301 51.0607V68.2291C46.301 68.5471 46.4274 68.8522 46.6523 69.0771C46.8772 69.302 47.1823 69.4284 47.5004 69.4284H54.7408C55.0589 69.4284 55.364 69.302 55.5889 69.0771C55.8138 68.8522 55.9402 68.5471 55.9402 68.2291V48.8175C55.929 48.6059 55.8619 48.4009 55.7457 48.2236C55.6296 48.0463 55.4685 47.9029 55.2789 47.8081C55.0893 47.7133 54.8779 47.6704 54.6664 47.6839C54.4548 47.6974 54.2506 47.7667 54.0745 47.8847Z" fill="url(#paint4_linear)"/>
<path d="M34.5519 35.8247L29.5769 40.089C29.445 40.2013 29.3389 40.3409 29.2661 40.4981C29.1932 40.6553 29.1553 40.8264 29.1549 40.9996V59.0786C29.6473 59.397 30.1083 59.7614 30.5319 60.1668L38.794 68.1402V39.2673C38.7933 38.9821 38.6909 38.7065 38.5053 38.4899L36.2843 35.8469C36.1739 35.7286 36.0406 35.6338 35.8925 35.5683C35.7445 35.5029 35.5847 35.468 35.4229 35.466C35.261 35.4639 35.1004 35.4946 34.9507 35.5563C34.801 35.6179 34.6654 35.7092 34.5519 35.8247Z" fill="url(#paint5_linear)"/>
<path d="M122.459 61.1441H109.378V103.121L120.216 107.563C121.123 107.93 122.105 108.069 123.078 107.968C124.051 107.867 124.984 107.528 125.795 106.982C126.606 106.436 127.271 105.699 127.731 104.836C128.191 103.973 128.433 103.011 128.434 102.033V67.0963C128.428 65.5156 127.796 64.0017 126.676 62.8861C125.556 61.7704 124.04 61.144 122.459 61.1441Z" fill="url(#paint6_linear)"/>
<path d="M82.0146 62.6543L81.0151 63.0541L73.3527 66.0969L64.9351 69.495L55.718 73.1596H30.3764C29.0247 73.331 27.7819 73.9895 26.8811 75.0117C25.9802 76.0339 25.4832 77.3496 25.4832 78.7121C25.4832 80.0746 25.9802 81.3904 26.8811 82.4126C27.7819 83.4348 29.0247 84.0933 30.3764 84.2646H54.5408V87.0631H30.3764C28.1498 87.0631 26.0144 86.1786 24.44 84.6041C22.8655 83.0297 21.981 80.8943 21.981 78.6677C21.981 76.4411 22.8655 74.3057 24.44 72.7313C26.0144 71.1569 28.1498 70.2723 30.3764 70.2723H35.84L34.9294 69.495L29.1326 63.9203L28.0221 62.832C27.1746 62.0255 26.0972 61.5025 24.9393 61.3354C23.7813 61.1683 22.6001 61.3653 21.559 61.8992C20.6645 61.1519 19.5598 60.7013 18.3978 60.6098C17.2359 60.5183 16.0742 60.7904 15.0737 61.3884C14.1155 60.8201 13.01 60.5496 11.8977 60.611C11.0401 60.6577 10.2054 60.9051 9.46091 61.3333C8.71638 61.7615 8.0828 62.3585 7.61117 63.0763C6.3995 62.6089 5.06301 62.5775 3.83068 62.9873C2.59836 63.3971 1.54691 64.2228 0.85648 65.3227C0.166055 66.4227 -0.120369 67.7285 0.0462844 69.0164C0.212937 70.3044 0.822293 71.4943 1.76995 72.3823L6.92266 77.3573L17.3169 87.263C18.4274 88.3291 19.5379 89.484 20.6484 90.4834C23.0364 92.5728 25.7628 94.2402 28.7106 95.414C36.684 99.1231 44.724 102.699 52.7418 106.319C54.9229 107.29 57.2838 107.792 59.6713 107.792C62.0589 107.792 64.4198 107.29 66.6009 106.319L88.2334 96.8133C89.2805 96.3534 90.4081 96.1049 91.5516 96.082C92.695 96.0592 93.8317 96.2624 94.8964 96.68L100.249 98.901V61.144H89.4771C86.9138 61.1452 84.3766 61.6587 82.0146 62.6543Z" fill="url(#paint7_linear)"/>
<defs>
<linearGradient id="paint0_linear" x1="53.8861" y1="0" x2="53.8861" y2="50.8609" gradientUnits="userSpaceOnUse">
<stop stop-color="#F3C7D9"/>
<stop offset="0.369792" stop-color="#C9D3F0"/>
<stop offset="0.692708" stop-color="#92DAF6"/>
<stop offset="1" stop-color="#96E9F8"/>
</linearGradient>
<linearGradient id="paint1_linear" x1="16.7395" y1="48.336" x2="16.7395" y2="57.7015" gradientUnits="userSpaceOnUse">
<stop stop-color="#F3C7D9"/>
<stop offset="0.369792" stop-color="#C9D3F0"/>
<stop offset="0.692708" stop-color="#92DAF6"/>
<stop offset="1" stop-color="#96E9F8"/>
</linearGradient>
<linearGradient id="paint2_linear" x1="85.8349" y1="17.9706" x2="85.8349" y2="59.123" gradientUnits="userSpaceOnUse">
<stop stop-color="#F3C7D9"/>
<stop offset="0.369792" stop-color="#C9D3F0"/>
<stop offset="0.692708" stop-color="#92DAF6"/>
<stop offset="1" stop-color="#96E9F8"/>
</linearGradient>
<linearGradient id="paint3_linear" x1="68.5334" y1="32.7653" x2="68.5334" y2="66.0303" gradientUnits="userSpaceOnUse">
<stop stop-color="#F3C7D9"/>
<stop offset="0.369792" stop-color="#C9D3F0"/>
<stop offset="0.692708" stop-color="#92DAF6"/>
<stop offset="1" stop-color="#96E9F8"/>
</linearGradient>
<linearGradient id="paint4_linear" x1="51.1146" y1="47.6815" x2="51.1146" y2="69.4284" gradientUnits="userSpaceOnUse">
<stop stop-color="#F3C7D9"/>
<stop offset="0.369792" stop-color="#C9D3F0"/>
<stop offset="0.692708" stop-color="#92DAF6"/>
<stop offset="1" stop-color="#96E9F8"/>
</linearGradient>
<linearGradient id="paint5_linear" x1="33.9745" y1="35.4659" x2="33.9745" y2="68.1402" gradientUnits="userSpaceOnUse">
<stop stop-color="#F3C7D9"/>
<stop offset="0.369792" stop-color="#C9D3F0"/>
<stop offset="0.692708" stop-color="#92DAF6"/>
<stop offset="1" stop-color="#96E9F8"/>
</linearGradient>
<linearGradient id="paint6_linear" x1="118.906" y1="61.1441" x2="118.906" y2="108" gradientUnits="userSpaceOnUse">
<stop stop-color="#F3C7D9"/>
<stop offset="0.369792" stop-color="#C9D3F0"/>
<stop offset="0.692708" stop-color="#92DAF6"/>
<stop offset="1" stop-color="#96E9F8"/>
</linearGradient>
<linearGradient id="paint7_linear" x1="50.1245" y1="60.5925" x2="50.1245" y2="107.792" gradientUnits="userSpaceOnUse">
<stop stop-color="#F3C7D9"/>
<stop offset="0.369792" stop-color="#C9D3F0"/>
<stop offset="0.692708" stop-color="#92DAF6"/>
<stop offset="1" stop-color="#96E9F8"/>
</linearGradient>
</defs>
</svg>
