<svg width="129" height="129" viewBox="0 0 129 129" fill="none" xmlns="http://www.w3.org/2000/svg">
<path d="M56.9752 29.9605L55.1993 40.8503L64.5002 35.7096L73.8011 40.8503L72.0252 29.9605L79.5502 22.2485L69.1506 20.6596L64.5002 10.7503L59.8497 20.6596L49.4502 22.2485L56.9752 29.9605Z" fill="url(#paint0_linear)"/>
<path d="M19.857 37.9112L17.1996 32.2503L14.5422 37.9112L8.59961 38.8207L12.8996 43.2282L11.8848 49.4503L17.1996 46.5112L22.5144 49.4503L21.4996 43.2282L25.7996 38.8207L19.857 37.9112Z" fill="url(#paint1_linear)"/>
<path d="M114.458 37.9112L111.8 32.2503L109.143 37.9112L103.2 38.8207L107.5 43.2282L106.485 49.4503L111.8 46.5112L117.115 49.4503L116.1 43.2282L120.4 38.8207L114.458 37.9112Z" fill="url(#paint2_linear)"/>
<path d="M40.8498 27.9502L40.8563 27.3891L36.5584 27.2794L36.5498 27.9502C36.5498 29.2811 36.6444 30.6184 36.8315 31.9256L41.0863 31.3171C40.9294 30.212 40.8498 29.0768 40.8498 27.9502Z" fill="url(#paint3_linear)"/>
<path d="M67.3137 4.46369L67.8126 0.193786C66.2775 0.0131858 64.7101 -0.0427138 63.1729 0.0325362L63.3728 4.32824C64.6757 4.26589 66.0108 4.31319 67.3137 4.46369Z" fill="url(#paint4_linear)"/>
<path d="M92.256 24.635C92.0754 23.0977 91.7615 21.5626 91.3251 20.077L87.1992 21.2853C87.5669 22.543 87.8313 23.8395 87.984 25.1381L92.256 24.635Z" fill="url(#paint5_linear)"/>
<path d="M80.4062 45.4534L83.298 48.6354C84.444 47.5948 85.5103 46.4467 86.4692 45.2298L83.0895 42.5724C82.2789 43.6023 81.3759 44.5719 80.4062 45.4534Z" fill="url(#paint6_linear)"/>
<path d="M61.8461 55.7734L62.2503 51.4949C60.9453 51.3702 59.6424 51.138 58.376 50.8004L57.2666 54.9542C58.763 55.3541 60.3024 55.6293 61.8461 55.7734Z" fill="url(#paint7_linear)"/>
<path d="M85.2627 39.285L89.0359 41.3469C89.782 39.9816 90.4162 38.5497 90.9193 37.092L86.8558 35.6859C86.4301 36.92 85.8926 38.1305 85.2627 39.285Z" fill="url(#paint8_linear)"/>
<path d="M87.8262 31.8762L92.0681 32.5814C92.3197 31.0613 92.4487 29.5047 92.4487 27.9503H88.1487C88.1487 29.2661 88.039 30.5883 87.8262 31.8762Z" fill="url(#paint9_linear)"/>
<path d="M58.5599 0.630211C57.042 0.959161 55.5434 1.41711 54.1094 1.99546L55.7111 5.98371C56.9216 5.49781 58.1879 5.11081 59.4715 4.83346L58.5599 0.630211Z" fill="url(#paint10_linear)"/>
<path d="M72.3745 1.12473L71.1641 5.25273C72.4197 5.62038 73.6559 6.09984 74.8363 6.67174L76.7154 2.80388C75.32 2.12663 73.8602 1.56333 72.3745 1.12473Z" fill="url(#paint11_linear)"/>
<path d="M37.0498 22.6612L41.2724 23.4718C41.5197 22.1839 41.8766 20.9111 42.3345 19.6835L38.3054 18.1806C37.7636 19.6319 37.3422 21.139 37.0498 22.6612Z" fill="url(#paint12_linear)"/>
<path d="M48.1767 45.0643C47.2285 44.1591 46.347 43.168 45.5623 42.1188L42.1201 44.6966C43.0468 45.935 44.0852 47.1046 45.2075 48.1753L48.1767 45.0643Z" fill="url(#paint13_linear)"/>
<path d="M52.8852 53.3805L54.6718 49.4718C53.4807 48.9278 52.3283 48.2764 51.2447 47.5432L48.8281 51.0993C50.1117 51.9701 51.4769 52.7376 52.8852 53.3805Z" fill="url(#paint14_linear)"/>
<path d="M46.2002 6.82648L49.0167 10.0773C50.0078 9.21943 51.0764 8.43468 52.1965 7.75313L49.9541 4.08308C48.6318 4.88933 47.3698 5.81383 46.2002 6.82648Z" fill="url(#paint15_linear)"/>
<path d="M83.7686 14.2354C84.5297 15.3018 85.2048 16.437 85.7767 17.6152L89.6445 15.734C88.9673 14.3429 88.1675 12.9992 87.2688 11.7371L83.7686 14.2354Z" fill="url(#paint16_linear)"/>
<path d="M40.2939 13.9688L44.0156 16.1231C44.6735 14.9858 45.4303 13.8979 46.2623 12.8917L42.9513 10.1504C41.9666 11.3394 41.0722 12.6251 40.2939 13.9688Z" fill="url(#paint17_linear)"/>
<path d="M78.2188 8.68623C79.2873 9.44733 80.2978 10.3052 81.2223 11.2318L84.2646 8.19173C83.1702 7.09738 81.9769 6.08689 80.7149 5.18604L78.2188 8.68623Z" fill="url(#paint18_linear)"/>
<path d="M41.9668 35.1528L37.8711 36.4621C38.3419 37.9349 38.9418 39.3797 39.6534 40.76L43.474 38.7863C42.8698 37.6188 42.3646 36.3976 41.9668 35.1528Z" fill="url(#paint19_linear)"/>
<path d="M73.8115 49.6975L75.5036 53.6492C76.9247 53.0429 78.3072 52.3076 79.6122 51.4648L77.2838 47.8485C76.1787 48.5623 75.0112 49.1837 73.8115 49.6975Z" fill="url(#paint20_linear)"/>
<path d="M66.4938 55.8315C68.0396 55.7218 69.5855 55.4832 71.0905 55.1198L70.08 50.9424C68.8093 51.2498 67.5 51.4498 66.1885 51.5444L66.4938 55.8315Z" fill="url(#paint21_linear)"/>
<path d="M72.1157 90.3583C76.5554 87.7396 79.5504 82.9193 79.5504 77.4003C79.5504 69.1013 72.7994 62.3503 64.5004 62.3503C56.2014 62.3503 49.4504 69.1013 49.4504 77.4003C49.4504 82.9193 52.4453 87.7396 56.8851 90.3583C50.3082 90.9496 45.1504 96.4686 45.1504 103.2V129H83.8504V103.2C83.8504 96.4686 78.6925 90.9496 72.1157 90.3583ZM64.5004 118.25L58.0504 103.2L63.4512 92.3965C63.7995 92.4223 64.1456 92.4503 64.5004 92.4503C64.8551 92.4503 65.2013 92.4223 65.5496 92.3965L70.9504 103.2L64.5004 118.25ZM64.5004 88.1503C58.5728 88.1503 53.7504 83.3278 53.7504 77.4003C53.7504 76.8907 53.8321 76.4048 53.9009 75.9146C57.0313 74.1366 60.6454 73.1003 64.5004 73.1003C68.3553 73.1003 71.9695 74.1366 75.0999 75.9146C75.1687 76.4048 75.2504 76.8907 75.2504 77.4003C75.2504 83.3278 70.4279 88.1503 64.5004 88.1503Z" fill="url(#paint22_linear)"/>
<path d="M21.1388 93.0673C25.1894 90.8894 27.95 86.613 27.95 81.7003C27.95 74.5859 22.1644 68.8003 15.05 68.8003C7.93565 68.8003 2.15 74.5859 2.15 81.7003C2.15 86.613 4.9106 90.8894 8.9612 93.0673C3.76465 94.7336 0 99.6012 0 105.35V124.7H30.1V105.35C30.1 99.6012 26.3354 94.7336 21.1388 93.0673ZM15.05 116.1L10.75 103.2L14.2072 94.5573C14.4867 94.5766 14.7662 94.6003 15.05 94.6003C15.3338 94.6003 15.6133 94.5766 15.8928 94.5573L19.35 103.2L15.05 116.1ZM15.05 90.3003C10.3071 90.3003 6.45 86.4432 6.45 81.7003C6.45 80.9499 6.57685 80.2361 6.75745 79.5417C9.21705 78.1829 12.0379 77.4003 15.05 77.4003C18.0622 77.4003 20.883 78.1829 23.3426 79.5417C23.5232 80.2361 23.65 80.9499 23.65 81.7003C23.65 86.4432 19.7929 90.3003 15.05 90.3003Z" fill="url(#paint23_linear)"/>
<path d="M120.039 93.0673C124.09 90.8894 126.85 86.613 126.85 81.7003C126.85 74.5859 121.065 68.8003 113.95 68.8003C106.836 68.8003 101.05 74.5859 101.05 81.7003C101.05 86.613 103.811 90.8894 107.862 93.0673C102.665 94.7336 98.9004 99.6012 98.9004 105.35V124.7H129V105.35C129 99.6012 125.236 94.7336 120.039 93.0673ZM113.95 116.1L109.65 103.2L113.108 94.5573C113.387 94.5766 113.667 94.6003 113.95 94.6003C114.234 94.6003 114.514 94.5766 114.793 94.5573L118.25 103.2L113.95 116.1ZM113.95 90.3003C109.207 90.3003 105.35 86.4432 105.35 81.7003C105.35 80.9499 105.477 80.2361 105.658 79.5417C108.117 78.1829 110.938 77.4003 113.95 77.4003C116.963 77.4003 119.783 78.1829 122.243 79.5417C122.424 80.2361 122.55 80.9499 122.55 81.7003C122.55 86.4432 118.693 90.3003 113.95 90.3003Z" fill="url(#paint24_linear)"/>
<defs>
<linearGradient id="paint0_linear" x1="64.5002" y1="10.7503" x2="64.5002" y2="40.8503" gradientUnits="userSpaceOnUse">
<stop stop-color="#A8EAF9"/>
<stop offset="0.34375" stop-color="#93D6F6"/>
<stop offset="0.671875" stop-color="#CFD3EE"/>
<stop offset="1" stop-color="#EEC9DD"/>
</linearGradient>
<linearGradient id="paint1_linear" x1="17.1996" y1="32.2503" x2="17.1996" y2="49.4503" gradientUnits="userSpaceOnUse">
<stop stop-color="#A8EAF9"/>
<stop offset="0.34375" stop-color="#93D6F6"/>
<stop offset="0.671875" stop-color="#CFD3EE"/>
<stop offset="1" stop-color="#EEC9DD"/>
</linearGradient>
<linearGradient id="paint2_linear" x1="111.8" y1="32.2503" x2="111.8" y2="49.4503" gradientUnits="userSpaceOnUse">
<stop stop-color="#A8EAF9"/>
<stop offset="0.34375" stop-color="#93D6F6"/>
<stop offset="0.671875" stop-color="#CFD3EE"/>
<stop offset="1" stop-color="#EEC9DD"/>
</linearGradient>
<linearGradient id="paint3_linear" x1="38.8181" y1="27.2794" x2="38.8181" y2="31.9256" gradientUnits="userSpaceOnUse">
<stop stop-color="#A8EAF9"/>
<stop offset="0.34375" stop-color="#93D6F6"/>
<stop offset="0.671875" stop-color="#CFD3EE"/>
<stop offset="1" stop-color="#EEC9DD"/>
</linearGradient>
<linearGradient id="paint4_linear" x1="65.4927" y1="0" x2="65.4927" y2="4.46369" gradientUnits="userSpaceOnUse">
<stop stop-color="#A8EAF9"/>
<stop offset="0.34375" stop-color="#93D6F6"/>
<stop offset="0.671875" stop-color="#CFD3EE"/>
<stop offset="1" stop-color="#EEC9DD"/>
</linearGradient>
<linearGradient id="paint5_linear" x1="89.7276" y1="20.077" x2="89.7276" y2="25.1381" gradientUnits="userSpaceOnUse">
<stop stop-color="#A8EAF9"/>
<stop offset="0.34375" stop-color="#93D6F6"/>
<stop offset="0.671875" stop-color="#CFD3EE"/>
<stop offset="1" stop-color="#EEC9DD"/>
</linearGradient>
<linearGradient id="paint6_linear" x1="83.4377" y1="42.5724" x2="83.4377" y2="48.6354" gradientUnits="userSpaceOnUse">
<stop stop-color="#A8EAF9"/>
<stop offset="0.34375" stop-color="#93D6F6"/>
<stop offset="0.671875" stop-color="#CFD3EE"/>
<stop offset="1" stop-color="#EEC9DD"/>
</linearGradient>
<linearGradient id="paint7_linear" x1="59.7585" y1="50.8004" x2="59.7585" y2="55.7734" gradientUnits="userSpaceOnUse">
<stop stop-color="#A8EAF9"/>
<stop offset="0.34375" stop-color="#93D6F6"/>
<stop offset="0.671875" stop-color="#CFD3EE"/>
<stop offset="1" stop-color="#EEC9DD"/>
</linearGradient>
<linearGradient id="paint8_linear" x1="88.091" y1="35.6859" x2="88.091" y2="41.3469" gradientUnits="userSpaceOnUse">
<stop stop-color="#A8EAF9"/>
<stop offset="0.34375" stop-color="#93D6F6"/>
<stop offset="0.671875" stop-color="#CFD3EE"/>
<stop offset="1" stop-color="#EEC9DD"/>
</linearGradient>
<linearGradient id="paint9_linear" x1="90.1374" y1="27.9503" x2="90.1374" y2="32.5814" gradientUnits="userSpaceOnUse">
<stop stop-color="#A8EAF9"/>
<stop offset="0.34375" stop-color="#93D6F6"/>
<stop offset="0.671875" stop-color="#CFD3EE"/>
<stop offset="1" stop-color="#EEC9DD"/>
</linearGradient>
<linearGradient id="paint10_linear" x1="56.7904" y1="0.630211" x2="56.7904" y2="5.98371" gradientUnits="userSpaceOnUse">
<stop stop-color="#A8EAF9"/>
<stop offset="0.34375" stop-color="#93D6F6"/>
<stop offset="0.671875" stop-color="#CFD3EE"/>
<stop offset="1" stop-color="#EEC9DD"/>
</linearGradient>
<linearGradient id="paint11_linear" x1="73.9397" y1="1.12473" x2="73.9397" y2="6.67174" gradientUnits="userSpaceOnUse">
<stop stop-color="#A8EAF9"/>
<stop offset="0.34375" stop-color="#93D6F6"/>
<stop offset="0.671875" stop-color="#CFD3EE"/>
<stop offset="1" stop-color="#EEC9DD"/>
</linearGradient>
<linearGradient id="paint12_linear" x1="39.6922" y1="18.1806" x2="39.6922" y2="23.4718" gradientUnits="userSpaceOnUse">
<stop stop-color="#A8EAF9"/>
<stop offset="0.34375" stop-color="#93D6F6"/>
<stop offset="0.671875" stop-color="#CFD3EE"/>
<stop offset="1" stop-color="#EEC9DD"/>
</linearGradient>
<linearGradient id="paint13_linear" x1="45.1484" y1="42.1188" x2="45.1484" y2="48.1753" gradientUnits="userSpaceOnUse">
<stop stop-color="#A8EAF9"/>
<stop offset="0.34375" stop-color="#93D6F6"/>
<stop offset="0.671875" stop-color="#CFD3EE"/>
<stop offset="1" stop-color="#EEC9DD"/>
</linearGradient>
<linearGradient id="paint14_linear" x1="51.75" y1="47.5432" x2="51.75" y2="53.3805" gradientUnits="userSpaceOnUse">
<stop stop-color="#A8EAF9"/>
<stop offset="0.34375" stop-color="#93D6F6"/>
<stop offset="0.671875" stop-color="#CFD3EE"/>
<stop offset="1" stop-color="#EEC9DD"/>
</linearGradient>
<linearGradient id="paint15_linear" x1="49.1984" y1="4.08308" x2="49.1984" y2="10.0773" gradientUnits="userSpaceOnUse">
<stop stop-color="#A8EAF9"/>
<stop offset="0.34375" stop-color="#93D6F6"/>
<stop offset="0.671875" stop-color="#CFD3EE"/>
<stop offset="1" stop-color="#EEC9DD"/>
</linearGradient>
<linearGradient id="paint16_linear" x1="86.7065" y1="11.7371" x2="86.7065" y2="17.6152" gradientUnits="userSpaceOnUse">
<stop stop-color="#A8EAF9"/>
<stop offset="0.34375" stop-color="#93D6F6"/>
<stop offset="0.671875" stop-color="#CFD3EE"/>
<stop offset="1" stop-color="#EEC9DD"/>
</linearGradient>
<linearGradient id="paint17_linear" x1="43.2781" y1="10.1504" x2="43.2781" y2="16.1231" gradientUnits="userSpaceOnUse">
<stop stop-color="#A8EAF9"/>
<stop offset="0.34375" stop-color="#93D6F6"/>
<stop offset="0.671875" stop-color="#CFD3EE"/>
<stop offset="1" stop-color="#EEC9DD"/>
</linearGradient>
<linearGradient id="paint18_linear" x1="81.2417" y1="5.18604" x2="81.2417" y2="11.2318" gradientUnits="userSpaceOnUse">
<stop stop-color="#A8EAF9"/>
<stop offset="0.34375" stop-color="#93D6F6"/>
<stop offset="0.671875" stop-color="#CFD3EE"/>
<stop offset="1" stop-color="#EEC9DD"/>
</linearGradient>
<linearGradient id="paint19_linear" x1="40.6725" y1="35.1528" x2="40.6725" y2="40.76" gradientUnits="userSpaceOnUse">
<stop stop-color="#A8EAF9"/>
<stop offset="0.34375" stop-color="#93D6F6"/>
<stop offset="0.671875" stop-color="#CFD3EE"/>
<stop offset="1" stop-color="#EEC9DD"/>
</linearGradient>
<linearGradient id="paint20_linear" x1="76.7119" y1="47.8485" x2="76.7119" y2="53.6492" gradientUnits="userSpaceOnUse">
<stop stop-color="#A8EAF9"/>
<stop offset="0.34375" stop-color="#93D6F6"/>
<stop offset="0.671875" stop-color="#CFD3EE"/>
<stop offset="1" stop-color="#EEC9DD"/>
</linearGradient>
<linearGradient id="paint21_linear" x1="68.6395" y1="50.9424" x2="68.6395" y2="55.8315" gradientUnits="userSpaceOnUse">
<stop stop-color="#A8EAF9"/>
<stop offset="0.34375" stop-color="#93D6F6"/>
<stop offset="0.671875" stop-color="#CFD3EE"/>
<stop offset="1" stop-color="#EEC9DD"/>
</linearGradient>
<linearGradient id="paint22_linear" x1="64.5004" y1="62.3503" x2="64.5004" y2="129" gradientUnits="userSpaceOnUse">
<stop stop-color="#A8EAF9"/>
<stop offset="0.34375" stop-color="#93D6F6"/>
<stop offset="0.671875" stop-color="#CFD3EE"/>
<stop offset="1" stop-color="#EEC9DD"/>
</linearGradient>
<linearGradient id="paint23_linear" x1="15.05" y1="68.8003" x2="15.05" y2="124.7" gradientUnits="userSpaceOnUse">
<stop stop-color="#A8EAF9"/>
<stop offset="0.34375" stop-color="#93D6F6"/>
<stop offset="0.671875" stop-color="#CFD3EE"/>
<stop offset="1" stop-color="#EEC9DD"/>
</linearGradient>
<linearGradient id="paint24_linear" x1="113.95" y1="68.8003" x2="113.95" y2="124.7" gradientUnits="userSpaceOnUse">
<stop stop-color="#A8EAF9"/>
<stop offset="0.34375" stop-color="#93D6F6"/>
<stop offset="0.671875" stop-color="#CFD3EE"/>
<stop offset="1" stop-color="#EEC9DD"/>
</linearGradient>
</defs>
</svg>
