<svg width="113" height="141" viewBox="0 0 113 141" fill="none" xmlns="http://www.w3.org/2000/svg">
<path fill-rule="evenodd" clip-rule="evenodd" d="M87.7217 20.857C87.837 20.7582 87.9523 20.6478 88.0503 20.5257C88.9438 19.4447 88.7997 17.829 87.7217 16.9224C86.6437 16.0215 85.0469 16.1668 84.1533 17.2536L66.2942 38.8563L87.7217 20.857ZM59.0249 2.79368C59.0364 2.64257 59.0364 2.47989 59.0249 2.32878C58.8981 0.916497 57.6645 -0.112223 56.2694 0.00982574C54.8801 0.1435 53.8483 1.38139 53.9751 2.79368L56.5 30.7953L59.0249 2.79368ZM29.6422 17.2536C29.55 17.1374 29.4347 17.027 29.3194 16.9224C28.2471 16.0215 26.6445 16.1668 25.7452 17.2536C24.8517 18.3346 24.9958 19.9503 26.0738 20.857L47.4955 38.8563L29.6422 17.2536ZM69.8857 16.9921C69.9837 16.7945 70.0644 16.5679 70.099 16.3412C70.3526 14.9406 69.4303 13.6038 68.0525 13.3539C66.669 13.0982 65.3373 14.0223 65.0836 15.4171L61.7055 34.1255L69.8857 16.9921ZM89.2494 38.6587C89.4569 38.589 89.6702 38.4786 89.8546 38.3508C91.0134 37.5429 91.3016 35.9446 90.5003 34.7764C89.699 33.6082 88.1079 33.3177 86.955 34.1255L71.448 44.9472L89.2494 38.6587ZM44.7227 15.6147C44.6478 15.4055 44.544 15.1846 44.4114 14.9986C43.6101 13.8304 42.019 13.5399 40.8661 14.3477C39.7074 15.1556 39.4191 16.7538 40.2204 17.922L50.9543 33.5617L44.7227 15.6147ZM24.0677 35.3344C23.8717 35.2414 23.6469 35.1658 23.422 35.1251C22.0327 34.8694 20.7069 35.7935 20.4532 37.1941C20.1996 38.589 21.1219 39.92 22.5054 40.1757L41.0621 43.5814L24.0677 35.3344ZM102.093 53.3744L56.4769 48.1902L10.9126 53.3744L0 87.2867H48.9598L55.2145 64.2194L56.4769 59.5292L57.7394 64.2194L63.9941 87.2867H113L102.093 53.3744ZM102.526 92.1745V130.783L56.4769 141L10.4284 130.783V92.1745H52.6492L53.6177 88.5537L56.4769 78.104L59.3362 88.5537L60.3047 92.1745H102.526Z" fill="url(#paint0_linear)"/>
<defs>
<linearGradient id="paint0_linear" x1="57" y1="0" x2="57" y2="200.5" gradientUnits="userSpaceOnUse">
<stop stop-color="#EACADF"/>
<stop offset="0.390625" stop-color="#C1D3F3"/>
<stop offset="0.708333" stop-color="#92D9F6"/>
<stop offset="1" stop-color="#9EE9F7"/>
</linearGradient>
</defs>
</svg>
