<svg width="762" height="762" viewBox="0 0 762 762" fill="none" xmlns="http://www.w3.org/2000/svg">
<g filter="url(#filter0_ddi)">
<circle cx="380.713" cy="381.402" r="270.5" fill="white"/>
<circle cx="380.713" cy="381.402" r="268" stroke="#FAFAFA" stroke-width="5"/>
</g>
<path d="M451.534 360.278L448.136 380.195L436.64 389.885" stroke="url(#paint0_linear)" stroke-width="2" stroke-miterlimit="1.5" stroke-linecap="round" stroke-linejoin="round"/>
<path d="M336.354 332.311L330.364 357.827L335.207 352.178L336.24 359.297C336.24 359.297 396.554 372.274 436.611 350.11" stroke="url(#paint1_linear)" stroke-width="2" stroke-miterlimit="1.5" stroke-linecap="round" stroke-linejoin="round"/>
<path d="M340.639 360.168L330.364 569.389C342.102 585.935 353.648 588.445 364.907 570.062L383.488 365.082L391.246 363.127L399.307 424.474L381.009 569.916C387.776 582.611 398.167 584.053 414.026 568.516L436.47 425.876V351.577" stroke="url(#paint2_linear)" stroke-width="2" stroke-miterlimit="1.5" stroke-linecap="round" stroke-linejoin="round"/>
<path d="M342.512 581.031L342.173 588.246L358.825 589.199L359.213 577.801" stroke="url(#paint3_linear)" stroke-width="2" stroke-miterlimit="1.5" stroke-linecap="round" stroke-linejoin="round"/>
<path d="M381.311 570.032L380.083 587.813L396.735 587.01L397.779 578.484" stroke="url(#paint4_linear)" stroke-width="2" stroke-miterlimit="1.5" stroke-linecap="round" stroke-linejoin="round"/>
<path d="M342.267 587.745L318.556 637.471C318.556 637.471 349.388 664.802 358.345 625.298V589.157" stroke="url(#paint5_linear)" stroke-width="2" stroke-miterlimit="1.5" stroke-linecap="round" stroke-linejoin="round"/>
<path d="M318.08 637.45C318.08 637.45 315.378 650.657 333.292 651.46C333.292 651.46 361.199 657.662 357.869 620.684" stroke="url(#paint6_linear)" stroke-width="2" stroke-miterlimit="1.5" stroke-linecap="round" stroke-linejoin="round"/>
<path fill-rule="evenodd" clip-rule="evenodd" d="M380.274 587.806L377.598 605.214C377.598 605.214 405.037 618.468 416.625 622.045C426.451 625.078 447.274 627.851 447.126 626.676C446.979 625.499 455.799 605.875 429.78 600.216C429.78 600.216 400.897 592.365 397.222 587.434L380.274 587.806Z" stroke="url(#paint7_linear)" stroke-width="2" stroke-miterlimit="1.5" stroke-linecap="round" stroke-linejoin="round"/>
<path d="M377.164 605.146L376.354 608.6C376.354 608.6 424.068 635.158 440.898 632.145C440.898 632.145 442.543 631.304 446.48 626.884" stroke="url(#paint8_linear)" stroke-width="2" stroke-miterlimit="1.5" stroke-linecap="round" stroke-linejoin="round"/>
<path fill-rule="evenodd" clip-rule="evenodd" d="M349.954 172.898C349.954 172.898 260.456 220.347 262.02 244.578C262.02 244.578 263.208 274.108 332.095 326.72L354.427 304.767L310.898 249.127L358.496 211.655C358.496 211.655 390.902 190.538 349.954 172.898Z" stroke="url(#paint9_linear)" stroke-width="2" stroke-miterlimit="1.5" stroke-linecap="round" stroke-linejoin="round"/>
<path d="M332.229 326.732C332.229 326.732 339.175 339.731 349.097 335.961L365.271 343.845C365.271 343.845 372.414 343.6 366.064 338.738C366.064 338.738 375.845 342.906 370.905 335.166C370.905 335.166 383.428 339.036 374.001 329.511C374.001 329.511 387.297 333.896 378.567 324.56L363.484 314.033C363.484 314.033 372.018 308.524 365.072 305.276L352.173 307.98" stroke="url(#paint10_linear)" stroke-width="2" stroke-miterlimit="1.5" stroke-linecap="round" stroke-linejoin="round"/>
<path d="M413.645 162.643C413.645 162.643 441.885 167.563 443.284 179.675L455 359.556H436.583V310.637C436.583 310.637 437.945 274.68 436.583 193.679" stroke="url(#paint11_linear)" stroke-width="2" stroke-miterlimit="1.5" stroke-linecap="round" stroke-linejoin="round"/>
<path fill-rule="evenodd" clip-rule="evenodd" d="M391.841 175.474L390.649 222.667L397.327 229.78L405.357 223.215L399.452 175.073L391.841 175.474Z" stroke="url(#paint12_linear)" stroke-width="2" stroke-miterlimit="1.5" stroke-linecap="round" stroke-linejoin="round"/>
<path d="M356.926 267.351C359.925 267.351 362.357 264.919 362.357 261.92C362.357 258.92 359.925 256.489 356.926 256.489C353.926 256.489 351.495 258.92 351.495 261.92C351.495 264.919 353.926 267.351 356.926 267.351Z" stroke="url(#paint13_linear)" stroke-width="2" stroke-miterlimit="1.5" stroke-linecap="round" stroke-linejoin="round"/>
<path d="M350.252 172.947L366.725 165.777L392.112 175.133H401.609L414.101 162.643" stroke="url(#paint14_linear)" stroke-width="2" stroke-miterlimit="1.5" stroke-linecap="round" stroke-linejoin="round"/>
<path d="M366.411 165.751L378.642 189.255L381.863 177.628L390.32 175.107" stroke="url(#paint15_linear)" stroke-width="2" stroke-miterlimit="1.5" stroke-linecap="round" stroke-linejoin="round"/>
<path d="M401.836 175.133L408.253 173.591L413.082 186.945L414.536 162.643" stroke="url(#paint16_linear)" stroke-width="2" stroke-miterlimit="1.5" stroke-linecap="round" stroke-linejoin="round"/>
<path d="M366.411 165.688L377.231 157.092L394.205 174.536L402.22 155.496L414.312 162.554" stroke="url(#paint17_linear)" stroke-width="2" stroke-miterlimit="1.5" stroke-linecap="round" stroke-linejoin="round"/>
<path d="M399.39 160.953L399.35 143.998" stroke="url(#paint18_linear)" stroke-width="2" stroke-miterlimit="1.5" stroke-linecap="round" stroke-linejoin="round"/>
<path d="M382.032 160.897L381.949 144.62" stroke="url(#paint19_linear)" stroke-width="2" stroke-miterlimit="1.5" stroke-linecap="round" stroke-linejoin="round"/>
<path d="M370.903 124.159L362.682 108.786L367.709 104.795L370.221 106.568L369.925 102.873C369.925 102.873 390.473 84.6909 411.242 103.242C411.242 103.242 413.386 105.534 414.939 104.278L407.406 123.199" stroke="url(#paint20_linear)" stroke-width="2" stroke-miterlimit="1.5" stroke-linecap="round" stroke-linejoin="round"/>
<path fill-rule="evenodd" clip-rule="evenodd" d="M391.829 117.858C400.471 117.858 405.057 115.598 406.943 123.668C407.256 125.006 407.421 126.4 407.421 127.832C407.421 137.905 399.242 146.083 389.169 146.083C379.095 146.083 370.917 137.905 370.917 127.832C370.917 126.586 371.043 125.369 371.28 124.193C371.569 122.765 370.326 114.589 370.928 113.303C373.839 107.084 384.515 117.858 391.829 117.858Z" stroke="url(#paint21_linear)" stroke-width="2" stroke-miterlimit="1.5" stroke-linecap="round" stroke-linejoin="round"/>
<path d="M381.579 134.87C385.151 134.87 388.046 131.974 388.046 128.402C388.046 124.831 385.151 121.935 381.579 121.935C378.007 121.935 375.112 124.831 375.112 128.402C375.112 131.974 378.007 134.87 381.579 134.87Z" stroke="url(#paint22_linear)" stroke-width="2" stroke-miterlimit="1.5" stroke-linecap="round" stroke-linejoin="round"/>
<path d="M397.116 134.87C400.688 134.87 403.583 131.974 403.583 128.402C403.583 124.831 400.688 121.935 397.116 121.935C393.544 121.935 390.649 124.831 390.649 128.402C390.649 131.974 393.544 134.87 397.116 134.87Z" stroke="url(#paint23_linear)" stroke-width="2" stroke-miterlimit="1.5" stroke-linecap="round" stroke-linejoin="round"/>
<path d="M388.163 128.461H391.07" stroke="url(#paint24_linear)" stroke-width="2" stroke-miterlimit="1.5" stroke-linecap="round" stroke-linejoin="round"/>
<path d="M371.383 128.461H374.29" stroke="url(#paint25_linear)" stroke-width="2" stroke-miterlimit="1.5" stroke-linecap="round" stroke-linejoin="round"/>
<path d="M369.631 135.925C371.229 135.583 372.034 133.01 371.429 130.178C370.824 127.346 369.038 125.326 367.44 125.668C365.842 126.009 365.037 128.582 365.642 131.414C366.247 134.247 368.033 136.266 369.631 135.925Z" stroke="url(#paint26_linear)" stroke-width="2" stroke-miterlimit="1.5" stroke-linecap="round" stroke-linejoin="round"/>
<path d="M409.181 135.925C407.583 135.583 406.778 133.01 407.383 130.178C407.988 127.346 409.774 125.326 411.372 125.668C412.97 126.009 413.775 128.582 413.17 131.414C412.565 134.247 410.779 136.266 409.181 135.925Z" stroke="url(#paint27_linear)" stroke-width="2" stroke-miterlimit="1.5" stroke-linecap="round" stroke-linejoin="round"/>
<path d="M331.607 232.25H402.519V298.785H349.65" stroke="url(#paint28_linear)" stroke-width="2" stroke-miterlimit="1.5" stroke-linecap="round" stroke-linejoin="round"/>
<path d="M352.117 301.827H404.867V236.705L402.63 232.25" stroke="url(#paint29_linear)" stroke-width="2" stroke-miterlimit="1.5" stroke-linecap="round" stroke-linejoin="round"/>
<path d="M403.079 298.75L405.316 301.792" stroke="url(#paint30_linear)" stroke-width="2" stroke-miterlimit="1.5" stroke-linecap="round" stroke-linejoin="round"/>
<path d="M407.775 128.461H404.321" stroke="url(#paint31_linear)" stroke-width="2" stroke-miterlimit="1.5" stroke-linecap="round" stroke-linejoin="round"/>
<defs>
<filter id="filter0_ddi" x="0.213379" y="0.902344" width="761" height="761" filterUnits="userSpaceOnUse" color-interpolation-filters="sRGB">
<feFlood flood-opacity="0" result="BackgroundImageFix"/>
<feColorMatrix in="SourceAlpha" type="matrix" values="0 0 0 0 0 0 0 0 0 0 0 0 0 0 0 0 0 0 127 0"/>
<feOffset dx="-30" dy="-30"/>
<feGaussianBlur stdDeviation="40"/>
<feColorMatrix type="matrix" values="0 0 0 0 1 0 0 0 0 1 0 0 0 0 1 0 0 0 1 0"/>
<feBlend mode="normal" in2="BackgroundImageFix" result="effect1_dropShadow"/>
<feColorMatrix in="SourceAlpha" type="matrix" values="0 0 0 0 0 0 0 0 0 0 0 0 0 0 0 0 0 0 127 0"/>
<feOffset dx="30" dy="30"/>
<feGaussianBlur stdDeviation="40"/>
<feColorMatrix type="matrix" values="0 0 0 0 0.215686 0 0 0 0 0.329412 0 0 0 0 0.666667 0 0 0 0.1 0"/>
<feBlend mode="normal" in2="effect1_dropShadow" result="effect2_dropShadow"/>
<feBlend mode="normal" in="SourceGraphic" in2="effect2_dropShadow" result="shape"/>
<feColorMatrix in="SourceAlpha" type="matrix" values="0 0 0 0 0 0 0 0 0 0 0 0 0 0 0 0 0 0 127 0" result="hardAlpha"/>
<feOffset dx="4" dy="4"/>
<feGaussianBlur stdDeviation="12"/>
<feComposite in2="hardAlpha" operator="arithmetic" k2="-1" k3="1"/>
<feColorMatrix type="matrix" values="0 0 0 0 1 0 0 0 0 1 0 0 0 0 1 0 0 0 0.5 0"/>
<feBlend mode="normal" in2="shape" result="effect3_innerShadow"/>
</filter>
<linearGradient id="paint0_linear" x1="444.087" y1="360.278" x2="444.087" y2="389.885" gradientUnits="userSpaceOnUse">
<stop stop-color="#FAADDF"/>
<stop offset="0.401042" stop-color="#98BBF5"/>
<stop offset="0.729167" stop-color="#91DCF6"/>
<stop offset="1" stop-color="#F7C7CC"/>
</linearGradient>
<linearGradient id="paint1_linear" x1="383.488" y1="332.311" x2="383.488" y2="363.073" gradientUnits="userSpaceOnUse">
<stop stop-color="#FAADDF"/>
<stop offset="0.401042" stop-color="#98BBF5"/>
<stop offset="0.729167" stop-color="#91DCF6"/>
<stop offset="1" stop-color="#F7C7CC"/>
</linearGradient>
<linearGradient id="paint2_linear" x1="383.417" y1="351.577" x2="383.417" y2="582.851" gradientUnits="userSpaceOnUse">
<stop stop-color="#FAADDF"/>
<stop offset="0.401042" stop-color="#98BBF5"/>
<stop offset="0.729167" stop-color="#91DCF6"/>
<stop offset="1" stop-color="#F7C7CC"/>
</linearGradient>
<linearGradient id="paint3_linear" x1="350.693" y1="577.801" x2="350.693" y2="589.199" gradientUnits="userSpaceOnUse">
<stop stop-color="#FAADDF"/>
<stop offset="0.401042" stop-color="#98BBF5"/>
<stop offset="0.729167" stop-color="#91DCF6"/>
<stop offset="1" stop-color="#F7C7CC"/>
</linearGradient>
<linearGradient id="paint4_linear" x1="388.931" y1="570.032" x2="388.931" y2="587.813" gradientUnits="userSpaceOnUse">
<stop stop-color="#FAADDF"/>
<stop offset="0.401042" stop-color="#98BBF5"/>
<stop offset="0.729167" stop-color="#91DCF6"/>
<stop offset="1" stop-color="#F7C7CC"/>
</linearGradient>
<linearGradient id="paint5_linear" x1="338.451" y1="587.745" x2="338.451" y2="646.68" gradientUnits="userSpaceOnUse">
<stop stop-color="#FAADDF"/>
<stop offset="0.401042" stop-color="#98BBF5"/>
<stop offset="0.729167" stop-color="#91DCF6"/>
<stop offset="1" stop-color="#F7C7CC"/>
</linearGradient>
<linearGradient id="paint6_linear" x1="338.04" y1="620.684" x2="338.04" y2="651.851" gradientUnits="userSpaceOnUse">
<stop stop-color="#FAADDF"/>
<stop offset="0.401042" stop-color="#98BBF5"/>
<stop offset="0.729167" stop-color="#91DCF6"/>
<stop offset="1" stop-color="#F7C7CC"/>
</linearGradient>
<linearGradient id="paint7_linear" x1="413.024" y1="587.434" x2="413.024" y2="626.952" gradientUnits="userSpaceOnUse">
<stop stop-color="#FAADDF"/>
<stop offset="0.401042" stop-color="#98BBF5"/>
<stop offset="0.729167" stop-color="#91DCF6"/>
<stop offset="1" stop-color="#F7C7CC"/>
</linearGradient>
<linearGradient id="paint8_linear" x1="411.417" y1="605.146" x2="411.417" y2="632.383" gradientUnits="userSpaceOnUse">
<stop stop-color="#FAADDF"/>
<stop offset="0.401042" stop-color="#98BBF5"/>
<stop offset="0.729167" stop-color="#91DCF6"/>
<stop offset="1" stop-color="#F7C7CC"/>
</linearGradient>
<linearGradient id="paint9_linear" x1="316.333" y1="172.898" x2="316.333" y2="326.72" gradientUnits="userSpaceOnUse">
<stop stop-color="#FAADDF"/>
<stop offset="0.401042" stop-color="#98BBF5"/>
<stop offset="0.729167" stop-color="#91DCF6"/>
<stop offset="1" stop-color="#F7C7CC"/>
</linearGradient>
<linearGradient id="paint10_linear" x1="356.883" y1="305.276" x2="356.883" y2="343.845" gradientUnits="userSpaceOnUse">
<stop stop-color="#FAADDF"/>
<stop offset="0.401042" stop-color="#98BBF5"/>
<stop offset="0.729167" stop-color="#91DCF6"/>
<stop offset="1" stop-color="#F7C7CC"/>
</linearGradient>
<linearGradient id="paint11_linear" x1="434.322" y1="162.643" x2="434.322" y2="359.556" gradientUnits="userSpaceOnUse">
<stop stop-color="#FAADDF"/>
<stop offset="0.401042" stop-color="#98BBF5"/>
<stop offset="0.729167" stop-color="#91DCF6"/>
<stop offset="1" stop-color="#F7C7CC"/>
</linearGradient>
<linearGradient id="paint12_linear" x1="398.003" y1="175.073" x2="398.003" y2="229.78" gradientUnits="userSpaceOnUse">
<stop stop-color="#FAADDF"/>
<stop offset="0.401042" stop-color="#98BBF5"/>
<stop offset="0.729167" stop-color="#91DCF6"/>
<stop offset="1" stop-color="#F7C7CC"/>
</linearGradient>
<linearGradient id="paint13_linear" x1="356.926" y1="256.489" x2="356.926" y2="267.351" gradientUnits="userSpaceOnUse">
<stop stop-color="#FAADDF"/>
<stop offset="0.401042" stop-color="#98BBF5"/>
<stop offset="0.729167" stop-color="#91DCF6"/>
<stop offset="1" stop-color="#F7C7CC"/>
</linearGradient>
<linearGradient id="paint14_linear" x1="382.177" y1="162.643" x2="382.177" y2="175.133" gradientUnits="userSpaceOnUse">
<stop stop-color="#FAADDF"/>
<stop offset="0.401042" stop-color="#98BBF5"/>
<stop offset="0.729167" stop-color="#91DCF6"/>
<stop offset="1" stop-color="#F7C7CC"/>
</linearGradient>
<linearGradient id="paint15_linear" x1="378.365" y1="165.751" x2="378.365" y2="189.255" gradientUnits="userSpaceOnUse">
<stop stop-color="#FAADDF"/>
<stop offset="0.401042" stop-color="#98BBF5"/>
<stop offset="0.729167" stop-color="#91DCF6"/>
<stop offset="1" stop-color="#F7C7CC"/>
</linearGradient>
<linearGradient id="paint16_linear" x1="408.186" y1="162.643" x2="408.186" y2="186.945" gradientUnits="userSpaceOnUse">
<stop stop-color="#FAADDF"/>
<stop offset="0.401042" stop-color="#98BBF5"/>
<stop offset="0.729167" stop-color="#91DCF6"/>
<stop offset="1" stop-color="#F7C7CC"/>
</linearGradient>
<linearGradient id="paint17_linear" x1="390.361" y1="155.496" x2="390.361" y2="174.536" gradientUnits="userSpaceOnUse">
<stop stop-color="#FAADDF"/>
<stop offset="0.401042" stop-color="#98BBF5"/>
<stop offset="0.729167" stop-color="#91DCF6"/>
<stop offset="1" stop-color="#F7C7CC"/>
</linearGradient>
<linearGradient id="paint18_linear" x1="399.37" y1="143.998" x2="399.37" y2="160.953" gradientUnits="userSpaceOnUse">
<stop stop-color="#FAADDF"/>
<stop offset="0.401042" stop-color="#98BBF5"/>
<stop offset="0.729167" stop-color="#91DCF6"/>
<stop offset="1" stop-color="#F7C7CC"/>
</linearGradient>
<linearGradient id="paint19_linear" x1="381.99" y1="144.62" x2="381.99" y2="160.897" gradientUnits="userSpaceOnUse">
<stop stop-color="#FAADDF"/>
<stop offset="0.401042" stop-color="#98BBF5"/>
<stop offset="0.729167" stop-color="#91DCF6"/>
<stop offset="1" stop-color="#F7C7CC"/>
</linearGradient>
<linearGradient id="paint20_linear" x1="388.81" y1="94.9004" x2="388.81" y2="124.159" gradientUnits="userSpaceOnUse">
<stop stop-color="#FAADDF"/>
<stop offset="0.401042" stop-color="#98BBF5"/>
<stop offset="0.729167" stop-color="#91DCF6"/>
<stop offset="1" stop-color="#F7C7CC"/>
</linearGradient>
<linearGradient id="paint21_linear" x1="389.091" y1="111.37" x2="389.091" y2="146.083" gradientUnits="userSpaceOnUse">
<stop stop-color="#FAADDF"/>
<stop offset="0.401042" stop-color="#98BBF5"/>
<stop offset="0.729167" stop-color="#91DCF6"/>
<stop offset="1" stop-color="#F7C7CC"/>
</linearGradient>
<linearGradient id="paint22_linear" x1="381.579" y1="121.935" x2="381.579" y2="134.87" gradientUnits="userSpaceOnUse">
<stop stop-color="#FAADDF"/>
<stop offset="0.401042" stop-color="#98BBF5"/>
<stop offset="0.729167" stop-color="#91DCF6"/>
<stop offset="1" stop-color="#F7C7CC"/>
</linearGradient>
<linearGradient id="paint23_linear" x1="397.116" y1="121.935" x2="397.116" y2="134.87" gradientUnits="userSpaceOnUse">
<stop stop-color="#FAADDF"/>
<stop offset="0.401042" stop-color="#98BBF5"/>
<stop offset="0.729167" stop-color="#91DCF6"/>
<stop offset="1" stop-color="#F7C7CC"/>
</linearGradient>
<linearGradient id="paint24_linear" x1="389.616" y1="128.461" x2="389.616" y2="129.461" gradientUnits="userSpaceOnUse">
<stop stop-color="#FAADDF"/>
<stop offset="0.401042" stop-color="#98BBF5"/>
<stop offset="0.729167" stop-color="#91DCF6"/>
<stop offset="1" stop-color="#F7C7CC"/>
</linearGradient>
<linearGradient id="paint25_linear" x1="372.837" y1="128.461" x2="372.837" y2="129.461" gradientUnits="userSpaceOnUse">
<stop stop-color="#FAADDF"/>
<stop offset="0.401042" stop-color="#98BBF5"/>
<stop offset="0.729167" stop-color="#91DCF6"/>
<stop offset="1" stop-color="#F7C7CC"/>
</linearGradient>
<linearGradient id="paint26_linear" x1="367.44" y1="125.668" x2="369.631" y2="135.925" gradientUnits="userSpaceOnUse">
<stop stop-color="#FAADDF"/>
<stop offset="0.401042" stop-color="#98BBF5"/>
<stop offset="0.729167" stop-color="#91DCF6"/>
<stop offset="1" stop-color="#F7C7CC"/>
</linearGradient>
<linearGradient id="paint27_linear" x1="411.372" y1="125.668" x2="409.181" y2="135.925" gradientUnits="userSpaceOnUse">
<stop stop-color="#FAADDF"/>
<stop offset="0.401042" stop-color="#98BBF5"/>
<stop offset="0.729167" stop-color="#91DCF6"/>
<stop offset="1" stop-color="#F7C7CC"/>
</linearGradient>
<linearGradient id="paint28_linear" x1="367.063" y1="232.25" x2="367.063" y2="298.785" gradientUnits="userSpaceOnUse">
<stop stop-color="#FAADDF"/>
<stop offset="0.401042" stop-color="#98BBF5"/>
<stop offset="0.729167" stop-color="#91DCF6"/>
<stop offset="1" stop-color="#F7C7CC"/>
</linearGradient>
<linearGradient id="paint29_linear" x1="378.492" y1="232.25" x2="378.492" y2="301.827" gradientUnits="userSpaceOnUse">
<stop stop-color="#FAADDF"/>
<stop offset="0.401042" stop-color="#98BBF5"/>
<stop offset="0.729167" stop-color="#91DCF6"/>
<stop offset="1" stop-color="#F7C7CC"/>
</linearGradient>
<linearGradient id="paint30_linear" x1="404.198" y1="298.75" x2="404.198" y2="301.792" gradientUnits="userSpaceOnUse">
<stop stop-color="#FAADDF"/>
<stop offset="0.401042" stop-color="#98BBF5"/>
<stop offset="0.729167" stop-color="#91DCF6"/>
<stop offset="1" stop-color="#F7C7CC"/>
</linearGradient>
<linearGradient id="paint31_linear" x1="406.048" y1="128.461" x2="406.048" y2="129.461" gradientUnits="userSpaceOnUse">
<stop stop-color="#FAADDF"/>
<stop offset="0.401042" stop-color="#98BBF5"/>
<stop offset="0.729167" stop-color="#91DCF6"/>
<stop offset="1" stop-color="#F7C7CC"/>
</linearGradient>
</defs>
</svg>
