<svg width="762" height="762" viewBox="0 0 762 762" fill="none" xmlns="http://www.w3.org/2000/svg">
<g filter="url(#filter0_ddi)">
<circle cx="380.713" cy="380.502" r="270.5" fill="white"/>
<circle cx="380.713" cy="380.502" r="268" stroke="#FAFAFA" stroke-width="5"/>
</g>
<path fill-rule="evenodd" clip-rule="evenodd" d="M366.774 91.5958H390.74C390.74 91.5958 391.517 77.7246 401.836 75.9536C401.836 75.9536 378.424 65.8504 366.774 91.5958Z" stroke="url(#paint0_linear)" stroke-width="2" stroke-miterlimit="1.5" stroke-linecap="round" stroke-linejoin="round"/>
<path fill-rule="evenodd" clip-rule="evenodd" d="M401.826 75.9094C401.826 75.9094 415.362 83.778 419.134 97.4352H423.683C423.683 97.4352 423.128 72.3554 401.826 75.9094Z" stroke="url(#paint1_linear)" stroke-width="2" stroke-miterlimit="1.5" stroke-linecap="round" stroke-linejoin="round"/>
<path d="M366.78 91.6323C366.78 91.6323 353.688 99.3939 370.886 107.714V139.557C370.886 139.557 376.211 145.881 380.427 145.108C380.427 145.108 387.417 143.777 388.971 139.224V133.127C388.971 133.127 422.258 137.228 419.594 97.5159" stroke="url(#paint2_linear)" stroke-width="2" stroke-miterlimit="1.5" stroke-linecap="round" stroke-linejoin="round"/>
<path d="M365.25 104.146L365.228 137.724L370.553 138.057" stroke="url(#paint3_linear)" stroke-width="2" stroke-miterlimit="1.5" stroke-linecap="round" stroke-linejoin="round"/>
<path d="M388.957 138.104H417.584V115.806" stroke="url(#paint4_linear)" stroke-width="2" stroke-miterlimit="1.5" stroke-linecap="round" stroke-linejoin="round"/>
<path d="M387.019 112.357C392.074 112.357 396.173 108.259 396.173 103.203C396.173 98.1478 392.074 94.0496 387.019 94.0496C381.964 94.0496 377.866 98.1478 377.866 103.203C377.866 108.259 381.964 112.357 387.019 112.357Z" stroke="url(#paint5_linear)" stroke-width="2" stroke-miterlimit="1.5" stroke-linecap="round" stroke-linejoin="round"/>
<path d="M405.327 115.769C410.382 115.769 414.48 111.671 414.48 106.616C414.48 101.561 410.382 97.4624 405.327 97.4624C400.272 97.4624 396.173 101.561 396.173 106.616C396.173 111.671 400.272 115.769 405.327 115.769Z" stroke="url(#paint6_linear)" stroke-width="2" stroke-miterlimit="1.5" stroke-linecap="round" stroke-linejoin="round"/>
<path d="M370.553 139.411L365.228 149.431C365.228 149.431 366.09 156.408 374.366 158.417L379.346 145.104L385.293 157.573C385.293 157.573 392.467 156.146 394.019 149.431L388.976 139.601" stroke="url(#paint7_linear)" stroke-width="2" stroke-miterlimit="1.5" stroke-linecap="round" stroke-linejoin="round"/>
<path d="M365.217 149.46H332.281C332.281 149.46 316.4 150.875 314.934 168.027C313.47 185.166 314.587 318.434 314.587 318.434L318.796 317.97L324.874 282.431L434.05 281.73V318.898H460.467C460.467 318.898 458.129 196.696 436.388 158.446C436.388 158.446 432.582 150.067 421.36 148.938H394.008" stroke="url(#paint8_linear)" stroke-width="2" stroke-miterlimit="1.5" stroke-linecap="round" stroke-linejoin="round"/>
<path d="M426.195 154.768L434.06 281.676" stroke="url(#paint9_linear)" stroke-width="2" stroke-miterlimit="1.5" stroke-linecap="round" stroke-linejoin="round"/>
<path d="M314.179 165.148L325.192 281.775" stroke="url(#paint10_linear)" stroke-width="2" stroke-miterlimit="1.5" stroke-linecap="round" stroke-linejoin="round"/>
<path d="M314.909 318.272L314.179 335.198L317.054 334.663L318.969 317.583" stroke="url(#paint11_linear)" stroke-width="2" stroke-miterlimit="1.5" stroke-linecap="round" stroke-linejoin="round"/>
<path d="M434.051 318.863V331.129H460.468V318.863" stroke="url(#paint12_linear)" stroke-width="2" stroke-miterlimit="1.5" stroke-linecap="round" stroke-linejoin="round"/>
<path d="M321.787 301.017L369.914 310.122L377.145 281.749" stroke="url(#paint13_linear)" stroke-width="2" stroke-miterlimit="1.5" stroke-linecap="round" stroke-linejoin="round"/>
<path d="M391.232 281.749L394.973 310.122L434.05 302.764" stroke="url(#paint14_linear)" stroke-width="2" stroke-miterlimit="1.5" stroke-linecap="round" stroke-linejoin="round"/>
<path d="M316.578 335.103L288.37 512.493L345.294 513.099L374.359 317.488C374.359 317.488 375.01 310.095 379.399 310.048C379.399 310.048 384.108 309.75 383.549 318.843L374.359 512.695H435.508L434.053 330.515" stroke="url(#paint15_linear)" stroke-width="2" stroke-miterlimit="1.5" stroke-linecap="round" stroke-linejoin="round"/>
<path d="M434.3 361.46C434.3 361.46 455.812 357.669 456.167 331.234" stroke="url(#paint16_linear)" stroke-width="2" stroke-miterlimit="1.5" stroke-linecap="round" stroke-linejoin="round"/>
<path d="M288.377 512.25L286.202 527.013H332.355L335.003 513.13" stroke="url(#paint17_linear)" stroke-width="2" stroke-miterlimit="1.5" stroke-linecap="round" stroke-linejoin="round"/>
<path d="M286.189 527.039L283.163 547.174C283.163 547.174 309.36 534.408 318.722 556.35H327.518L332.246 527.039" stroke="url(#paint18_linear)" stroke-width="2" stroke-miterlimit="1.5" stroke-linecap="round" stroke-linejoin="round"/>
<path d="M391.748 513.104V526.986H435.5V513.104" stroke="url(#paint19_linear)" stroke-width="2" stroke-miterlimit="1.5" stroke-linecap="round" stroke-linejoin="round"/>
<path d="M391.748 527.039V556.35H420.828C420.828 556.35 424.755 547.518 435.5 546.567V527.039" stroke="url(#paint20_linear)" stroke-width="2" stroke-miterlimit="1.5" stroke-linecap="round" stroke-linejoin="round"/>
<path d="M391.748 556.331V581.898H449.083L420.828 556.331" stroke="url(#paint21_linear)" stroke-width="2" stroke-miterlimit="1.5" stroke-linecap="round" stroke-linejoin="round"/>
<path d="M421.787 554.567L451.459 580.574C451.459 580.574 465.291 564.016 478.531 564.729L435.513 546.52" stroke="url(#paint22_linear)" stroke-width="2" stroke-miterlimit="1.5" stroke-linecap="round" stroke-linejoin="round"/>
<path d="M391.748 581.86V595.934H505C505 595.934 502.517 569.57 478.519 564.721" stroke="url(#paint23_linear)" stroke-width="2" stroke-miterlimit="1.5" stroke-linecap="round" stroke-linejoin="round"/>
<path d="M283.174 547.231C283.174 547.231 277.296 551.617 274.472 556.324H270.194L249.373 581.891H252.844C252.844 581.891 266.079 564.263 286.738 565.547C286.738 565.547 306.349 566.094 314.501 580.595L318.617 556.324" stroke="url(#paint24_linear)" stroke-width="2" stroke-miterlimit="1.5" stroke-linecap="round" stroke-linejoin="round"/>
<path d="M320.147 556.331L315.708 581.898H332.255L327.594 556.331" stroke="url(#paint25_linear)" stroke-width="2" stroke-miterlimit="1.5" stroke-linecap="round" stroke-linejoin="round"/>
<path d="M332.252 581.927V596H245.677C245.677 596 244.584 587.394 249.367 581.927" stroke="url(#paint26_linear)" stroke-width="2" stroke-miterlimit="1.5" stroke-linecap="round" stroke-linejoin="round"/>
<path d="M455.114 239.2C455.114 239.2 464.256 235.206 467.093 259.061L472.557 325.16L460.998 325.362" stroke="url(#paint27_linear)" stroke-width="2" stroke-miterlimit="1.5" stroke-linecap="round" stroke-linejoin="round"/>
<path d="M375.893 125.617C375.893 125.617 380.264 131.929 389.091 132.927" stroke="url(#paint28_linear)" stroke-width="2" stroke-miterlimit="1.5" stroke-linecap="round" stroke-linejoin="round"/>
<path d="M358.24 110.291C361.351 110.291 363.873 107.77 363.873 104.659C363.873 101.548 361.351 99.0264 358.24 99.0264C355.13 99.0264 352.608 101.548 352.608 104.659C352.608 107.77 355.13 110.291 358.24 110.291Z" stroke="url(#paint29_linear)" stroke-width="2" stroke-miterlimit="1.5" stroke-linecap="round" stroke-linejoin="round"/>
<defs>
<filter id="filter0_ddi" x="0.213379" y="0.00195312" width="761" height="761" filterUnits="userSpaceOnUse" color-interpolation-filters="sRGB">
<feFlood flood-opacity="0" result="BackgroundImageFix"/>
<feColorMatrix in="SourceAlpha" type="matrix" values="0 0 0 0 0 0 0 0 0 0 0 0 0 0 0 0 0 0 127 0"/>
<feOffset dx="-30" dy="-30"/>
<feGaussianBlur stdDeviation="40"/>
<feColorMatrix type="matrix" values="0 0 0 0 1 0 0 0 0 1 0 0 0 0 1 0 0 0 1 0"/>
<feBlend mode="normal" in2="BackgroundImageFix" result="effect1_dropShadow"/>
<feColorMatrix in="SourceAlpha" type="matrix" values="0 0 0 0 0 0 0 0 0 0 0 0 0 0 0 0 0 0 127 0"/>
<feOffset dx="30" dy="30"/>
<feGaussianBlur stdDeviation="40"/>
<feColorMatrix type="matrix" values="0 0 0 0 0.215686 0 0 0 0 0.329412 0 0 0 0 0.666667 0 0 0 0.1 0"/>
<feBlend mode="normal" in2="effect1_dropShadow" result="effect2_dropShadow"/>
<feBlend mode="normal" in="SourceGraphic" in2="effect2_dropShadow" result="shape"/>
<feColorMatrix in="SourceAlpha" type="matrix" values="0 0 0 0 0 0 0 0 0 0 0 0 0 0 0 0 0 0 127 0" result="hardAlpha"/>
<feOffset dx="4" dy="4"/>
<feGaussianBlur stdDeviation="12"/>
<feComposite in2="hardAlpha" operator="arithmetic" k2="-1" k3="1"/>
<feColorMatrix type="matrix" values="0 0 0 0 1 0 0 0 0 1 0 0 0 0 1 0 0 0 0.5 0"/>
<feBlend mode="normal" in2="shape" result="effect3_innerShadow"/>
</filter>
<linearGradient id="paint0_linear" x1="384.305" y1="74" x2="384.305" y2="91.5958" gradientUnits="userSpaceOnUse">
<stop stop-color="#FAADDF"/>
<stop offset="0.411458" stop-color="#98BBF5"/>
<stop offset="0.744792" stop-color="#91DCF6"/>
<stop offset="1" stop-color="#F7C7CC"/>
</linearGradient>
<linearGradient id="paint1_linear" x1="412.754" y1="75.5645" x2="412.754" y2="97.4352" gradientUnits="userSpaceOnUse">
<stop stop-color="#FAADDF"/>
<stop offset="0.411458" stop-color="#98BBF5"/>
<stop offset="0.744792" stop-color="#91DCF6"/>
<stop offset="1" stop-color="#F7C7CC"/>
</linearGradient>
<linearGradient id="paint2_linear" x1="390.878" y1="91.6323" x2="390.878" y2="145.174" gradientUnits="userSpaceOnUse">
<stop stop-color="#FAADDF"/>
<stop offset="0.411458" stop-color="#98BBF5"/>
<stop offset="0.744792" stop-color="#91DCF6"/>
<stop offset="1" stop-color="#F7C7CC"/>
</linearGradient>
<linearGradient id="paint3_linear" x1="367.89" y1="104.146" x2="367.89" y2="138.057" gradientUnits="userSpaceOnUse">
<stop stop-color="#FAADDF"/>
<stop offset="0.411458" stop-color="#98BBF5"/>
<stop offset="0.744792" stop-color="#91DCF6"/>
<stop offset="1" stop-color="#F7C7CC"/>
</linearGradient>
<linearGradient id="paint4_linear" x1="403.27" y1="115.806" x2="403.27" y2="138.104" gradientUnits="userSpaceOnUse">
<stop stop-color="#FAADDF"/>
<stop offset="0.411458" stop-color="#98BBF5"/>
<stop offset="0.744792" stop-color="#91DCF6"/>
<stop offset="1" stop-color="#F7C7CC"/>
</linearGradient>
<linearGradient id="paint5_linear" x1="387.019" y1="94.0496" x2="387.019" y2="112.357" gradientUnits="userSpaceOnUse">
<stop stop-color="#FAADDF"/>
<stop offset="0.411458" stop-color="#98BBF5"/>
<stop offset="0.744792" stop-color="#91DCF6"/>
<stop offset="1" stop-color="#F7C7CC"/>
</linearGradient>
<linearGradient id="paint6_linear" x1="405.327" y1="97.4624" x2="405.327" y2="115.769" gradientUnits="userSpaceOnUse">
<stop stop-color="#FAADDF"/>
<stop offset="0.411458" stop-color="#98BBF5"/>
<stop offset="0.744792" stop-color="#91DCF6"/>
<stop offset="1" stop-color="#F7C7CC"/>
</linearGradient>
<linearGradient id="paint7_linear" x1="379.623" y1="139.411" x2="379.623" y2="158.417" gradientUnits="userSpaceOnUse">
<stop stop-color="#FAADDF"/>
<stop offset="0.411458" stop-color="#98BBF5"/>
<stop offset="0.744792" stop-color="#91DCF6"/>
<stop offset="1" stop-color="#F7C7CC"/>
</linearGradient>
<linearGradient id="paint8_linear" x1="387.323" y1="148.938" x2="387.323" y2="318.898" gradientUnits="userSpaceOnUse">
<stop stop-color="#FAADDF"/>
<stop offset="0.411458" stop-color="#98BBF5"/>
<stop offset="0.744792" stop-color="#91DCF6"/>
<stop offset="1" stop-color="#F7C7CC"/>
</linearGradient>
<linearGradient id="paint9_linear" x1="430.127" y1="154.768" x2="430.127" y2="281.676" gradientUnits="userSpaceOnUse">
<stop stop-color="#FAADDF"/>
<stop offset="0.411458" stop-color="#98BBF5"/>
<stop offset="0.744792" stop-color="#91DCF6"/>
<stop offset="1" stop-color="#F7C7CC"/>
</linearGradient>
<linearGradient id="paint10_linear" x1="319.685" y1="165.148" x2="319.685" y2="281.775" gradientUnits="userSpaceOnUse">
<stop stop-color="#FAADDF"/>
<stop offset="0.411458" stop-color="#98BBF5"/>
<stop offset="0.744792" stop-color="#91DCF6"/>
<stop offset="1" stop-color="#F7C7CC"/>
</linearGradient>
<linearGradient id="paint11_linear" x1="316.574" y1="317.583" x2="316.574" y2="335.198" gradientUnits="userSpaceOnUse">
<stop stop-color="#FAADDF"/>
<stop offset="0.411458" stop-color="#98BBF5"/>
<stop offset="0.744792" stop-color="#91DCF6"/>
<stop offset="1" stop-color="#F7C7CC"/>
</linearGradient>
<linearGradient id="paint12_linear" x1="447.259" y1="318.863" x2="447.259" y2="331.129" gradientUnits="userSpaceOnUse">
<stop stop-color="#FAADDF"/>
<stop offset="0.411458" stop-color="#98BBF5"/>
<stop offset="0.744792" stop-color="#91DCF6"/>
<stop offset="1" stop-color="#F7C7CC"/>
</linearGradient>
<linearGradient id="paint13_linear" x1="349.466" y1="281.749" x2="349.466" y2="310.122" gradientUnits="userSpaceOnUse">
<stop stop-color="#FAADDF"/>
<stop offset="0.411458" stop-color="#98BBF5"/>
<stop offset="0.744792" stop-color="#91DCF6"/>
<stop offset="1" stop-color="#F7C7CC"/>
</linearGradient>
<linearGradient id="paint14_linear" x1="412.641" y1="281.749" x2="412.641" y2="310.122" gradientUnits="userSpaceOnUse">
<stop stop-color="#FAADDF"/>
<stop offset="0.411458" stop-color="#98BBF5"/>
<stop offset="0.744792" stop-color="#91DCF6"/>
<stop offset="1" stop-color="#F7C7CC"/>
</linearGradient>
<linearGradient id="paint15_linear" x1="361.939" y1="310.046" x2="361.939" y2="513.099" gradientUnits="userSpaceOnUse">
<stop stop-color="#FAADDF"/>
<stop offset="0.411458" stop-color="#98BBF5"/>
<stop offset="0.744792" stop-color="#91DCF6"/>
<stop offset="1" stop-color="#F7C7CC"/>
</linearGradient>
<linearGradient id="paint16_linear" x1="445.234" y1="331.234" x2="445.234" y2="361.46" gradientUnits="userSpaceOnUse">
<stop stop-color="#FAADDF"/>
<stop offset="0.411458" stop-color="#98BBF5"/>
<stop offset="0.744792" stop-color="#91DCF6"/>
<stop offset="1" stop-color="#F7C7CC"/>
</linearGradient>
<linearGradient id="paint17_linear" x1="310.603" y1="512.25" x2="310.603" y2="527.013" gradientUnits="userSpaceOnUse">
<stop stop-color="#FAADDF"/>
<stop offset="0.411458" stop-color="#98BBF5"/>
<stop offset="0.744792" stop-color="#91DCF6"/>
<stop offset="1" stop-color="#F7C7CC"/>
</linearGradient>
<linearGradient id="paint18_linear" x1="307.705" y1="527.039" x2="307.705" y2="556.35" gradientUnits="userSpaceOnUse">
<stop stop-color="#FAADDF"/>
<stop offset="0.411458" stop-color="#98BBF5"/>
<stop offset="0.744792" stop-color="#91DCF6"/>
<stop offset="1" stop-color="#F7C7CC"/>
</linearGradient>
<linearGradient id="paint19_linear" x1="413.624" y1="513.104" x2="413.624" y2="526.986" gradientUnits="userSpaceOnUse">
<stop stop-color="#FAADDF"/>
<stop offset="0.411458" stop-color="#98BBF5"/>
<stop offset="0.744792" stop-color="#91DCF6"/>
<stop offset="1" stop-color="#F7C7CC"/>
</linearGradient>
<linearGradient id="paint20_linear" x1="413.624" y1="527.039" x2="413.624" y2="556.35" gradientUnits="userSpaceOnUse">
<stop stop-color="#FAADDF"/>
<stop offset="0.411458" stop-color="#98BBF5"/>
<stop offset="0.744792" stop-color="#91DCF6"/>
<stop offset="1" stop-color="#F7C7CC"/>
</linearGradient>
<linearGradient id="paint21_linear" x1="420.415" y1="556.331" x2="420.415" y2="581.898" gradientUnits="userSpaceOnUse">
<stop stop-color="#FAADDF"/>
<stop offset="0.411458" stop-color="#98BBF5"/>
<stop offset="0.744792" stop-color="#91DCF6"/>
<stop offset="1" stop-color="#F7C7CC"/>
</linearGradient>
<linearGradient id="paint22_linear" x1="450.159" y1="546.52" x2="450.159" y2="580.574" gradientUnits="userSpaceOnUse">
<stop stop-color="#FAADDF"/>
<stop offset="0.411458" stop-color="#98BBF5"/>
<stop offset="0.744792" stop-color="#91DCF6"/>
<stop offset="1" stop-color="#F7C7CC"/>
</linearGradient>
<linearGradient id="paint23_linear" x1="448.374" y1="564.721" x2="448.374" y2="595.934" gradientUnits="userSpaceOnUse">
<stop stop-color="#FAADDF"/>
<stop offset="0.411458" stop-color="#98BBF5"/>
<stop offset="0.744792" stop-color="#91DCF6"/>
<stop offset="1" stop-color="#F7C7CC"/>
</linearGradient>
<linearGradient id="paint24_linear" x1="283.995" y1="547.231" x2="283.995" y2="581.891" gradientUnits="userSpaceOnUse">
<stop stop-color="#FAADDF"/>
<stop offset="0.411458" stop-color="#98BBF5"/>
<stop offset="0.744792" stop-color="#91DCF6"/>
<stop offset="1" stop-color="#F7C7CC"/>
</linearGradient>
<linearGradient id="paint25_linear" x1="323.981" y1="556.331" x2="323.981" y2="581.898" gradientUnits="userSpaceOnUse">
<stop stop-color="#FAADDF"/>
<stop offset="0.411458" stop-color="#98BBF5"/>
<stop offset="0.744792" stop-color="#91DCF6"/>
<stop offset="1" stop-color="#F7C7CC"/>
</linearGradient>
<linearGradient id="paint26_linear" x1="288.911" y1="581.927" x2="288.911" y2="596" gradientUnits="userSpaceOnUse">
<stop stop-color="#FAADDF"/>
<stop offset="0.411458" stop-color="#98BBF5"/>
<stop offset="0.744792" stop-color="#91DCF6"/>
<stop offset="1" stop-color="#F7C7CC"/>
</linearGradient>
<linearGradient id="paint27_linear" x1="463.835" y1="238.948" x2="463.835" y2="325.362" gradientUnits="userSpaceOnUse">
<stop stop-color="#FAADDF"/>
<stop offset="0.411458" stop-color="#98BBF5"/>
<stop offset="0.744792" stop-color="#91DCF6"/>
<stop offset="1" stop-color="#F7C7CC"/>
</linearGradient>
<linearGradient id="paint28_linear" x1="382.492" y1="125.617" x2="382.492" y2="132.927" gradientUnits="userSpaceOnUse">
<stop stop-color="#FAADDF"/>
<stop offset="0.411458" stop-color="#98BBF5"/>
<stop offset="0.744792" stop-color="#91DCF6"/>
<stop offset="1" stop-color="#F7C7CC"/>
</linearGradient>
<linearGradient id="paint29_linear" x1="358.24" y1="99.0264" x2="358.24" y2="110.291" gradientUnits="userSpaceOnUse">
<stop stop-color="#FAADDF"/>
<stop offset="0.411458" stop-color="#98BBF5"/>
<stop offset="0.744792" stop-color="#91DCF6"/>
<stop offset="1" stop-color="#F7C7CC"/>
</linearGradient>
</defs>
</svg>
