<svg width="152" height="56" viewBox="0 0 152 56" fill="none" xmlns="http://www.w3.org/2000/svg">
<g filter="url(#filter0_i)">
<path fill-rule="evenodd" clip-rule="evenodd" d="M69.2742 38.8549C66.8226 40.8166 63.5494 42.3199 59.1006 42.3199C53.105 42.3199 47.5826 38.1052 42.6658 29.7861L42.6623 29.7896L42.5365 29.5631L42.1574 28.8827L40.5141 25.9308L40.4735 25.8573L39.6874 24.4462L39.6785 24.4616C35.6319 17.4846 29.9287 9.91977 19.5203 9.91977C5.6302 9.91977 0.454102 20.813 0.454102 27.6799V56H4.79839V39.6201C4.80602 39.6273 4.81301 39.6359 4.82095 39.6428V36.2333L4.79839 36.2523V27.6799C4.79839 22.4838 8.79508 14.2399 19.5203 14.2399C27.3192 14.2399 31.722 19.459 35.9745 26.7506C36.3874 27.4601 36.7928 28.1739 37.1904 28.8919C37.2009 28.8745 37.2104 28.8572 37.2199 28.8401L39.696 33.1672L40.124 33.915C45.6149 42.3625 51.9851 46.64 59.1006 46.64C64.4536 46.64 68.4405 44.9266 71.4354 42.6843H71.3826L69.2742 38.8549ZM34.5799 33.0388C30.2147 39.1976 25.3919 42.3196 20.2447 42.3196C16.5283 42.3196 13.2992 41.1685 10.1861 38.6829L8.07321 42.5215C11.7916 45.3103 15.7628 46.64 20.2447 46.64C26.6993 46.64 32.5627 43.0983 37.6845 36.1321L35.3828 31.8621C35.122 32.2588 34.8543 32.6511 34.5799 33.0388ZM59.8247 9.91977C50.2258 9.91977 44.9128 16.2111 41.3577 21.7085L43.8735 25.8854C44.2343 25.2774 44.6059 24.6758 44.9881 24.0808C49.4426 17.183 53.88 14.2399 59.8247 14.2399C70.5499 14.2399 74.5466 22.4838 74.5466 27.6799V32.5825C74.546 32.5831 74.5454 32.5837 74.545 32.5844V39.8485C74.5456 39.8482 74.5459 39.8476 74.5466 39.8476V46.0799H78.8909V27.6799C78.8909 20.8133 73.7144 9.91977 59.8247 9.91977ZM151.454 14.2399V9.91977C141.051 9.91977 135.348 17.4767 131.302 24.4509C127.256 17.4767 121.553 9.91977 111.15 9.91977C97.2603 9.91977 92.0839 20.8133 92.0839 27.6799V55.9997H96.4281V38.7457L96.4294 38.7476V37.6987L96.4281 37.7V27.6799C96.4281 25.4152 97.2797 21.9745 99.6687 19.1094C102.363 15.8782 106.226 14.2399 111.15 14.2399C118.944 14.2399 123.347 19.453 127.597 26.7377L127.616 26.7197L128.842 28.8625L128.823 28.8963C129.055 29.3134 129.285 29.7313 129.514 30.15C130.075 31.1789 130.673 32.1873 131.308 33.1732L131.316 33.1858L131.316 33.1852C136.853 41.7803 144.062 46.6397 151.454 46.6397V42.3196C145.072 42.3196 138.666 37.4403 133.782 28.8947C138.442 20.5044 142.91 14.2399 151.454 14.2399ZM111.874 42.3196C107.751 42.3196 104.28 40.1215 102.049 38.2216L99.9197 42.0883C102.724 44.3148 106.854 46.6397 111.874 46.6397C118.331 46.6397 124.173 43.1147 129.303 36.151L127.001 31.8779C122.419 38.8088 117.343 42.3196 111.874 42.3196ZM83.3152 46.0799H87.6592V0H83.3152V46.0799Z" fill="url(#paint0_linear)"/>
<path fill-rule="evenodd" clip-rule="evenodd" d="M69.2742 38.8549C66.8226 40.8166 63.5494 42.3199 59.1006 42.3199C53.105 42.3199 47.5826 38.1052 42.6658 29.7861L42.6623 29.7896L42.5365 29.5631L42.1574 28.8827L40.5141 25.9308L40.4735 25.8573L39.6874 24.4462L39.6785 24.4616C35.6319 17.4846 29.9287 9.91977 19.5203 9.91977C5.6302 9.91977 0.454102 20.813 0.454102 27.6799V56H4.79839V39.6201C4.80602 39.6273 4.81301 39.6359 4.82095 39.6428V36.2333L4.79839 36.2523V27.6799C4.79839 22.4838 8.79508 14.2399 19.5203 14.2399C27.3192 14.2399 31.722 19.459 35.9745 26.7506C36.3874 27.4601 36.7928 28.1739 37.1904 28.8919C37.2009 28.8745 37.2104 28.8572 37.2199 28.8401L39.696 33.1672L40.124 33.915C45.6149 42.3625 51.9851 46.64 59.1006 46.64C64.4536 46.64 68.4405 44.9266 71.4354 42.6843H71.3826L69.2742 38.8549ZM34.5799 33.0388C30.2147 39.1976 25.3919 42.3196 20.2447 42.3196C16.5283 42.3196 13.2992 41.1685 10.1861 38.6829L8.07321 42.5215C11.7916 45.3103 15.7628 46.64 20.2447 46.64C26.6993 46.64 32.5627 43.0983 37.6845 36.1321L35.3828 31.8621C35.122 32.2588 34.8543 32.6511 34.5799 33.0388ZM59.8247 9.91977C50.2258 9.91977 44.9128 16.2111 41.3577 21.7085L43.8735 25.8854C44.2343 25.2774 44.6059 24.6758 44.9881 24.0808C49.4426 17.183 53.88 14.2399 59.8247 14.2399C70.5499 14.2399 74.5466 22.4838 74.5466 27.6799V32.5825C74.546 32.5831 74.5454 32.5837 74.545 32.5844V39.8485C74.5456 39.8482 74.5459 39.8476 74.5466 39.8476V46.0799H78.8909V27.6799C78.8909 20.8133 73.7144 9.91977 59.8247 9.91977ZM151.454 14.2399V9.91977C141.051 9.91977 135.348 17.4767 131.302 24.4509C127.256 17.4767 121.553 9.91977 111.15 9.91977C97.2603 9.91977 92.0839 20.8133 92.0839 27.6799V55.9997H96.4281V38.7457L96.4294 38.7476V37.6987L96.4281 37.7V27.6799C96.4281 25.4152 97.2797 21.9745 99.6687 19.1094C102.363 15.8782 106.226 14.2399 111.15 14.2399C118.944 14.2399 123.347 19.453 127.597 26.7377L127.616 26.7197L128.842 28.8625L128.823 28.8963C129.055 29.3134 129.285 29.7313 129.514 30.15C130.075 31.1789 130.673 32.1873 131.308 33.1732L131.316 33.1858L131.316 33.1852C136.853 41.7803 144.062 46.6397 151.454 46.6397V42.3196C145.072 42.3196 138.666 37.4403 133.782 28.8947C138.442 20.5044 142.91 14.2399 151.454 14.2399ZM111.874 42.3196C107.751 42.3196 104.28 40.1215 102.049 38.2216L99.9197 42.0883C102.724 44.3148 106.854 46.6397 111.874 46.6397C118.331 46.6397 124.173 43.1147 129.303 36.151L127.001 31.8779C122.419 38.8088 117.343 42.3196 111.874 42.3196ZM83.3152 46.0799H87.6592V0H83.3152V46.0799Z" fill="url(#paint1_linear)"/>
<path fill-rule="evenodd" clip-rule="evenodd" d="M69.2742 38.8549C66.8226 40.8166 63.5494 42.3199 59.1006 42.3199C53.105 42.3199 47.5826 38.1052 42.6658 29.7861L42.6623 29.7896L42.5365 29.5631L42.1574 28.8827L40.5141 25.9308L40.4735 25.8573L39.6874 24.4462L39.6785 24.4616C35.6319 17.4846 29.9287 9.91977 19.5203 9.91977C5.6302 9.91977 0.454102 20.813 0.454102 27.6799V56H4.79839V39.6201C4.80602 39.6273 4.81301 39.6359 4.82095 39.6428V36.2333L4.79839 36.2523V27.6799C4.79839 22.4838 8.79508 14.2399 19.5203 14.2399C27.3192 14.2399 31.722 19.459 35.9745 26.7506C36.3874 27.4601 36.7928 28.1739 37.1904 28.8919C37.2009 28.8745 37.2104 28.8572 37.2199 28.8401L39.696 33.1672L40.124 33.915C45.6149 42.3625 51.9851 46.64 59.1006 46.64C64.4536 46.64 68.4405 44.9266 71.4354 42.6843H71.3826L69.2742 38.8549ZM34.5799 33.0388C30.2147 39.1976 25.3919 42.3196 20.2447 42.3196C16.5283 42.3196 13.2992 41.1685 10.1861 38.6829L8.07321 42.5215C11.7916 45.3103 15.7628 46.64 20.2447 46.64C26.6993 46.64 32.5627 43.0983 37.6845 36.1321L35.3828 31.8621C35.122 32.2588 34.8543 32.6511 34.5799 33.0388ZM59.8247 9.91977C50.2258 9.91977 44.9128 16.2111 41.3577 21.7085L43.8735 25.8854C44.2343 25.2774 44.6059 24.6758 44.9881 24.0808C49.4426 17.183 53.88 14.2399 59.8247 14.2399C70.5499 14.2399 74.5466 22.4838 74.5466 27.6799V32.5825C74.546 32.5831 74.5454 32.5837 74.545 32.5844V39.8485C74.5456 39.8482 74.5459 39.8476 74.5466 39.8476V46.0799H78.8909V27.6799C78.8909 20.8133 73.7144 9.91977 59.8247 9.91977ZM151.454 14.2399V9.91977C141.051 9.91977 135.348 17.4767 131.302 24.4509C127.256 17.4767 121.553 9.91977 111.15 9.91977C97.2603 9.91977 92.0839 20.8133 92.0839 27.6799V55.9997H96.4281V38.7457L96.4294 38.7476V37.6987L96.4281 37.7V27.6799C96.4281 25.4152 97.2797 21.9745 99.6687 19.1094C102.363 15.8782 106.226 14.2399 111.15 14.2399C118.944 14.2399 123.347 19.453 127.597 26.7377L127.616 26.7197L128.842 28.8625L128.823 28.8963C129.055 29.3134 129.285 29.7313 129.514 30.15C130.075 31.1789 130.673 32.1873 131.308 33.1732L131.316 33.1858L131.316 33.1852C136.853 41.7803 144.062 46.6397 151.454 46.6397V42.3196C145.072 42.3196 138.666 37.4403 133.782 28.8947C138.442 20.5044 142.91 14.2399 151.454 14.2399ZM111.874 42.3196C107.751 42.3196 104.28 40.1215 102.049 38.2216L99.9197 42.0883C102.724 44.3148 106.854 46.6397 111.874 46.6397C118.331 46.6397 124.173 43.1147 129.303 36.151L127.001 31.8779C122.419 38.8088 117.343 42.3196 111.874 42.3196ZM83.3152 46.0799H87.6592V0H83.3152V46.0799Z" fill="url(#paint2_linear)"/>
</g>
<defs>
<filter id="filter0_i" x="0.454102" y="0" width="153" height="56" filterUnits="userSpaceOnUse" color-interpolation-filters="sRGB">
<feFlood flood-opacity="0" result="BackgroundImageFix"/>
<feBlend mode="normal" in="SourceGraphic" in2="BackgroundImageFix" result="shape"/>
<feColorMatrix in="SourceAlpha" type="matrix" values="0 0 0 0 0 0 0 0 0 0 0 0 0 0 0 0 0 0 127 0" result="hardAlpha"/>
<feOffset dx="2"/>
<feGaussianBlur stdDeviation="12"/>
<feComposite in2="hardAlpha" operator="arithmetic" k2="-1" k3="1"/>
<feColorMatrix type="matrix" values="0 0 0 0 0.425 0 0 0 0 0.425 0 0 0 0 0.425 0 0 0 0.5 0"/>
<feBlend mode="normal" in2="shape" result="effect1_innerShadow"/>
</filter>
<linearGradient id="paint0_linear" x1="0.454102" y1="0" x2="146.557" y2="17.2064" gradientUnits="userSpaceOnUse">
<stop stop-color="#98BBF5"/>
<stop offset="1" stop-color="#8DEFF6"/>
</linearGradient>
<linearGradient id="paint1_linear" x1="-9.46477" y1="112.821" x2="80.0007" y2="52.7528" gradientUnits="userSpaceOnUse">
<stop offset="0.194631" stop-color="#FFCD93"/>
<stop offset="0.512291" stop-color="#F5C5D7"/>
<stop offset="1" stop-color="white" stop-opacity="0"/>
</linearGradient>
<linearGradient id="paint2_linear" x1="84.3226" y1="38.2247" x2="112.87" y2="70.5075" gradientUnits="userSpaceOnUse">
<stop stop-color="white" stop-opacity="0"/>
<stop offset="1" stop-color="#FAADDF"/>
</linearGradient>
</defs>
</svg>
